<ttFont>
    <TTGlyph name=".notdef" xMin="7" yMin="0" xMax="507" yMax="700">
      <contour>
        <pt x="7" y="700" on="1"/>
        <pt x="507" y="700" on="1"/>
        <pt x="507" y="0" on="1"/>
        <pt x="7" y="0" on="1"/>
      </contour>
      <contour>
        <pt x="426" y="650" on="1"/>
        <pt x="86" y="650" on="1"/>
        <pt x="257" y="395" on="1"/>
      </contour>
      <contour>
        <pt x="227" y="350" on="1"/>
        <pt x="56" y="605" on="1"/>
        <pt x="56" y="95" on="1"/>
      </contour>
      <contour>
        <pt x="456" y="605" on="1"/>
        <pt x="287" y="350" on="1"/>
        <pt x="456" y="95" on="1"/>
      </contour>
      <contour>
        <pt x="427" y="50" on="1"/>
        <pt x="256" y="305" on="1"/>
        <pt x="87" y="50" on="1"/>
      </contour>
    </TTGlyph>
    <TTGlyph name="A" xMin="6" yMin="-2" xMax="499" yMax="702">
      <contour>
        <pt x="6" y="-2" on="0"/>
        <pt x="6" y="18" on="1"/>
        <pt x="6" y="21" on="0"/>
        <pt x="8" y="35" on="1"/>
        <pt x="172" y="677" on="1"/>
        <pt x="178" y="702" on="0"/>
        <pt x="226" y="702" on="1"/>
        <pt x="279" y="702" on="1"/>
        <pt x="327" y="702" on="0"/>
        <pt x="334" y="677" on="1"/>
        <pt x="497" y="35" on="1"/>
        <pt x="499" y="21" on="0"/>
        <pt x="499" y="18" on="1"/>
        <pt x="499" y="-2" on="0"/>
        <pt x="458" y="-2" on="1"/>
        <pt x="418" y="-2" on="1"/>
        <pt x="375" y="-2" on="0"/>
        <pt x="371" y="17" on="1"/>
        <pt x="339" y="154" on="1"/>
        <pt x="165" y="154" on="1"/>
        <pt x="133" y="17" on="1"/>
        <pt x="129" y="-2" on="0"/>
        <pt x="90" y="-2" on="1"/>
        <pt x="50" y="-2" on="1"/>
      </contour>
      <contour>
        <pt x="320" y="260" on="1"/>
        <pt x="266" y="493" on="1"/>
        <pt x="259" y="525" on="0"/>
        <pt x="254" y="564" on="1"/>
        <pt x="249" y="564" on="1"/>
        <pt x="244" y="525" on="0"/>
        <pt x="237" y="493" on="1"/>
        <pt x="184" y="260" on="1"/>
      </contour>
    </TTGlyph>
    <TTGlyph name="AE" xMin="2" yMin="-2" xMax="698" yMax="700">
      <contour>
        <pt x="2" y="-2" on="0"/>
        <pt x="2" y="18" on="1"/>
        <pt x="2" y="28" on="0"/>
        <pt x="6" y="36" on="1"/>
        <pt x="255" y="673" on="1"/>
        <pt x="265" y="700" on="0"/>
        <pt x="290" y="700" on="1"/>
        <pt x="672" y="700" on="1"/>
        <pt x="697" y="700" on="0"/>
        <pt x="697" y="657" on="1"/>
        <pt x="697" y="631" on="1"/>
        <pt x="697" y="588" on="0"/>
        <pt x="672" y="588" on="1"/>
        <pt x="427" y="588" on="1"/>
        <pt x="449" y="414" on="1"/>
        <pt x="651" y="414" on="1"/>
        <pt x="676" y="414" on="0"/>
        <pt x="676" y="371" on="1"/>
        <pt x="676" y="345" on="1"/>
        <pt x="676" y="302" on="0"/>
        <pt x="651" y="302" on="1"/>
        <pt x="464" y="302" on="1"/>
        <pt x="489" y="112" on="1"/>
        <pt x="673" y="112" on="1"/>
        <pt x="698" y="112" on="0"/>
        <pt x="698" y="69" on="1"/>
        <pt x="698" y="43" on="1"/>
        <pt x="698" y="0" on="0"/>
        <pt x="673" y="0" on="1"/>
        <pt x="401" y="0" on="1"/>
        <pt x="388" y="0" on="0"/>
        <pt x="375" y="14" on="0"/>
        <pt x="373" y="30" on="1"/>
        <pt x="358" y="154" on="1"/>
        <pt x="178" y="154" on="1"/>
        <pt x="126" y="17" on="1"/>
        <pt x="119" y="-2" on="0"/>
        <pt x="89" y="-2" on="1"/>
        <pt x="54" y="-2" on="1"/>
      </contour>
      <contour>
        <pt x="345" y="266" on="1"/>
        <pt x="321" y="479" on="1"/>
        <pt x="320" y="546" on="1"/>
        <pt x="317" y="546" on="1"/>
        <pt x="295" y="480" on="1"/>
        <pt x="216" y="266" on="1"/>
      </contour>
    </TTGlyph>
    <TTGlyph name="AEacute" xMin="2" yMin="-2" xMax="698" yMax="910">
      <component glyphName="AE" x="0" y="0" flags="0x0"/>
      <component glyphName="acutecomb" x="440" y="177" flags="0x4"/>
    </TTGlyph>
    <TTGlyph name="Aacute" xMin="6" yMin="-2" xMax="499" yMax="910">
      <component glyphName="A" x="0" y="0" flags="0x0"/>
      <component glyphName="acutecomb" x="299" y="177" flags="0x4"/>
    </TTGlyph>
    <TTGlyph name="Abreve" xMin="6" yMin="-2" xMax="499" yMax="892">
      <component glyphName="A" x="0" y="0" flags="0x0"/>
      <component glyphName="uni0306" x="253" y="177" flags="0x4"/>
    </TTGlyph>
    <TTGlyph name="Acircumflex" xMin="6" yMin="-2" xMax="499" yMax="895">
      <component glyphName="A" x="0" y="0" flags="0x0"/>
      <component glyphName="uni0302" x="250" y="177" flags="0x4"/>
    </TTGlyph>
    <TTGlyph name="Adieresis" xMin="6" yMin="-2" xMax="499" yMax="879">
      <component glyphName="A" x="0" y="0" flags="0x0"/>
      <component glyphName="uni0308" x="254" y="177" flags="0x4"/>
    </TTGlyph>
    <TTGlyph name="Agrave" xMin="6" yMin="-2" xMax="499" yMax="910">
      <component glyphName="A" x="0" y="0" flags="0x0"/>
      <component glyphName="gravecomb" x="252" y="177" flags="0x4"/>
    </TTGlyph>
    <TTGlyph name="Amacron" xMin="6" yMin="-2" xMax="499" yMax="866">
      <component glyphName="A" x="0" y="0" flags="0x0"/>
      <component glyphName="uni0304" x="254" y="177" flags="0x4"/>
    </TTGlyph>
    <TTGlyph name="Aogonek" xMin="6" yMin="-170" xMax="511" yMax="702">
      <contour>
        <pt x="498" y="-98" on="0"/>
        <pt x="511" y="-111" on="0"/>
        <pt x="511" y="-126" on="1"/>
        <pt x="511" y="-146" on="0"/>
        <pt x="496" y="-156" on="1"/>
        <pt x="468" y="-170" on="0"/>
        <pt x="436" y="-170" on="1"/>
        <pt x="380" y="-170" on="0"/>
        <pt x="341" y="-111" on="0"/>
        <pt x="341" y="-78" on="1"/>
        <pt x="341" y="-58" on="0"/>
        <pt x="355" y="-4" on="0"/>
        <pt x="370" y="21" on="1"/>
        <pt x="339" y="154" on="1"/>
        <pt x="165" y="154" on="1"/>
        <pt x="133" y="17" on="1"/>
        <pt x="129" y="-2" on="0"/>
        <pt x="90" y="-2" on="1"/>
        <pt x="50" y="-2" on="1"/>
        <pt x="6" y="-2" on="0"/>
        <pt x="6" y="18" on="1"/>
        <pt x="6" y="21" on="0"/>
        <pt x="8" y="35" on="1"/>
        <pt x="172" y="677" on="1"/>
        <pt x="178" y="702" on="0"/>
        <pt x="226" y="702" on="1"/>
        <pt x="279" y="702" on="1"/>
        <pt x="327" y="702" on="0"/>
        <pt x="334" y="677" on="1"/>
        <pt x="497" y="35" on="1"/>
        <pt x="499" y="21" on="0"/>
        <pt x="499" y="18" on="1"/>
        <pt x="499" y="-2" on="0"/>
        <pt x="458" y="-2" on="1"/>
        <pt x="418" y="-2" on="1"/>
        <pt x="406" y="-34" on="0"/>
        <pt x="406" y="-59" on="1"/>
        <pt x="406" y="-103" on="0"/>
        <pt x="455" y="-103" on="1"/>
        <pt x="463" y="-103" on="0"/>
        <pt x="480" y="-98" on="0"/>
        <pt x="485" y="-98" on="1"/>
      </contour>
      <contour>
        <pt x="320" y="260" on="1"/>
        <pt x="266" y="493" on="1"/>
        <pt x="259" y="525" on="0"/>
        <pt x="254" y="564" on="1"/>
        <pt x="249" y="564" on="1"/>
        <pt x="244" y="525" on="0"/>
        <pt x="237" y="493" on="1"/>
        <pt x="184" y="260" on="1"/>
      </contour>
    </TTGlyph>
    <TTGlyph name="Aring" xMin="6" yMin="-2" xMax="499" yMax="920">
      <component glyphName="A" x="0" y="0" flags="0x0"/>
      <component glyphName="uni030A" x="251" y="177" flags="0x4"/>
    </TTGlyph>
    <TTGlyph name="Aringacute" xMin="6" yMin="-2" xMax="499" yMax="1010">
      <contour>
        <pt x="227" y="872" on="0"/>
        <pt x="217" y="878" on="0"/>
        <pt x="217" y="885" on="1"/>
        <pt x="217" y="891" on="0"/>
        <pt x="234" y="932" on="1"/>
        <pt x="255" y="983" on="1"/>
        <pt x="268" y="1010" on="0"/>
        <pt x="322" y="1010" on="1"/>
        <pt x="342" y="1010" on="0"/>
        <pt x="359" y="1002" on="0"/>
        <pt x="359" y="990" on="1"/>
        <pt x="359" y="984" on="0"/>
        <pt x="333" y="947" on="0"/>
        <pt x="305" y="911" on="1"/>
        <pt x="287" y="888" on="1"/>
        <pt x="280" y="880" on="0"/>
        <pt x="259" y="872" on="0"/>
        <pt x="239" y="872" on="1"/>
      </contour>
      <contour>
        <pt x="499" y="21" on="0"/>
        <pt x="499" y="18" on="1"/>
        <pt x="499" y="-2" on="0"/>
        <pt x="458" y="-2" on="1"/>
        <pt x="418" y="-2" on="1"/>
        <pt x="375" y="-2" on="0"/>
        <pt x="371" y="17" on="1"/>
        <pt x="339" y="154" on="1"/>
        <pt x="165" y="154" on="1"/>
        <pt x="133" y="17" on="1"/>
        <pt x="129" y="-2" on="0"/>
        <pt x="90" y="-2" on="1"/>
        <pt x="50" y="-2" on="1"/>
        <pt x="6" y="-2" on="0"/>
        <pt x="6" y="18" on="1"/>
        <pt x="6" y="21" on="0"/>
        <pt x="8" y="35" on="1"/>
        <pt x="172" y="677" on="1"/>
        <pt x="173" y="685" on="0"/>
        <pt x="182" y="692" on="1"/>
        <pt x="159" y="718" on="0"/>
        <pt x="159" y="758" on="1"/>
        <pt x="159" y="800" on="0"/>
        <pt x="210" y="852" on="0"/>
        <pt x="252" y="852" on="1"/>
        <pt x="296" y="852" on="0"/>
        <pt x="346" y="800" on="0"/>
        <pt x="346" y="758" on="1"/>
        <pt x="346" y="718" on="0"/>
        <pt x="323" y="692" on="1"/>
        <pt x="330" y="688" on="0"/>
        <pt x="334" y="677" on="1"/>
        <pt x="497" y="35" on="1"/>
      </contour>
      <contour>
        <pt x="234" y="799" on="0"/>
        <pt x="213" y="777" on="0"/>
        <pt x="212" y="757" on="1"/>
        <pt x="214" y="717" on="0"/>
        <pt x="253" y="717" on="1"/>
        <pt x="272" y="717" on="0"/>
        <pt x="293" y="738" on="0"/>
        <pt x="293" y="757" on="1"/>
        <pt x="293" y="777" on="0"/>
        <pt x="272" y="799" on="0"/>
        <pt x="253" y="799" on="1"/>
      </contour>
      <contour>
        <pt x="320" y="260" on="1"/>
        <pt x="266" y="493" on="1"/>
        <pt x="259" y="525" on="0"/>
        <pt x="254" y="564" on="1"/>
        <pt x="249" y="564" on="1"/>
        <pt x="244" y="525" on="0"/>
        <pt x="237" y="493" on="1"/>
        <pt x="184" y="260" on="1"/>
      </contour>
    </TTGlyph>
    <TTGlyph name="Atilde" xMin="6" yMin="-2" xMax="499" yMax="873">
      <component glyphName="A" x="0" y="0" flags="0x0"/>
      <component glyphName="tildecomb" x="256" y="177" flags="0x4"/>
    </TTGlyph>
    <TTGlyph name="B" xMin="64" yMin="0" xMax="499" yMax="700">
      <contour>
        <pt x="80" y="0" on="0"/>
        <pt x="64" y="17" on="0"/>
        <pt x="64" y="37" on="1"/>
        <pt x="64" y="664" on="1"/>
        <pt x="64" y="683" on="0"/>
        <pt x="80" y="700" on="0"/>
        <pt x="98" y="700" on="1"/>
        <pt x="275" y="700" on="1"/>
        <pt x="378" y="700" on="0"/>
        <pt x="478" y="610" on="0"/>
        <pt x="478" y="528" on="1"/>
        <pt x="478" y="472" on="0"/>
        <pt x="428" y="388" on="0"/>
        <pt x="388" y="368" on="1"/>
        <pt x="388" y="364" on="1"/>
        <pt x="434" y="350" on="0"/>
        <pt x="499" y="267" on="0"/>
        <pt x="499" y="198" on="1"/>
        <pt x="499" y="104" on="0"/>
        <pt x="387" y="0" on="0"/>
        <pt x="277" y="0" on="1"/>
        <pt x="98" y="0" on="1"/>
      </contour>
      <contour>
        <pt x="273" y="409" on="1"/>
        <pt x="310" y="409" on="0"/>
        <pt x="350" y="459" on="0"/>
        <pt x="350" y="505" on="1"/>
        <pt x="350" y="553" on="0"/>
        <pt x="313" y="595" on="0"/>
        <pt x="274" y="595" on="1"/>
        <pt x="192" y="595" on="1"/>
        <pt x="192" y="409" on="1"/>
      </contour>
      <contour>
        <pt x="287" y="105" on="1"/>
        <pt x="369" y="105" on="0"/>
        <pt x="369" y="209" on="1"/>
        <pt x="369" y="258" on="0"/>
        <pt x="326" y="305" on="0"/>
        <pt x="282" y="305" on="1"/>
        <pt x="192" y="305" on="1"/>
        <pt x="192" y="105" on="1"/>
      </contour>
    </TTGlyph>
    <TTGlyph name="C" xMin="41" yMin="-7" xMax="437" yMax="707">
      <contour>
        <pt x="168" y="-7" on="0"/>
        <pt x="41" y="166" on="0"/>
        <pt x="41" y="351" on="1"/>
        <pt x="41" y="531" on="0"/>
        <pt x="173" y="707" on="0"/>
        <pt x="309" y="707" on="1"/>
        <pt x="364" y="707" on="0"/>
        <pt x="401" y="694" on="1"/>
        <pt x="416" y="689" on="0"/>
        <pt x="428" y="669" on="0"/>
        <pt x="427" y="653" on="1"/>
        <pt x="427" y="623" on="0"/>
        <pt x="404" y="570" on="0"/>
        <pt x="386" y="578" on="1"/>
        <pt x="352" y="592" on="0"/>
        <pt x="314" y="592" on="1"/>
        <pt x="245" y="592" on="0"/>
        <pt x="178" y="473" on="0"/>
        <pt x="178" y="351" on="1"/>
        <pt x="178" y="228" on="0"/>
        <pt x="245" y="109" on="0"/>
        <pt x="317" y="109" on="1"/>
        <pt x="339" y="109" on="0"/>
        <pt x="372" y="117" on="0"/>
        <pt x="393" y="124" on="1"/>
        <pt x="399" y="126" on="0"/>
        <pt x="402" y="126" on="1"/>
        <pt x="419" y="126" on="0"/>
        <pt x="437" y="81" on="0"/>
        <pt x="437" y="49" on="1"/>
        <pt x="437" y="35" on="0"/>
        <pt x="426" y="16" on="0"/>
        <pt x="410" y="10" on="1"/>
        <pt x="393" y="3" on="0"/>
        <pt x="337" y="-7" on="0"/>
        <pt x="306" y="-7" on="1"/>
      </contour>
    </TTGlyph>
    <TTGlyph name="Cacute" xMin="41" yMin="-7" xMax="437" yMax="910">
      <component glyphName="C" x="0" y="0" flags="0x0"/>
      <component glyphName="acutecomb" x="343" y="177" flags="0x4"/>
    </TTGlyph>
    <TTGlyph name="Cacute.loclPLK" xMin="41" yMin="-7" xMax="437" yMax="910">
      <component glyphName="C" x="0" y="0" flags="0x0"/>
      <component glyphName="acute.loclPLK" x="209" y="177" flags="0x4"/>
    </TTGlyph>
    <TTGlyph name="Ccaron" xMin="41" yMin="-7" xMax="437" yMax="897">
      <component glyphName="C" x="0" y="0" flags="0x0"/>
      <component glyphName="uni030C" x="290" y="177" flags="0x4"/>
    </TTGlyph>
    <TTGlyph name="Ccedilla" xMin="41" yMin="-211" xMax="437" yMax="707">
      <contour>
        <pt x="399" y="126" on="0"/>
        <pt x="402" y="126" on="1"/>
        <pt x="419" y="126" on="0"/>
        <pt x="437" y="81" on="0"/>
        <pt x="437" y="49" on="1"/>
        <pt x="437" y="35" on="0"/>
        <pt x="426" y="16" on="0"/>
        <pt x="410" y="10" on="1"/>
        <pt x="378" y="-2" on="0"/>
        <pt x="332" y="-6" on="1"/>
        <pt x="320" y="-52" on="1"/>
        <pt x="349" y="-55" on="0"/>
        <pt x="387" y="-91" on="0"/>
        <pt x="387" y="-124" on="1"/>
        <pt x="387" y="-168" on="0"/>
        <pt x="331" y="-211" on="0"/>
        <pt x="285" y="-211" on="1"/>
        <pt x="246" y="-211" on="0"/>
        <pt x="184" y="-182" on="0"/>
        <pt x="184" y="-162" on="1"/>
        <pt x="184" y="-147" on="0"/>
        <pt x="202" y="-126" on="0"/>
        <pt x="211" y="-126" on="1"/>
        <pt x="217" y="-126" on="0"/>
        <pt x="235" y="-134" on="1"/>
        <pt x="261" y="-147" on="0"/>
        <pt x="277" y="-147" on="1"/>
        <pt x="288" y="-147" on="0"/>
        <pt x="303" y="-137" on="0"/>
        <pt x="303" y="-126" on="1"/>
        <pt x="303" y="-115" on="0"/>
        <pt x="290" y="-106" on="0"/>
        <pt x="276" y="-99" on="1"/>
        <pt x="253" y="-91" on="0"/>
        <pt x="253" y="-79" on="1"/>
        <pt x="253" y="-70" on="0"/>
        <pt x="276" y="-6" on="1"/>
        <pt x="154" y="3" on="0"/>
        <pt x="41" y="176" on="0"/>
        <pt x="41" y="351" on="1"/>
        <pt x="41" y="531" on="0"/>
        <pt x="173" y="707" on="0"/>
        <pt x="309" y="707" on="1"/>
        <pt x="364" y="707" on="0"/>
        <pt x="401" y="694" on="1"/>
        <pt x="416" y="689" on="0"/>
        <pt x="428" y="669" on="0"/>
        <pt x="427" y="653" on="1"/>
        <pt x="427" y="623" on="0"/>
        <pt x="404" y="570" on="0"/>
        <pt x="386" y="578" on="1"/>
        <pt x="352" y="592" on="0"/>
        <pt x="314" y="592" on="1"/>
        <pt x="245" y="592" on="0"/>
        <pt x="178" y="473" on="0"/>
        <pt x="178" y="351" on="1"/>
        <pt x="178" y="228" on="0"/>
        <pt x="245" y="109" on="0"/>
        <pt x="317" y="109" on="1"/>
        <pt x="339" y="109" on="0"/>
        <pt x="372" y="117" on="0"/>
        <pt x="393" y="124" on="1"/>
      </contour>
    </TTGlyph>
    <TTGlyph name="Ccircumflex" xMin="41" yMin="-7" xMax="437" yMax="895">
      <component glyphName="C" x="0" y="0" flags="0x0"/>
      <component glyphName="uni0302" x="294" y="177" flags="0x4"/>
    </TTGlyph>
    <TTGlyph name="Cdotaccent" xMin="41" yMin="-7" xMax="437" yMax="879">
      <component glyphName="C" x="0" y="0" flags="0x0"/>
      <component glyphName="uni0307" x="296" y="177" flags="0x4"/>
    </TTGlyph>
    <TTGlyph name="D" xMin="64" yMin="0" xMax="533" yMax="700">
      <contour>
        <pt x="80" y="0" on="0"/>
        <pt x="64" y="17" on="0"/>
        <pt x="64" y="37" on="1"/>
        <pt x="64" y="663" on="1"/>
        <pt x="64" y="683" on="0"/>
        <pt x="80" y="700" on="0"/>
        <pt x="98" y="700" on="1"/>
        <pt x="280" y="700" on="1"/>
        <pt x="407" y="700" on="0"/>
        <pt x="533" y="529" on="0"/>
        <pt x="533" y="350" on="1"/>
        <pt x="533" y="171" on="0"/>
        <pt x="407" y="0" on="0"/>
        <pt x="280" y="0" on="1"/>
        <pt x="98" y="0" on="1"/>
      </contour>
      <contour>
        <pt x="276" y="112" on="1"/>
        <pt x="337" y="112" on="0"/>
        <pt x="397" y="223" on="0"/>
        <pt x="397" y="350" on="1"/>
        <pt x="397" y="477" on="0"/>
        <pt x="337" y="588" on="0"/>
        <pt x="276" y="588" on="1"/>
        <pt x="199" y="588" on="1"/>
        <pt x="199" y="112" on="1"/>
      </contour>
    </TTGlyph>
    <TTGlyph name="Dcaron" xMin="64" yMin="0" xMax="533" yMax="897">
      <component glyphName="D" x="0" y="0" flags="0x0"/>
      <component glyphName="uni030C" x="272" y="177" flags="0x4"/>
    </TTGlyph>
    <TTGlyph name="Dcroat" xMin="8" yMin="0" xMax="533" yMax="700">
      <component glyphName="Eth" x="0" y="0" flags="0x0"/>
    </TTGlyph>
    <TTGlyph name="E" xMin="64" yMin="0" xMax="416" yMax="700">
      <contour>
        <pt x="80" y="0" on="0"/>
        <pt x="64" y="17" on="0"/>
        <pt x="64" y="37" on="1"/>
        <pt x="64" y="663" on="1"/>
        <pt x="64" y="683" on="0"/>
        <pt x="80" y="700" on="0"/>
        <pt x="98" y="700" on="1"/>
        <pt x="390" y="700" on="1"/>
        <pt x="404" y="700" on="0"/>
        <pt x="416" y="679" on="0"/>
        <pt x="416" y="657" on="1"/>
        <pt x="416" y="631" on="1"/>
        <pt x="416" y="609" on="0"/>
        <pt x="404" y="588" on="0"/>
        <pt x="390" y="588" on="1"/>
        <pt x="197" y="588" on="1"/>
        <pt x="197" y="414" on="1"/>
        <pt x="369" y="414" on="1"/>
        <pt x="383" y="414" on="0"/>
        <pt x="395" y="393" on="0"/>
        <pt x="395" y="371" on="1"/>
        <pt x="395" y="345" on="1"/>
        <pt x="395" y="323" on="0"/>
        <pt x="383" y="302" on="0"/>
        <pt x="369" y="302" on="1"/>
        <pt x="197" y="302" on="1"/>
        <pt x="197" y="112" on="1"/>
        <pt x="391" y="112" on="1"/>
        <pt x="404" y="112" on="0"/>
        <pt x="416" y="92" on="0"/>
        <pt x="416" y="69" on="1"/>
        <pt x="416" y="43" on="1"/>
        <pt x="416" y="20" on="0"/>
        <pt x="404" y="0" on="0"/>
        <pt x="391" y="0" on="1"/>
        <pt x="98" y="0" on="1"/>
      </contour>
    </TTGlyph>
    <TTGlyph name="Eacute" xMin="64" yMin="0" xMax="416" yMax="910">
      <component glyphName="E" x="0" y="0" flags="0x0"/>
      <component glyphName="acutecomb" x="293" y="177" flags="0x4"/>
    </TTGlyph>
    <TTGlyph name="Ebreve" xMin="64" yMin="0" xMax="416" yMax="892">
      <component glyphName="E" x="0" y="0" flags="0x0"/>
      <component glyphName="uni0306" x="247" y="177" flags="0x4"/>
    </TTGlyph>
    <TTGlyph name="Ecaron" xMin="64" yMin="0" xMax="416" yMax="897">
      <component glyphName="E" x="0" y="0" flags="0x0"/>
      <component glyphName="uni030C" x="240" y="177" flags="0x4"/>
    </TTGlyph>
    <TTGlyph name="Ecircumflex" xMin="64" yMin="0" xMax="416" yMax="895">
      <component glyphName="E" x="0" y="0" flags="0x0"/>
      <component glyphName="uni0302" x="244" y="177" flags="0x4"/>
    </TTGlyph>
    <TTGlyph name="Edieresis" xMin="64" yMin="0" xMax="416" yMax="879">
      <component glyphName="E" x="0" y="0" flags="0x0"/>
      <component glyphName="uni0308" x="248" y="177" flags="0x4"/>
    </TTGlyph>
    <TTGlyph name="Edotaccent" xMin="64" yMin="0" xMax="416" yMax="879">
      <component glyphName="E" x="0" y="0" flags="0x0"/>
      <component glyphName="uni0307" x="246" y="177" flags="0x4"/>
    </TTGlyph>
    <TTGlyph name="Egrave" xMin="64" yMin="0" xMax="416" yMax="910">
      <component glyphName="E" x="0" y="0" flags="0x0"/>
      <component glyphName="gravecomb" x="246" y="177" flags="0x4"/>
    </TTGlyph>
    <TTGlyph name="Emacron" xMin="64" yMin="0" xMax="416" yMax="866">
      <component glyphName="E" x="0" y="0" flags="0x0"/>
      <component glyphName="uni0304" x="248" y="177" flags="0x4"/>
    </TTGlyph>
    <TTGlyph name="Eng" xMin="59" yMin="-212" xMax="531" yMax="702">
      <contour>
        <pt x="531" y="702" on="0"/>
        <pt x="531" y="673" on="1"/>
        <pt x="531" y="-60" on="1"/>
        <pt x="531" y="-137" on="0"/>
        <pt x="459" y="-212" on="0"/>
        <pt x="405" y="-212" on="1"/>
        <pt x="363" y="-212" on="0"/>
        <pt x="316" y="-192" on="0"/>
        <pt x="316" y="-168" on="1"/>
        <pt x="316" y="-150" on="0"/>
        <pt x="331" y="-106" on="0"/>
        <pt x="344" y="-106" on="1"/>
        <pt x="348" y="-106" on="0"/>
        <pt x="367" y="-111" on="0"/>
        <pt x="376" y="-111" on="1"/>
        <pt x="394" y="-111" on="0"/>
        <pt x="410" y="-88" on="0"/>
        <pt x="410" y="-59" on="1"/>
        <pt x="410" y="25" on="1"/>
        <pt x="205" y="404" on="1"/>
        <pt x="195" y="422" on="0"/>
        <pt x="178" y="467" on="1"/>
        <pt x="173" y="465" on="1"/>
        <pt x="181" y="428" on="0"/>
        <pt x="181" y="397" on="1"/>
        <pt x="181" y="27" on="1"/>
        <pt x="181" y="-2" on="0"/>
        <pt x="130" y="-2" on="1"/>
        <pt x="110" y="-2" on="1"/>
        <pt x="59" y="-2" on="0"/>
        <pt x="59" y="27" on="1"/>
        <pt x="59" y="673" on="1"/>
        <pt x="59" y="702" on="0"/>
        <pt x="110" y="702" on="1"/>
        <pt x="136" y="702" on="1"/>
        <pt x="154" y="702" on="0"/>
        <pt x="176" y="692" on="0"/>
        <pt x="183" y="677" on="1"/>
        <pt x="381" y="309" on="1"/>
        <pt x="393" y="287" on="0"/>
        <pt x="412" y="236" on="1"/>
        <pt x="417" y="238" on="1"/>
        <pt x="409" y="278" on="0"/>
        <pt x="409" y="313" on="1"/>
        <pt x="409" y="673" on="1"/>
        <pt x="409" y="702" on="0"/>
        <pt x="460" y="702" on="1"/>
        <pt x="480" y="702" on="1"/>
      </contour>
    </TTGlyph>
    <TTGlyph name="Eogonek" xMin="64" yMin="-177" xMax="495" yMax="700">
      <contour>
        <pt x="482" y="-105" on="0"/>
        <pt x="495" y="-118" on="0"/>
        <pt x="495" y="-133" on="1"/>
        <pt x="495" y="-153" on="0"/>
        <pt x="480" y="-163" on="1"/>
        <pt x="452" y="-177" on="0"/>
        <pt x="420" y="-177" on="1"/>
        <pt x="364" y="-177" on="0"/>
        <pt x="325" y="-118" on="0"/>
        <pt x="325" y="-85" on="1"/>
        <pt x="325" y="-43" on="0"/>
        <pt x="346" y="0" on="1"/>
        <pt x="98" y="0" on="1"/>
        <pt x="80" y="0" on="0"/>
        <pt x="64" y="17" on="0"/>
        <pt x="64" y="37" on="1"/>
        <pt x="64" y="663" on="1"/>
        <pt x="64" y="683" on="0"/>
        <pt x="80" y="700" on="0"/>
        <pt x="98" y="700" on="1"/>
        <pt x="390" y="700" on="1"/>
        <pt x="404" y="700" on="0"/>
        <pt x="416" y="679" on="0"/>
        <pt x="416" y="657" on="1"/>
        <pt x="416" y="631" on="1"/>
        <pt x="416" y="609" on="0"/>
        <pt x="404" y="588" on="0"/>
        <pt x="390" y="588" on="1"/>
        <pt x="197" y="588" on="1"/>
        <pt x="197" y="414" on="1"/>
        <pt x="369" y="414" on="1"/>
        <pt x="383" y="414" on="0"/>
        <pt x="395" y="393" on="0"/>
        <pt x="395" y="371" on="1"/>
        <pt x="395" y="345" on="1"/>
        <pt x="395" y="323" on="0"/>
        <pt x="383" y="302" on="0"/>
        <pt x="369" y="302" on="1"/>
        <pt x="197" y="302" on="1"/>
        <pt x="197" y="112" on="1"/>
        <pt x="391" y="112" on="1"/>
        <pt x="404" y="112" on="0"/>
        <pt x="416" y="92" on="0"/>
        <pt x="416" y="69" on="1"/>
        <pt x="416" y="43" on="1"/>
        <pt x="416" y="19" on="0"/>
        <pt x="409" y="9" on="1"/>
        <pt x="390" y="-30" on="0"/>
        <pt x="390" y="-66" on="1"/>
        <pt x="390" y="-110" on="0"/>
        <pt x="439" y="-110" on="1"/>
        <pt x="447" y="-110" on="0"/>
        <pt x="464" y="-105" on="0"/>
        <pt x="469" y="-105" on="1"/>
      </contour>
    </TTGlyph>
    <TTGlyph name="Eth" xMin="8" yMin="0" xMax="533" yMax="700">
      <contour>
        <pt x="407" y="700" on="0"/>
        <pt x="533" y="529" on="0"/>
        <pt x="533" y="350" on="1"/>
        <pt x="533" y="171" on="0"/>
        <pt x="407" y="0" on="0"/>
        <pt x="280" y="0" on="1"/>
        <pt x="98" y="0" on="1"/>
        <pt x="80" y="0" on="0"/>
        <pt x="64" y="17" on="0"/>
        <pt x="64" y="37" on="1"/>
        <pt x="64" y="301" on="1"/>
        <pt x="34" y="301" on="1"/>
        <pt x="20" y="301" on="0"/>
        <pt x="8" y="322" on="0"/>
        <pt x="8" y="344" on="1"/>
        <pt x="8" y="369" on="1"/>
        <pt x="8" y="391" on="0"/>
        <pt x="20" y="412" on="0"/>
        <pt x="34" y="412" on="1"/>
        <pt x="64" y="412" on="1"/>
        <pt x="64" y="663" on="1"/>
        <pt x="64" y="683" on="0"/>
        <pt x="80" y="700" on="0"/>
        <pt x="98" y="700" on="1"/>
        <pt x="280" y="700" on="1"/>
      </contour>
      <contour>
        <pt x="337" y="112" on="0"/>
        <pt x="397" y="223" on="0"/>
        <pt x="397" y="350" on="1"/>
        <pt x="397" y="477" on="0"/>
        <pt x="337" y="588" on="0"/>
        <pt x="276" y="588" on="1"/>
        <pt x="199" y="588" on="1"/>
        <pt x="199" y="412" on="1"/>
        <pt x="252" y="412" on="1"/>
        <pt x="266" y="412" on="0"/>
        <pt x="278" y="391" on="0"/>
        <pt x="278" y="369" on="1"/>
        <pt x="278" y="344" on="1"/>
        <pt x="278" y="322" on="0"/>
        <pt x="266" y="301" on="0"/>
        <pt x="252" y="301" on="1"/>
        <pt x="199" y="301" on="1"/>
        <pt x="199" y="112" on="1"/>
        <pt x="276" y="112" on="1"/>
      </contour>
    </TTGlyph>
    <TTGlyph name="Euro" xMin="2" yMin="-7" xMax="483" yMax="707">
      <contour>
        <pt x="201" y="-7" on="0"/>
        <pt x="80" y="110" on="0"/>
        <pt x="63" y="234" on="1"/>
        <pt x="28" y="234" on="1"/>
        <pt x="14" y="234" on="0"/>
        <pt x="2" y="250" on="0"/>
        <pt x="2" y="267" on="1"/>
        <pt x="2" y="274" on="1"/>
        <pt x="2" y="291" on="0"/>
        <pt x="14" y="306" on="0"/>
        <pt x="28" y="306" on="1"/>
        <pt x="57" y="306" on="1"/>
        <pt x="56" y="321" on="0"/>
        <pt x="56" y="351" on="1"/>
        <pt x="56" y="376" on="0"/>
        <pt x="57" y="388" on="1"/>
        <pt x="28" y="388" on="1"/>
        <pt x="14" y="388" on="0"/>
        <pt x="2" y="404" on="0"/>
        <pt x="2" y="421" on="1"/>
        <pt x="2" y="428" on="1"/>
        <pt x="2" y="445" on="0"/>
        <pt x="14" y="460" on="0"/>
        <pt x="28" y="460" on="1"/>
        <pt x="63" y="460" on="1"/>
        <pt x="80" y="584" on="0"/>
        <pt x="205" y="707" on="0"/>
        <pt x="314" y="707" on="1"/>
        <pt x="357" y="707" on="0"/>
        <pt x="431" y="685" on="0"/>
        <pt x="476" y="654" on="0"/>
        <pt x="476" y="640" on="1"/>
        <pt x="476" y="621" on="0"/>
        <pt x="438" y="561" on="0"/>
        <pt x="423" y="561" on="1"/>
        <pt x="419" y="561" on="0"/>
        <pt x="387" y="579" on="0"/>
        <pt x="346" y="592" on="0"/>
        <pt x="318" y="592" on="1"/>
        <pt x="270" y="592" on="0"/>
        <pt x="212" y="528" on="0"/>
        <pt x="200" y="460" on="1"/>
        <pt x="391" y="460" on="1"/>
        <pt x="405" y="460" on="0"/>
        <pt x="418" y="445" on="0"/>
        <pt x="418" y="428" on="1"/>
        <pt x="418" y="421" on="1"/>
        <pt x="418" y="404" on="0"/>
        <pt x="405" y="388" on="0"/>
        <pt x="391" y="388" on="1"/>
        <pt x="193" y="388" on="1"/>
        <pt x="192" y="376" on="0"/>
        <pt x="192" y="351" on="1"/>
        <pt x="192" y="321" on="0"/>
        <pt x="193" y="306" on="1"/>
        <pt x="391" y="306" on="1"/>
        <pt x="405" y="306" on="0"/>
        <pt x="418" y="291" on="0"/>
        <pt x="418" y="274" on="1"/>
        <pt x="418" y="267" on="1"/>
        <pt x="418" y="250" on="0"/>
        <pt x="405" y="234" on="0"/>
        <pt x="391" y="234" on="1"/>
        <pt x="202" y="234" on="1"/>
        <pt x="225" y="108" on="0"/>
        <pt x="317" y="108" on="1"/>
        <pt x="347" y="108" on="0"/>
        <pt x="390" y="124" on="0"/>
        <pt x="411" y="136" on="1"/>
        <pt x="427" y="145" on="0"/>
        <pt x="432" y="145" on="1"/>
        <pt x="445" y="145" on="0"/>
        <pt x="469" y="117" on="0"/>
        <pt x="483" y="82" on="0"/>
        <pt x="483" y="73" on="1"/>
        <pt x="483" y="55" on="0"/>
        <pt x="435" y="17" on="0"/>
        <pt x="355" y="-7" on="0"/>
        <pt x="310" y="-7" on="1"/>
      </contour>
    </TTGlyph>
    <TTGlyph name="F" xMin="64" yMin="-2" xMax="393" yMax="700">
      <contour>
        <pt x="64" y="-2" on="0"/>
        <pt x="64" y="27" on="1"/>
        <pt x="64" y="663" on="1"/>
        <pt x="64" y="683" on="0"/>
        <pt x="80" y="700" on="0"/>
        <pt x="98" y="700" on="1"/>
        <pt x="368" y="700" on="1"/>
        <pt x="393" y="700" on="0"/>
        <pt x="393" y="657" on="1"/>
        <pt x="393" y="631" on="1"/>
        <pt x="393" y="588" on="0"/>
        <pt x="368" y="588" on="1"/>
        <pt x="197" y="588" on="1"/>
        <pt x="197" y="414" on="1"/>
        <pt x="356" y="414" on="1"/>
        <pt x="381" y="414" on="0"/>
        <pt x="381" y="371" on="1"/>
        <pt x="381" y="345" on="1"/>
        <pt x="381" y="302" on="0"/>
        <pt x="356" y="302" on="1"/>
        <pt x="197" y="302" on="1"/>
        <pt x="197" y="27" on="1"/>
        <pt x="197" y="12" on="0"/>
        <pt x="173" y="-2" on="0"/>
        <pt x="146" y="-2" on="1"/>
        <pt x="115" y="-2" on="1"/>
      </contour>
    </TTGlyph>
    <TTGlyph name="G" xMin="41" yMin="-7" xMax="496" yMax="707">
      <contour>
        <pt x="496" y="400" on="0"/>
        <pt x="496" y="364" on="1"/>
        <pt x="496" y="70" on="1"/>
        <pt x="496" y="35" on="0"/>
        <pt x="375" y="-7" on="0"/>
        <pt x="307" y="-7" on="1"/>
        <pt x="172" y="-7" on="0"/>
        <pt x="41" y="167" on="0"/>
        <pt x="41" y="349" on="1"/>
        <pt x="41" y="530" on="0"/>
        <pt x="175" y="707" on="0"/>
        <pt x="312" y="707" on="1"/>
        <pt x="354" y="707" on="0"/>
        <pt x="435" y="687" on="0"/>
        <pt x="485" y="655" on="0"/>
        <pt x="485" y="639" on="1"/>
        <pt x="485" y="621" on="0"/>
        <pt x="447" y="561" on="0"/>
        <pt x="432" y="561" on="1"/>
        <pt x="428" y="561" on="0"/>
        <pt x="393" y="579" on="0"/>
        <pt x="349" y="592" on="0"/>
        <pt x="318" y="592" on="1"/>
        <pt x="244" y="592" on="0"/>
        <pt x="178" y="474" on="0"/>
        <pt x="178" y="352" on="1"/>
        <pt x="178" y="228" on="0"/>
        <pt x="242" y="108" on="0"/>
        <pt x="308" y="108" on="1"/>
        <pt x="342" y="108" on="0"/>
        <pt x="366" y="115" on="1"/>
        <pt x="366" y="288" on="1"/>
        <pt x="303" y="288" on="1"/>
        <pt x="289" y="288" on="0"/>
        <pt x="277" y="309" on="0"/>
        <pt x="277" y="331" on="1"/>
        <pt x="277" y="357" on="1"/>
        <pt x="277" y="379" on="0"/>
        <pt x="289" y="400" on="0"/>
        <pt x="303" y="400" on="1"/>
        <pt x="462" y="400" on="1"/>
      </contour>
    </TTGlyph>
    <TTGlyph name="Gbreve" xMin="41" yMin="-7" xMax="496" yMax="892">
      <component glyphName="G" x="0" y="0" flags="0x0"/>
      <component glyphName="uni0306" x="296" y="177" flags="0x4"/>
    </TTGlyph>
    <TTGlyph name="Gcircumflex" xMin="41" yMin="-7" xMax="496" yMax="895">
      <component glyphName="G" x="0" y="0" flags="0x0"/>
      <component glyphName="uni0302" x="293" y="177" flags="0x4"/>
    </TTGlyph>
    <TTGlyph name="Gcommaaccent" xMin="41" yMin="-238" xMax="496" yMax="707">
      <component glyphName="G" x="0" y="0" flags="0x0"/>
      <component glyphName="uni0326" x="437" y="0" flags="0x0"/>
    </TTGlyph>
    <TTGlyph name="Gdotaccent" xMin="41" yMin="-7" xMax="496" yMax="879">
      <component glyphName="G" x="0" y="0" flags="0x0"/>
      <component glyphName="uni0307" x="295" y="177" flags="0x4"/>
    </TTGlyph>
    <TTGlyph name="H" xMin="64" yMin="-2" xMax="535" yMax="702">
      <contour>
        <pt x="64" y="-2" on="0"/>
        <pt x="64" y="27" on="1"/>
        <pt x="64" y="673" on="1"/>
        <pt x="64" y="702" on="0"/>
        <pt x="115" y="702" on="1"/>
        <pt x="148" y="702" on="1"/>
        <pt x="198" y="702" on="0"/>
        <pt x="198" y="673" on="1"/>
        <pt x="198" y="414" on="1"/>
        <pt x="401" y="414" on="1"/>
        <pt x="401" y="673" on="1"/>
        <pt x="401" y="702" on="0"/>
        <pt x="452" y="702" on="1"/>
        <pt x="484" y="702" on="1"/>
        <pt x="535" y="702" on="0"/>
        <pt x="535" y="673" on="1"/>
        <pt x="535" y="27" on="1"/>
        <pt x="535" y="-2" on="0"/>
        <pt x="484" y="-2" on="1"/>
        <pt x="452" y="-2" on="1"/>
        <pt x="401" y="-2" on="0"/>
        <pt x="401" y="27" on="1"/>
        <pt x="401" y="301" on="1"/>
        <pt x="198" y="301" on="1"/>
        <pt x="198" y="27" on="1"/>
        <pt x="198" y="-2" on="0"/>
        <pt x="148" y="-2" on="1"/>
        <pt x="115" y="-2" on="1"/>
      </contour>
    </TTGlyph>
    <TTGlyph name="Hbar" xMin="20" yMin="-2" xMax="568" yMax="702">
      <contour>
        <pt x="556" y="568" on="0"/>
        <pt x="568" y="551" on="0"/>
        <pt x="568" y="531" on="1"/>
        <pt x="568" y="518" on="1"/>
        <pt x="568" y="498" on="0"/>
        <pt x="556" y="481" on="0"/>
        <pt x="542" y="481" on="1"/>
        <pt x="535" y="481" on="1"/>
        <pt x="535" y="27" on="1"/>
        <pt x="535" y="-2" on="0"/>
        <pt x="484" y="-2" on="1"/>
        <pt x="452" y="-2" on="1"/>
        <pt x="401" y="-2" on="0"/>
        <pt x="401" y="27" on="1"/>
        <pt x="401" y="301" on="1"/>
        <pt x="198" y="301" on="1"/>
        <pt x="198" y="27" on="1"/>
        <pt x="198" y="-2" on="0"/>
        <pt x="148" y="-2" on="1"/>
        <pt x="115" y="-2" on="1"/>
        <pt x="64" y="-2" on="0"/>
        <pt x="64" y="27" on="1"/>
        <pt x="64" y="481" on="1"/>
        <pt x="46" y="481" on="1"/>
        <pt x="32" y="481" on="0"/>
        <pt x="20" y="499" on="0"/>
        <pt x="20" y="518" on="1"/>
        <pt x="20" y="531" on="1"/>
        <pt x="20" y="550" on="0"/>
        <pt x="32" y="568" on="0"/>
        <pt x="46" y="568" on="1"/>
        <pt x="64" y="568" on="1"/>
        <pt x="64" y="673" on="1"/>
        <pt x="64" y="702" on="0"/>
        <pt x="115" y="702" on="1"/>
        <pt x="148" y="702" on="1"/>
        <pt x="198" y="702" on="0"/>
        <pt x="198" y="673" on="1"/>
        <pt x="198" y="568" on="1"/>
        <pt x="401" y="568" on="1"/>
        <pt x="401" y="673" on="1"/>
        <pt x="401" y="702" on="0"/>
        <pt x="452" y="702" on="1"/>
        <pt x="484" y="702" on="1"/>
        <pt x="535" y="702" on="0"/>
        <pt x="535" y="673" on="1"/>
        <pt x="535" y="568" on="1"/>
        <pt x="542" y="568" on="1"/>
      </contour>
      <contour>
        <pt x="401" y="481" on="1"/>
        <pt x="198" y="481" on="1"/>
        <pt x="198" y="414" on="1"/>
        <pt x="401" y="414" on="1"/>
      </contour>
    </TTGlyph>
    <TTGlyph name="Hcircumflex" xMin="64" yMin="-2" xMax="535" yMax="895">
      <component glyphName="H" x="0" y="0" flags="0x0"/>
      <component glyphName="uni0302" x="297" y="177" flags="0x4"/>
    </TTGlyph>
    <TTGlyph name="I" xMin="64" yMin="-3" xMax="198" yMax="703">
      <contour>
        <pt x="64" y="-3" on="0"/>
        <pt x="64" y="27" on="1"/>
        <pt x="64" y="673" on="1"/>
        <pt x="64" y="703" on="0"/>
        <pt x="115" y="703" on="1"/>
        <pt x="148" y="703" on="1"/>
        <pt x="198" y="703" on="0"/>
        <pt x="198" y="673" on="1"/>
        <pt x="198" y="27" on="1"/>
        <pt x="198" y="-3" on="0"/>
        <pt x="148" y="-3" on="1"/>
        <pt x="115" y="-3" on="1"/>
      </contour>
    </TTGlyph>
    <TTGlyph name="IJ" xMin="64" yMin="-7" xMax="555" yMax="703">
      <component glyphName="I" x="0" y="0" flags="0x0"/>
      <component glyphName="J" x="262" y="0" flags="0x0"/>
    </TTGlyph>
    <TTGlyph name="Iacute" xMin="64" yMin="-3" xMax="263" yMax="910">
      <component glyphName="I" x="0" y="0" flags="0x0"/>
      <component glyphName="acutecomb" x="177" y="177" flags="0x4"/>
    </TTGlyph>
    <TTGlyph name="Iacute_J.loclNLD" xMin="64" yMin="-7" xMax="619" yMax="910">
      <component glyphName="I" x="0" y="0" flags="0x0"/>
      <component glyphName="acutecomb" x="177" y="177" flags="0x4"/>
      <component glyphName="J" x="262" y="0" flags="0x0"/>
      <component glyphName="acutecomb" x="533" y="177" flags="0x4"/>
    </TTGlyph>
    <TTGlyph name="Ibreve" xMin="5" yMin="-3" xMax="256" yMax="892">
      <component glyphName="I" x="0" y="0" flags="0x0"/>
      <component glyphName="uni0306" x="131" y="177" flags="0x4"/>
    </TTGlyph>
    <TTGlyph name="Icircumflex" xMin="12" yMin="-3" xMax="249" yMax="895">
      <component glyphName="I" x="0" y="0" flags="0x0"/>
      <component glyphName="uni0302" x="128" y="177" flags="0x4"/>
    </TTGlyph>
    <TTGlyph name="Idieresis" xMin="6" yMin="-3" xMax="258" yMax="879">
      <component glyphName="I" x="0" y="0" flags="0x0"/>
      <component glyphName="uni0308" x="132" y="177" flags="0x4"/>
    </TTGlyph>
    <TTGlyph name="Idotaccent" xMin="64" yMin="-3" xMax="198" yMax="879">
      <component glyphName="I" x="0" y="0" flags="0x0"/>
      <component glyphName="uni0307" x="130" y="177" flags="0x4"/>
    </TTGlyph>
    <TTGlyph name="Igrave" xMin="1" yMin="-3" xMax="198" yMax="910">
      <component glyphName="I" x="0" y="0" flags="0x0"/>
      <component glyphName="gravecomb" x="130" y="177" flags="0x4"/>
    </TTGlyph>
    <TTGlyph name="Imacron" xMin="10" yMin="-3" xMax="255" yMax="866">
      <component glyphName="I" x="0" y="0" flags="0x0"/>
      <component glyphName="uni0304" x="132" y="177" flags="0x4"/>
    </TTGlyph>
    <TTGlyph name="Iogonek" xMin="64" yMin="-173" xMax="279" yMax="703">
      <contour>
        <pt x="266" y="-101" on="0"/>
        <pt x="279" y="-114" on="0"/>
        <pt x="279" y="-129" on="1"/>
        <pt x="279" y="-149" on="0"/>
        <pt x="264" y="-159" on="1"/>
        <pt x="236" y="-173" on="0"/>
        <pt x="204" y="-173" on="1"/>
        <pt x="148" y="-173" on="0"/>
        <pt x="109" y="-114" on="0"/>
        <pt x="109" y="-81" on="1"/>
        <pt x="109" y="-42" on="0"/>
        <pt x="127" y="-3" on="1"/>
        <pt x="115" y="-3" on="1"/>
        <pt x="64" y="-3" on="0"/>
        <pt x="64" y="27" on="1"/>
        <pt x="64" y="673" on="1"/>
        <pt x="64" y="703" on="0"/>
        <pt x="115" y="703" on="1"/>
        <pt x="148" y="703" on="1"/>
        <pt x="198" y="703" on="0"/>
        <pt x="198" y="673" on="1"/>
        <pt x="198" y="27" on="1"/>
        <pt x="198" y="16" on="0"/>
        <pt x="192" y="10" on="1"/>
        <pt x="174" y="-26" on="0"/>
        <pt x="174" y="-62" on="1"/>
        <pt x="174" y="-106" on="0"/>
        <pt x="223" y="-106" on="1"/>
        <pt x="231" y="-106" on="0"/>
        <pt x="248" y="-101" on="0"/>
        <pt x="253" y="-101" on="1"/>
      </contour>
    </TTGlyph>
    <TTGlyph name="Itilde" xMin="-27" yMin="-3" xMax="280" yMax="873">
      <component glyphName="I" x="0" y="0" flags="0x0"/>
      <component glyphName="tildecomb" x="134" y="177" flags="0x4"/>
    </TTGlyph>
    <TTGlyph name="J" xMin="8" yMin="-7" xMax="293" yMax="703">
      <contour>
        <pt x="74" y="-7" on="0"/>
        <pt x="8" y="16" on="0"/>
        <pt x="8" y="34" on="1"/>
        <pt x="8" y="57" on="0"/>
        <pt x="30" y="113" on="0"/>
        <pt x="44" y="114" on="1"/>
        <pt x="48" y="114" on="0"/>
        <pt x="78" y="107" on="0"/>
        <pt x="94" y="107" on="1"/>
        <pt x="129" y="107" on="0"/>
        <pt x="159" y="158" on="0"/>
        <pt x="159" y="216" on="1"/>
        <pt x="159" y="673" on="1"/>
        <pt x="159" y="703" on="0"/>
        <pt x="210" y="703" on="1"/>
        <pt x="242" y="703" on="1"/>
        <pt x="293" y="703" on="0"/>
        <pt x="293" y="673" on="1"/>
        <pt x="293" y="203" on="1"/>
        <pt x="293" y="-7" on="0"/>
        <pt x="114" y="-7" on="1"/>
      </contour>
    </TTGlyph>
    <TTGlyph name="Jcircumflex" xMin="8" yMin="-7" xMax="343" yMax="895">
      <component glyphName="J" x="0" y="0" flags="0x0"/>
      <component glyphName="uni0302" x="222" y="177" flags="0x4"/>
    </TTGlyph>
    <TTGlyph name="K" xMin="64" yMin="-2" xMax="515" yMax="702">
      <contour>
        <pt x="515" y="21" on="0"/>
        <pt x="515" y="13" on="1"/>
        <pt x="515" y="-2" on="0"/>
        <pt x="468" y="-2" on="1"/>
        <pt x="417" y="-2" on="1"/>
        <pt x="396" y="-2" on="0"/>
        <pt x="371" y="5" on="0"/>
        <pt x="365" y="15" on="1"/>
        <pt x="201" y="333" on="1"/>
        <pt x="198" y="332" on="1"/>
        <pt x="198" y="27" on="1"/>
        <pt x="198" y="-2" on="0"/>
        <pt x="145" y="-2" on="1"/>
        <pt x="115" y="-2" on="1"/>
        <pt x="64" y="-2" on="0"/>
        <pt x="64" y="27" on="1"/>
        <pt x="64" y="673" on="1"/>
        <pt x="64" y="702" on="0"/>
        <pt x="115" y="702" on="1"/>
        <pt x="145" y="702" on="1"/>
        <pt x="198" y="702" on="0"/>
        <pt x="198" y="673" on="1"/>
        <pt x="198" y="371" on="1"/>
        <pt x="201" y="370" on="1"/>
        <pt x="363" y="685" on="1"/>
        <pt x="368" y="695" on="0"/>
        <pt x="392" y="702" on="0"/>
        <pt x="412" y="702" on="1"/>
        <pt x="454" y="702" on="1"/>
        <pt x="502" y="702" on="0"/>
        <pt x="502" y="688" on="1"/>
        <pt x="502" y="680" on="0"/>
        <pt x="495" y="667" on="1"/>
        <pt x="320" y="357" on="1"/>
        <pt x="509" y="32" on="1"/>
      </contour>
    </TTGlyph>
    <TTGlyph name="Kcommaaccent" xMin="64" yMin="-238" xMax="515" yMax="702">
      <component glyphName="K" x="0" y="0" flags="0x0"/>
      <component glyphName="uni0326" x="392" y="0" flags="0x0"/>
    </TTGlyph>
    <TTGlyph name="L" xMin="64" yMin="0" xMax="393" yMax="702">
      <contour>
        <pt x="80" y="0" on="0"/>
        <pt x="64" y="17" on="0"/>
        <pt x="64" y="37" on="1"/>
        <pt x="64" y="673" on="1"/>
        <pt x="64" y="702" on="0"/>
        <pt x="115" y="702" on="1"/>
        <pt x="146" y="702" on="1"/>
        <pt x="173" y="702" on="0"/>
        <pt x="197" y="688" on="0"/>
        <pt x="197" y="673" on="1"/>
        <pt x="197" y="112" on="1"/>
        <pt x="367" y="112" on="1"/>
        <pt x="381" y="112" on="0"/>
        <pt x="393" y="91" on="0"/>
        <pt x="393" y="69" on="1"/>
        <pt x="393" y="43" on="1"/>
        <pt x="393" y="21" on="0"/>
        <pt x="381" y="0" on="0"/>
        <pt x="367" y="0" on="1"/>
        <pt x="98" y="0" on="1"/>
      </contour>
    </TTGlyph>
    <TTGlyph name="Lacute" xMin="64" yMin="0" xMax="393" yMax="911">
      <component glyphName="L" x="0" y="0" flags="0x0"/>
      <component glyphName="acutecomb" x="179" y="178" flags="0x4"/>
    </TTGlyph>
    <TTGlyph name="Lcaron" xMin="64" yMin="0" xMax="393" yMax="702">
      <component glyphName="L" x="0" y="0" flags="0x0"/>
      <component glyphName="caron.alt" x="220" y="0" flags="0x0"/>
    </TTGlyph>
    <TTGlyph name="Lcommaaccent" xMin="64" yMin="-238" xMax="393" yMax="702">
      <component glyphName="L" x="0" y="0" flags="0x0"/>
      <component glyphName="uni0326" x="353" y="0" flags="0x0"/>
    </TTGlyph>
    <TTGlyph name="Ldot" xMin="64" yMin="0" xMax="393" yMax="702">
      <component glyphName="L" x="0" y="0" flags="0x0"/>
      <component glyphName="periodcentered" x="193" y="0" flags="0x0"/>
    </TTGlyph>
    <TTGlyph name="Lslash" xMin="64" yMin="0" xMax="393" yMax="702">
      <contour>
        <pt x="381" y="112" on="0"/>
        <pt x="393" y="91" on="0"/>
        <pt x="393" y="69" on="1"/>
        <pt x="393" y="43" on="1"/>
        <pt x="393" y="21" on="0"/>
        <pt x="381" y="0" on="0"/>
        <pt x="367" y="0" on="1"/>
        <pt x="98" y="0" on="1"/>
        <pt x="80" y="0" on="0"/>
        <pt x="64" y="17" on="0"/>
        <pt x="64" y="37" on="1"/>
        <pt x="64" y="673" on="1"/>
        <pt x="64" y="702" on="0"/>
        <pt x="115" y="702" on="1"/>
        <pt x="146" y="702" on="1"/>
        <pt x="173" y="702" on="0"/>
        <pt x="197" y="688" on="0"/>
        <pt x="197" y="673" on="1"/>
        <pt x="197" y="445" on="1"/>
        <pt x="199" y="443" on="0"/>
        <pt x="199" y="438" on="1"/>
        <pt x="199" y="427" on="1"/>
        <pt x="199" y="422" on="0"/>
        <pt x="197" y="416" on="1"/>
        <pt x="197" y="112" on="1"/>
        <pt x="367" y="112" on="1"/>
      </contour>
    </TTGlyph>
    <TTGlyph name="M" xMin="59" yMin="-2" xMax="629" yMax="702">
      <contour>
        <pt x="320" y="229" on="0"/>
        <pt x="304" y="238" on="0"/>
        <pt x="299" y="249" on="1"/>
        <pt x="210" y="419" on="1"/>
        <pt x="204" y="430" on="0"/>
        <pt x="190" y="464" on="0"/>
        <pt x="186" y="473" on="1"/>
        <pt x="182" y="472" on="1"/>
        <pt x="188" y="432" on="0"/>
        <pt x="188" y="411" on="1"/>
        <pt x="188" y="27" on="1"/>
        <pt x="188" y="12" on="0"/>
        <pt x="164" y="-2" on="0"/>
        <pt x="137" y="-2" on="1"/>
        <pt x="110" y="-2" on="1"/>
        <pt x="83" y="-2" on="0"/>
        <pt x="59" y="12" on="0"/>
        <pt x="59" y="27" on="1"/>
        <pt x="59" y="673" on="1"/>
        <pt x="59" y="688" on="0"/>
        <pt x="83" y="702" on="0"/>
        <pt x="110" y="702" on="1"/>
        <pt x="138" y="702" on="1"/>
        <pt x="159" y="702" on="0"/>
        <pt x="183" y="690" on="0"/>
        <pt x="190" y="677" on="1"/>
        <pt x="327" y="415" on="1"/>
        <pt x="334" y="401" on="0"/>
        <pt x="345" y="367" on="1"/>
        <pt x="350" y="392" on="0"/>
        <pt x="362" y="415" on="1"/>
        <pt x="498" y="677" on="1"/>
        <pt x="505" y="690" on="0"/>
        <pt x="530" y="702" on="0"/>
        <pt x="551" y="702" on="1"/>
        <pt x="578" y="702" on="1"/>
        <pt x="605" y="702" on="0"/>
        <pt x="629" y="688" on="0"/>
        <pt x="629" y="673" on="1"/>
        <pt x="629" y="27" on="1"/>
        <pt x="629" y="12" on="0"/>
        <pt x="605" y="-2" on="0"/>
        <pt x="578" y="-2" on="1"/>
        <pt x="552" y="-2" on="1"/>
        <pt x="525" y="-2" on="0"/>
        <pt x="501" y="12" on="0"/>
        <pt x="501" y="27" on="1"/>
        <pt x="501" y="411" on="1"/>
        <pt x="501" y="432" on="0"/>
        <pt x="507" y="472" on="1"/>
        <pt x="503" y="473" on="1"/>
        <pt x="490" y="439" on="0"/>
        <pt x="478" y="419" on="1"/>
        <pt x="390" y="249" on="1"/>
        <pt x="384" y="238" on="0"/>
        <pt x="369" y="229" on="0"/>
        <pt x="356" y="229" on="1"/>
        <pt x="333" y="229" on="1"/>
      </contour>
    </TTGlyph>
    <TTGlyph name="N" xMin="59" yMin="-2" xMax="531" yMax="702">
      <contour>
        <pt x="59" y="-2" on="0"/>
        <pt x="59" y="27" on="1"/>
        <pt x="59" y="673" on="1"/>
        <pt x="59" y="702" on="0"/>
        <pt x="110" y="702" on="1"/>
        <pt x="136" y="702" on="1"/>
        <pt x="154" y="702" on="0"/>
        <pt x="176" y="692" on="0"/>
        <pt x="183" y="677" on="1"/>
        <pt x="381" y="309" on="1"/>
        <pt x="393" y="287" on="0"/>
        <pt x="412" y="236" on="1"/>
        <pt x="417" y="238" on="1"/>
        <pt x="409" y="278" on="0"/>
        <pt x="409" y="313" on="1"/>
        <pt x="409" y="673" on="1"/>
        <pt x="409" y="702" on="0"/>
        <pt x="460" y="702" on="1"/>
        <pt x="480" y="702" on="1"/>
        <pt x="531" y="702" on="0"/>
        <pt x="531" y="673" on="1"/>
        <pt x="531" y="27" on="1"/>
        <pt x="531" y="-2" on="0"/>
        <pt x="480" y="-2" on="1"/>
        <pt x="460" y="-2" on="1"/>
        <pt x="442" y="-2" on="0"/>
        <pt x="418" y="8" on="0"/>
        <pt x="412" y="22" on="1"/>
        <pt x="205" y="404" on="1"/>
        <pt x="195" y="422" on="0"/>
        <pt x="178" y="467" on="1"/>
        <pt x="173" y="465" on="1"/>
        <pt x="181" y="428" on="0"/>
        <pt x="181" y="397" on="1"/>
        <pt x="181" y="27" on="1"/>
        <pt x="181" y="-2" on="0"/>
        <pt x="130" y="-2" on="1"/>
        <pt x="110" y="-2" on="1"/>
      </contour>
    </TTGlyph>
    <TTGlyph name="Nacute" xMin="59" yMin="-2" xMax="531" yMax="910">
      <component glyphName="N" x="0" y="0" flags="0x0"/>
      <component glyphName="acutecomb" x="341" y="177" flags="0x4"/>
    </TTGlyph>
    <TTGlyph name="Nacute.loclPLK" xMin="59" yMin="-2" xMax="531" yMax="910">
      <component glyphName="N" x="0" y="0" flags="0x0"/>
      <component glyphName="acute.loclPLK" x="207" y="177" flags="0x4"/>
    </TTGlyph>
    <TTGlyph name="Ncaron" xMin="59" yMin="-2" xMax="531" yMax="897">
      <component glyphName="N" x="0" y="0" flags="0x0"/>
      <component glyphName="uni030C" x="288" y="177" flags="0x4"/>
    </TTGlyph>
    <TTGlyph name="Ncommaaccent" xMin="59" yMin="-238" xMax="531" yMax="702">
      <component glyphName="N" x="0" y="0" flags="0x0"/>
      <component glyphName="uni0326" x="426" y="0" flags="0x0"/>
    </TTGlyph>
    <TTGlyph name="Ntilde" xMin="59" yMin="-2" xMax="531" yMax="873">
      <component glyphName="N" x="0" y="0" flags="0x0"/>
      <component glyphName="tildecomb" x="298" y="177" flags="0x4"/>
    </TTGlyph>
    <TTGlyph name="O" xMin="42" yMin="-7" xMax="557" yMax="707">
      <contour>
        <pt x="42" y="-7" on="0"/>
        <pt x="42" y="351" on="1"/>
        <pt x="42" y="707" on="0"/>
        <pt x="300" y="707" on="1"/>
        <pt x="557" y="707" on="0"/>
        <pt x="557" y="351" on="1"/>
        <pt x="557" y="-7" on="0"/>
        <pt x="300" y="-7" on="1"/>
      </contour>
      <contour>
        <pt x="362" y="105" on="0"/>
        <pt x="422" y="218" on="0"/>
        <pt x="422" y="351" on="1"/>
        <pt x="422" y="484" on="0"/>
        <pt x="363" y="595" on="0"/>
        <pt x="301" y="595" on="1"/>
        <pt x="238" y="595" on="0"/>
        <pt x="178" y="484" on="0"/>
        <pt x="178" y="351" on="1"/>
        <pt x="178" y="218" on="0"/>
        <pt x="238" y="105" on="0"/>
        <pt x="301" y="105" on="1"/>
      </contour>
    </TTGlyph>
    <TTGlyph name="OE" xMin="41" yMin="-7" xMax="783" yMax="707">
      <contour>
        <pt x="783" y="112" on="0"/>
        <pt x="783" y="69" on="1"/>
        <pt x="783" y="43" on="1"/>
        <pt x="783" y="0" on="0"/>
        <pt x="759" y="0" on="1"/>
        <pt x="455" y="0" on="1"/>
        <pt x="437" y="0" on="0"/>
        <pt x="421" y="17" on="0"/>
        <pt x="421" y="37" on="1"/>
        <pt x="421" y="43" on="1"/>
        <pt x="391" y="17" on="0"/>
        <pt x="325" y="-7" on="0"/>
        <pt x="285" y="-7" on="1"/>
        <pt x="168" y="-7" on="0"/>
        <pt x="41" y="169" on="0"/>
        <pt x="41" y="351" on="1"/>
        <pt x="41" y="533" on="0"/>
        <pt x="168" y="707" on="0"/>
        <pt x="286" y="707" on="1"/>
        <pt x="327" y="707" on="0"/>
        <pt x="392" y="684" on="0"/>
        <pt x="421" y="658" on="1"/>
        <pt x="421" y="665" on="1"/>
        <pt x="421" y="683" on="0"/>
        <pt x="437" y="700" on="0"/>
        <pt x="455" y="700" on="1"/>
        <pt x="758" y="700" on="1"/>
        <pt x="771" y="700" on="0"/>
        <pt x="782" y="680" on="0"/>
        <pt x="782" y="657" on="1"/>
        <pt x="782" y="631" on="1"/>
        <pt x="782" y="608" on="0"/>
        <pt x="771" y="588" on="0"/>
        <pt x="758" y="588" on="1"/>
        <pt x="554" y="588" on="1"/>
        <pt x="554" y="414" on="1"/>
        <pt x="736" y="414" on="1"/>
        <pt x="749" y="414" on="0"/>
        <pt x="761" y="394" on="0"/>
        <pt x="761" y="371" on="1"/>
        <pt x="761" y="345" on="1"/>
        <pt x="761" y="322" on="0"/>
        <pt x="749" y="302" on="0"/>
        <pt x="736" y="302" on="1"/>
        <pt x="554" y="302" on="1"/>
        <pt x="554" y="112" on="1"/>
        <pt x="759" y="112" on="1"/>
      </contour>
      <contour>
        <pt x="361" y="105" on="0"/>
        <pt x="420" y="218" on="0"/>
        <pt x="420" y="351" on="1"/>
        <pt x="420" y="485" on="0"/>
        <pt x="361" y="595" on="0"/>
        <pt x="299" y="595" on="1"/>
        <pt x="237" y="595" on="0"/>
        <pt x="178" y="485" on="0"/>
        <pt x="178" y="351" on="1"/>
        <pt x="178" y="218" on="0"/>
        <pt x="237" y="105" on="0"/>
        <pt x="299" y="105" on="1"/>
      </contour>
    </TTGlyph>
    <TTGlyph name="Oacute" xMin="42" yMin="-7" xMax="557" yMax="910">
      <component glyphName="O" x="0" y="0" flags="0x0"/>
      <component glyphName="acutecomb" x="346" y="177" flags="0x4"/>
    </TTGlyph>
    <TTGlyph name="Oacute.loclPLK" xMin="42" yMin="-7" xMax="557" yMax="910">
      <component glyphName="O" x="0" y="0" flags="0x0"/>
      <component glyphName="acute.loclPLK" x="212" y="177" flags="0x4"/>
    </TTGlyph>
    <TTGlyph name="Obreve" xMin="42" yMin="-7" xMax="557" yMax="892">
      <component glyphName="O" x="0" y="0" flags="0x0"/>
      <component glyphName="uni0306" x="300" y="177" flags="0x4"/>
    </TTGlyph>
    <TTGlyph name="Ocircumflex" xMin="42" yMin="-7" xMax="557" yMax="895">
      <component glyphName="O" x="0" y="0" flags="0x0"/>
      <component glyphName="uni0302" x="297" y="177" flags="0x4"/>
    </TTGlyph>
    <TTGlyph name="Odieresis" xMin="42" yMin="-7" xMax="557" yMax="879">
      <component glyphName="O" x="0" y="0" flags="0x0"/>
      <component glyphName="uni0308" x="301" y="177" flags="0x4"/>
    </TTGlyph>
    <TTGlyph name="Ograve" xMin="42" yMin="-7" xMax="557" yMax="910">
      <component glyphName="O" x="0" y="0" flags="0x0"/>
      <component glyphName="gravecomb" x="299" y="177" flags="0x4"/>
    </TTGlyph>
    <TTGlyph name="Ohorn" xMin="42" yMin="-7" xMax="591" yMax="786">
      <contour>
        <pt x="42" y="-7" on="0"/>
        <pt x="42" y="351" on="1"/>
        <pt x="42" y="707" on="0"/>
        <pt x="300" y="707" on="1"/>
        <pt x="386" y="707" on="0"/>
        <pt x="445" y="664" on="1"/>
        <pt x="461" y="653" on="0"/>
        <pt x="481" y="653" on="1"/>
        <pt x="518" y="653" on="0"/>
        <pt x="518" y="685" on="1"/>
        <pt x="518" y="704" on="0"/>
        <pt x="501" y="725" on="1"/>
        <pt x="500" y="726" on="0"/>
        <pt x="491" y="739" on="0"/>
        <pt x="491" y="744" on="1"/>
        <pt x="491" y="755" on="0"/>
        <pt x="501" y="761" on="1"/>
        <pt x="531" y="781" on="1"/>
        <pt x="536" y="786" on="0"/>
        <pt x="545" y="786" on="1"/>
        <pt x="563" y="786" on="0"/>
        <pt x="591" y="731" on="0"/>
        <pt x="591" y="706" on="1"/>
        <pt x="591" y="666" on="0"/>
        <pt x="543" y="618" on="0"/>
        <pt x="494" y="614" on="1"/>
        <pt x="557" y="525" on="0"/>
        <pt x="557" y="351" on="1"/>
        <pt x="557" y="-7" on="0"/>
        <pt x="300" y="-7" on="1"/>
      </contour>
      <contour>
        <pt x="362" y="105" on="0"/>
        <pt x="422" y="218" on="0"/>
        <pt x="422" y="351" on="1"/>
        <pt x="422" y="484" on="0"/>
        <pt x="363" y="595" on="0"/>
        <pt x="301" y="595" on="1"/>
        <pt x="238" y="595" on="0"/>
        <pt x="178" y="484" on="0"/>
        <pt x="178" y="351" on="1"/>
        <pt x="178" y="218" on="0"/>
        <pt x="238" y="105" on="0"/>
        <pt x="301" y="105" on="1"/>
      </contour>
    </TTGlyph>
    <TTGlyph name="Ohungarumlaut" xMin="42" yMin="-7" xMax="557" yMax="910">
      <component glyphName="O" x="0" y="0" flags="0x0"/>
      <component glyphName="uni030B" x="331" y="177" flags="0x4"/>
    </TTGlyph>
    <TTGlyph name="Omacron" xMin="42" yMin="-7" xMax="557" yMax="866">
      <component glyphName="O" x="0" y="0" flags="0x0"/>
      <component glyphName="uni0304" x="301" y="177" flags="0x4"/>
    </TTGlyph>
    <TTGlyph name="Oslash" xMin="40" yMin="-21" xMax="557" yMax="725">
      <contour>
        <pt x="557" y="522" on="0"/>
        <pt x="557" y="351" on="1"/>
        <pt x="557" y="-7" on="0"/>
        <pt x="300" y="-7" on="1"/>
        <pt x="199" y="-7" on="0"/>
        <pt x="137" y="48" on="1"/>
        <pt x="102" y="-7" on="1"/>
        <pt x="93" y="-21" on="0"/>
        <pt x="81" y="-21" on="1"/>
        <pt x="70" y="-21" on="0"/>
        <pt x="40" y="1" on="0"/>
        <pt x="40" y="12" on="1"/>
        <pt x="40" y="20" on="0"/>
        <pt x="46" y="29" on="1"/>
        <pt x="93" y="103" on="1"/>
        <pt x="42" y="193" on="0"/>
        <pt x="42" y="351" on="1"/>
        <pt x="42" y="707" on="0"/>
        <pt x="300" y="707" on="1"/>
        <pt x="393" y="707" on="0"/>
        <pt x="452" y="661" on="1"/>
        <pt x="484" y="711" on="1"/>
        <pt x="494" y="725" on="0"/>
        <pt x="505" y="725" on="1"/>
        <pt x="516" y="725" on="0"/>
        <pt x="546" y="703" on="0"/>
        <pt x="546" y="692" on="1"/>
        <pt x="546" y="683" on="0"/>
        <pt x="540" y="675" on="1"/>
        <pt x="498" y="610" on="1"/>
      </contour>
      <contour>
        <pt x="178" y="289" on="0"/>
        <pt x="184" y="245" on="1"/>
        <pt x="383" y="554" on="1"/>
        <pt x="355" y="595" on="0"/>
        <pt x="301" y="595" on="1"/>
        <pt x="238" y="595" on="0"/>
        <pt x="178" y="484" on="0"/>
        <pt x="178" y="351" on="1"/>
      </contour>
      <contour>
        <pt x="362" y="105" on="0"/>
        <pt x="422" y="218" on="0"/>
        <pt x="422" y="351" on="1"/>
        <pt x="422" y="429" on="0"/>
        <pt x="412" y="476" on="1"/>
        <pt x="209" y="160" on="1"/>
        <pt x="224" y="131" on="0"/>
        <pt x="270" y="105" on="0"/>
        <pt x="301" y="105" on="1"/>
      </contour>
    </TTGlyph>
    <TTGlyph name="Oslashacute" xMin="40" yMin="-21" xMax="557" yMax="910">
      <component glyphName="Oslash" x="0" y="0" flags="0x0"/>
      <component glyphName="acutecomb" x="346" y="177" flags="0x4"/>
    </TTGlyph>
    <TTGlyph name="Otilde" xMin="42" yMin="-7" xMax="557" yMax="873">
      <component glyphName="O" x="0" y="0" flags="0x0"/>
      <component glyphName="tildecomb" x="303" y="177" flags="0x4"/>
    </TTGlyph>
    <TTGlyph name="P" xMin="61" yMin="-2" xMax="461" yMax="700">
      <contour>
        <pt x="61" y="-2" on="0"/>
        <pt x="61" y="27" on="1"/>
        <pt x="61" y="663" on="1"/>
        <pt x="61" y="682" on="0"/>
        <pt x="78" y="700" on="0"/>
        <pt x="97" y="700" on="1"/>
        <pt x="267" y="700" on="1"/>
        <pt x="343" y="700" on="0"/>
        <pt x="461" y="611" on="0"/>
        <pt x="461" y="489" on="1"/>
        <pt x="461" y="403" on="0"/>
        <pt x="393" y="307" on="0"/>
        <pt x="309" y="274" on="0"/>
        <pt x="276" y="274" on="1"/>
        <pt x="193" y="274" on="1"/>
        <pt x="193" y="27" on="1"/>
        <pt x="193" y="-2" on="0"/>
        <pt x="141" y="-2" on="1"/>
        <pt x="114" y="-2" on="1"/>
      </contour>
      <contour>
        <pt x="263" y="385" on="1"/>
        <pt x="290" y="385" on="0"/>
        <pt x="331" y="431" on="0"/>
        <pt x="331" y="489" on="1"/>
        <pt x="331" y="544" on="0"/>
        <pt x="290" y="588" on="0"/>
        <pt x="261" y="588" on="1"/>
        <pt x="192" y="588" on="1"/>
        <pt x="192" y="385" on="1"/>
      </contour>
    </TTGlyph>
    <TTGlyph name="Q" xMin="42" yMin="-162" xMax="586" yMax="707">
      <contour>
        <pt x="520" y="-162" on="0"/>
        <pt x="448" y="-123" on="1"/>
        <pt x="324" y="-54" on="0"/>
        <pt x="186" y="15" on="1"/>
        <pt x="114" y="51" on="0"/>
        <pt x="42" y="215" on="0"/>
        <pt x="42" y="350" on="1"/>
        <pt x="42" y="707" on="0"/>
        <pt x="300" y="707" on="1"/>
        <pt x="557" y="707" on="0"/>
        <pt x="557" y="350" on="1"/>
        <pt x="557" y="85" on="0"/>
        <pt x="416" y="19" on="1"/>
        <pt x="416" y="15" on="1"/>
        <pt x="574" y="-61" on="1"/>
        <pt x="586" y="-66" on="0"/>
        <pt x="586" y="-78" on="1"/>
        <pt x="585" y="-87" on="0"/>
        <pt x="566" y="-129" on="0"/>
        <pt x="539" y="-162" on="0"/>
        <pt x="526" y="-162" on="1"/>
      </contour>
      <contour>
        <pt x="362" y="103" on="0"/>
        <pt x="422" y="216" on="0"/>
        <pt x="422" y="350" on="1"/>
        <pt x="422" y="483" on="0"/>
        <pt x="363" y="595" on="0"/>
        <pt x="301" y="595" on="1"/>
        <pt x="238" y="595" on="0"/>
        <pt x="178" y="483" on="0"/>
        <pt x="178" y="350" on="1"/>
        <pt x="178" y="216" on="0"/>
        <pt x="238" y="103" on="0"/>
        <pt x="301" y="103" on="1"/>
      </contour>
    </TTGlyph>
    <TTGlyph name="R" xMin="62" yMin="-2" xMax="496" yMax="700">
      <contour>
        <pt x="62" y="-2" on="0"/>
        <pt x="62" y="27" on="1"/>
        <pt x="62" y="663" on="1"/>
        <pt x="62" y="682" on="0"/>
        <pt x="79" y="700" on="0"/>
        <pt x="97" y="700" on="1"/>
        <pt x="258" y="700" on="1"/>
        <pt x="459" y="700" on="0"/>
        <pt x="459" y="510" on="1"/>
        <pt x="459" y="391" on="0"/>
        <pt x="365" y="341" on="1"/>
        <pt x="365" y="337" on="1"/>
        <pt x="405" y="315" on="0"/>
        <pt x="433" y="228" on="1"/>
        <pt x="493" y="35" on="1"/>
        <pt x="494" y="32" on="0"/>
        <pt x="496" y="25" on="0"/>
        <pt x="496" y="22" on="1"/>
        <pt x="496" y="-1" on="0"/>
        <pt x="442" y="-1" on="1"/>
        <pt x="413" y="-1" on="1"/>
        <pt x="366" y="-1" on="0"/>
        <pt x="361" y="22" on="1"/>
        <pt x="306" y="214" on="1"/>
        <pt x="294" y="248" on="0"/>
        <pt x="263" y="274" on="0"/>
        <pt x="231" y="274" on="1"/>
        <pt x="194" y="274" on="1"/>
        <pt x="194" y="27" on="1"/>
        <pt x="194" y="-2" on="0"/>
        <pt x="141" y="-2" on="1"/>
        <pt x="114" y="-2" on="1"/>
      </contour>
      <contour>
        <pt x="265" y="396" on="1"/>
        <pt x="292" y="396" on="0"/>
        <pt x="330" y="450" on="0"/>
        <pt x="330" y="495" on="1"/>
        <pt x="330" y="543" on="0"/>
        <pt x="293" y="588" on="0"/>
        <pt x="261" y="588" on="1"/>
        <pt x="193" y="588" on="1"/>
        <pt x="193" y="396" on="1"/>
      </contour>
    </TTGlyph>
    <TTGlyph name="Racute" xMin="62" yMin="-2" xMax="496" yMax="910">
      <component glyphName="R" x="0" y="0" flags="0x0"/>
      <component glyphName="acutecomb" x="298" y="177" flags="0x4"/>
    </TTGlyph>
    <TTGlyph name="Rcaron" xMin="62" yMin="-2" xMax="496" yMax="897">
      <component glyphName="R" x="0" y="0" flags="0x0"/>
      <component glyphName="uni030C" x="245" y="177" flags="0x4"/>
    </TTGlyph>
    <TTGlyph name="Rcommaaccent" xMin="62" yMin="-238" xMax="496" yMax="700">
      <component glyphName="R" x="0" y="0" flags="0x0"/>
      <component glyphName="uni0326" x="390" y="0" flags="0x0"/>
    </TTGlyph>
    <TTGlyph name="S" xMin="28" yMin="-7" xMax="418" yMax="709">
      <contour>
        <pt x="156" y="-7" on="0"/>
        <pt x="65" y="20" on="0"/>
        <pt x="40" y="44" on="1"/>
        <pt x="34" y="53" on="0"/>
        <pt x="28" y="66" on="0"/>
        <pt x="28" y="76" on="1"/>
        <pt x="28" y="100" on="0"/>
        <pt x="52" y="151" on="0"/>
        <pt x="67" y="151" on="1"/>
        <pt x="74" y="151" on="0"/>
        <pt x="100" y="136" on="0"/>
        <pt x="104" y="134" on="1"/>
        <pt x="149" y="106" on="0"/>
        <pt x="197" y="106" on="1"/>
        <pt x="235" y="106" on="0"/>
        <pt x="288" y="146" on="0"/>
        <pt x="288" y="188" on="1"/>
        <pt x="288" y="230" on="0"/>
        <pt x="241" y="276" on="0"/>
        <pt x="192" y="302" on="1"/>
        <pt x="141" y="329" on="0"/>
        <pt x="76" y="384" on="0"/>
        <pt x="39" y="461" on="0"/>
        <pt x="39" y="516" on="1"/>
        <pt x="39" y="606" on="0"/>
        <pt x="155" y="709" on="0"/>
        <pt x="248" y="709" on="1"/>
        <pt x="282" y="709" on="0"/>
        <pt x="354" y="690" on="0"/>
        <pt x="376" y="675" on="1"/>
        <pt x="390" y="665" on="0"/>
        <pt x="390" y="648" on="1"/>
        <pt x="390" y="626" on="0"/>
        <pt x="368" y="572" on="0"/>
        <pt x="354" y="572" on="1"/>
        <pt x="348" y="572" on="0"/>
        <pt x="331" y="579" on="1"/>
        <pt x="293" y="595" on="0"/>
        <pt x="256" y="595" on="1"/>
        <pt x="214" y="595" on="0"/>
        <pt x="171" y="553" on="0"/>
        <pt x="171" y="522" on="1"/>
        <pt x="171" y="492" on="0"/>
        <pt x="198" y="451" on="0"/>
        <pt x="233" y="429" on="0"/>
        <pt x="279" y="403" on="1"/>
        <pt x="350" y="364" on="0"/>
        <pt x="418" y="275" on="0"/>
        <pt x="418" y="199" on="1"/>
        <pt x="418" y="141" on="0"/>
        <pt x="369" y="47" on="0"/>
        <pt x="272" y="-7" on="0"/>
        <pt x="204" y="-7" on="1"/>
      </contour>
    </TTGlyph>
    <TTGlyph name="Sacute" xMin="28" yMin="-7" xMax="418" yMax="910">
      <component glyphName="S" x="0" y="0" flags="0x0"/>
      <component glyphName="acutecomb" x="272" y="177" flags="0x4"/>
    </TTGlyph>
    <TTGlyph name="Sacute.loclPLK" xMin="28" yMin="-7" xMax="418" yMax="910">
      <component glyphName="S" x="0" y="0" flags="0x0"/>
      <component glyphName="acute.loclPLK" x="138" y="177" flags="0x4"/>
    </TTGlyph>
    <TTGlyph name="Scaron" xMin="28" yMin="-7" xMax="418" yMax="897">
      <component glyphName="S" x="0" y="0" flags="0x0"/>
      <component glyphName="uni030C" x="219" y="177" flags="0x4"/>
    </TTGlyph>
    <TTGlyph name="Scedilla" xMin="28" yMin="-211" xMax="418" yMax="709">
      <contour>
        <pt x="418" y="120" on="0"/>
        <pt x="330" y="9" on="0"/>
        <pt x="250" y="-3" on="1"/>
        <pt x="237" y="-52" on="1"/>
        <pt x="266" y="-55" on="0"/>
        <pt x="304" y="-91" on="0"/>
        <pt x="304" y="-124" on="1"/>
        <pt x="304" y="-168" on="0"/>
        <pt x="248" y="-211" on="0"/>
        <pt x="202" y="-211" on="1"/>
        <pt x="163" y="-211" on="0"/>
        <pt x="101" y="-182" on="0"/>
        <pt x="101" y="-162" on="1"/>
        <pt x="101" y="-147" on="0"/>
        <pt x="119" y="-126" on="0"/>
        <pt x="128" y="-126" on="1"/>
        <pt x="134" y="-126" on="0"/>
        <pt x="152" y="-134" on="1"/>
        <pt x="178" y="-147" on="0"/>
        <pt x="194" y="-147" on="1"/>
        <pt x="205" y="-147" on="0"/>
        <pt x="220" y="-137" on="0"/>
        <pt x="220" y="-126" on="1"/>
        <pt x="220" y="-115" on="0"/>
        <pt x="207" y="-106" on="0"/>
        <pt x="193" y="-99" on="1"/>
        <pt x="170" y="-91" on="0"/>
        <pt x="170" y="-79" on="1"/>
        <pt x="170" y="-73" on="0"/>
        <pt x="181" y="-38" on="0"/>
        <pt x="192" y="-7" on="1"/>
        <pt x="147" y="-5" on="0"/>
        <pt x="64" y="21" on="0"/>
        <pt x="40" y="44" on="1"/>
        <pt x="34" y="53" on="0"/>
        <pt x="28" y="66" on="0"/>
        <pt x="28" y="76" on="1"/>
        <pt x="28" y="100" on="0"/>
        <pt x="52" y="151" on="0"/>
        <pt x="67" y="151" on="1"/>
        <pt x="74" y="151" on="0"/>
        <pt x="100" y="136" on="0"/>
        <pt x="104" y="134" on="1"/>
        <pt x="149" y="106" on="0"/>
        <pt x="197" y="106" on="1"/>
        <pt x="235" y="106" on="0"/>
        <pt x="288" y="146" on="0"/>
        <pt x="288" y="188" on="1"/>
        <pt x="288" y="230" on="0"/>
        <pt x="241" y="276" on="0"/>
        <pt x="192" y="302" on="1"/>
        <pt x="141" y="329" on="0"/>
        <pt x="76" y="384" on="0"/>
        <pt x="39" y="461" on="0"/>
        <pt x="39" y="516" on="1"/>
        <pt x="39" y="606" on="0"/>
        <pt x="155" y="709" on="0"/>
        <pt x="248" y="709" on="1"/>
        <pt x="282" y="709" on="0"/>
        <pt x="354" y="690" on="0"/>
        <pt x="376" y="675" on="1"/>
        <pt x="390" y="665" on="0"/>
        <pt x="390" y="648" on="1"/>
        <pt x="390" y="626" on="0"/>
        <pt x="368" y="572" on="0"/>
        <pt x="354" y="572" on="1"/>
        <pt x="348" y="572" on="0"/>
        <pt x="331" y="579" on="1"/>
        <pt x="293" y="595" on="0"/>
        <pt x="256" y="595" on="1"/>
        <pt x="214" y="595" on="0"/>
        <pt x="171" y="553" on="0"/>
        <pt x="171" y="522" on="1"/>
        <pt x="171" y="492" on="0"/>
        <pt x="198" y="451" on="0"/>
        <pt x="233" y="429" on="0"/>
        <pt x="279" y="403" on="1"/>
        <pt x="350" y="364" on="0"/>
        <pt x="418" y="275" on="0"/>
        <pt x="418" y="199" on="1"/>
      </contour>
    </TTGlyph>
    <TTGlyph name="Scircumflex" xMin="28" yMin="-7" xMax="418" yMax="895">
      <component glyphName="S" x="0" y="0" flags="0x0"/>
      <component glyphName="uni0302" x="223" y="177" flags="0x4"/>
    </TTGlyph>
    <TTGlyph name="Scommaaccent" xMin="28" yMin="-238" xMax="418" yMax="709">
      <component glyphName="S" x="0" y="0" flags="0x0"/>
      <component glyphName="uni0326" x="350" y="0" flags="0x0"/>
    </TTGlyph>
    <TTGlyph name="T" xMin="12" yMin="-2" xMax="443" yMax="700">
      <contour>
        <pt x="160" y="-2" on="0"/>
        <pt x="160" y="27" on="1"/>
        <pt x="160" y="588" on="1"/>
        <pt x="38" y="588" on="1"/>
        <pt x="24" y="588" on="0"/>
        <pt x="12" y="609" on="0"/>
        <pt x="12" y="631" on="1"/>
        <pt x="12" y="657" on="1"/>
        <pt x="12" y="679" on="0"/>
        <pt x="24" y="700" on="0"/>
        <pt x="38" y="700" on="1"/>
        <pt x="416" y="700" on="1"/>
        <pt x="430" y="700" on="0"/>
        <pt x="443" y="680" on="0"/>
        <pt x="443" y="657" on="1"/>
        <pt x="443" y="631" on="1"/>
        <pt x="443" y="608" on="0"/>
        <pt x="430" y="588" on="0"/>
        <pt x="416" y="588" on="1"/>
        <pt x="294" y="588" on="1"/>
        <pt x="294" y="27" on="1"/>
        <pt x="294" y="-2" on="0"/>
        <pt x="243" y="-2" on="1"/>
        <pt x="211" y="-2" on="1"/>
      </contour>
    </TTGlyph>
    <TTGlyph name="Tbar" xMin="12" yMin="-2" xMax="443" yMax="700">
      <contour>
        <pt x="430" y="700" on="0"/>
        <pt x="443" y="680" on="0"/>
        <pt x="443" y="657" on="1"/>
        <pt x="443" y="631" on="1"/>
        <pt x="443" y="608" on="0"/>
        <pt x="430" y="588" on="0"/>
        <pt x="416" y="588" on="1"/>
        <pt x="294" y="588" on="1"/>
        <pt x="294" y="395" on="1"/>
        <pt x="362" y="395" on="1"/>
        <pt x="376" y="395" on="0"/>
        <pt x="388" y="378" on="0"/>
        <pt x="388" y="358" on="1"/>
        <pt x="388" y="345" on="1"/>
        <pt x="388" y="325" on="0"/>
        <pt x="376" y="308" on="0"/>
        <pt x="362" y="308" on="1"/>
        <pt x="294" y="308" on="1"/>
        <pt x="294" y="27" on="1"/>
        <pt x="294" y="-2" on="0"/>
        <pt x="243" y="-2" on="1"/>
        <pt x="211" y="-2" on="1"/>
        <pt x="160" y="-2" on="0"/>
        <pt x="160" y="27" on="1"/>
        <pt x="160" y="308" on="1"/>
        <pt x="80" y="308" on="1"/>
        <pt x="66" y="308" on="0"/>
        <pt x="54" y="326" on="0"/>
        <pt x="54" y="345" on="1"/>
        <pt x="54" y="358" on="1"/>
        <pt x="54" y="377" on="0"/>
        <pt x="66" y="395" on="0"/>
        <pt x="80" y="395" on="1"/>
        <pt x="160" y="395" on="1"/>
        <pt x="160" y="588" on="1"/>
        <pt x="38" y="588" on="1"/>
        <pt x="24" y="588" on="0"/>
        <pt x="12" y="609" on="0"/>
        <pt x="12" y="631" on="1"/>
        <pt x="12" y="657" on="1"/>
        <pt x="12" y="679" on="0"/>
        <pt x="24" y="700" on="0"/>
        <pt x="38" y="700" on="1"/>
        <pt x="416" y="700" on="1"/>
      </contour>
    </TTGlyph>
    <TTGlyph name="Tcaron" xMin="12" yMin="-2" xMax="443" yMax="897">
      <component glyphName="T" x="0" y="0" flags="0x0"/>
      <component glyphName="uni030C" x="220" y="177" flags="0x4"/>
    </TTGlyph>
    <TTGlyph name="Thorn" xMin="61" yMin="-2" xMax="461" yMax="702">
      <contour>
        <pt x="61" y="-2" on="0"/>
        <pt x="61" y="27" on="1"/>
        <pt x="61" y="673" on="1"/>
        <pt x="61" y="702" on="0"/>
        <pt x="112" y="702" on="1"/>
        <pt x="143" y="702" on="1"/>
        <pt x="194" y="702" on="0"/>
        <pt x="194" y="673" on="1"/>
        <pt x="194" y="587" on="1"/>
        <pt x="267" y="587" on="1"/>
        <pt x="343" y="587" on="0"/>
        <pt x="461" y="498" on="0"/>
        <pt x="461" y="376" on="1"/>
        <pt x="461" y="290" on="0"/>
        <pt x="393" y="194" on="0"/>
        <pt x="309" y="161" on="0"/>
        <pt x="276" y="161" on="1"/>
        <pt x="194" y="161" on="1"/>
        <pt x="194" y="27" on="1"/>
        <pt x="194" y="-2" on="0"/>
        <pt x="143" y="-2" on="1"/>
        <pt x="112" y="-2" on="1"/>
      </contour>
      <contour>
        <pt x="263" y="272" on="1"/>
        <pt x="290" y="272" on="0"/>
        <pt x="330" y="318" on="0"/>
        <pt x="330" y="376" on="1"/>
        <pt x="330" y="431" on="0"/>
        <pt x="290" y="475" on="0"/>
        <pt x="261" y="475" on="1"/>
        <pt x="194" y="475" on="1"/>
        <pt x="194" y="272" on="1"/>
      </contour>
    </TTGlyph>
    <TTGlyph name="U" xMin="57" yMin="-7" xMax="526" yMax="702">
      <contour>
        <pt x="181" y="-7" on="0"/>
        <pt x="57" y="103" on="0"/>
        <pt x="57" y="202" on="1"/>
        <pt x="57" y="673" on="1"/>
        <pt x="57" y="702" on="0"/>
        <pt x="108" y="702" on="1"/>
        <pt x="139" y="702" on="1"/>
        <pt x="190" y="702" on="0"/>
        <pt x="190" y="673" on="1"/>
        <pt x="190" y="207" on="1"/>
        <pt x="190" y="162" on="0"/>
        <pt x="246" y="105" on="0"/>
        <pt x="292" y="105" on="1"/>
        <pt x="337" y="105" on="0"/>
        <pt x="394" y="162" on="0"/>
        <pt x="394" y="207" on="1"/>
        <pt x="394" y="673" on="1"/>
        <pt x="394" y="702" on="0"/>
        <pt x="445" y="702" on="1"/>
        <pt x="475" y="702" on="1"/>
        <pt x="526" y="702" on="0"/>
        <pt x="526" y="673" on="1"/>
        <pt x="526" y="202" on="1"/>
        <pt x="526" y="103" on="0"/>
        <pt x="403" y="-7" on="0"/>
        <pt x="292" y="-7" on="1"/>
      </contour>
    </TTGlyph>
    <TTGlyph name="Uacute" xMin="57" yMin="-7" xMax="526" yMax="910">
      <component glyphName="U" x="0" y="0" flags="0x0"/>
      <component glyphName="acutecomb" x="338" y="177" flags="0x4"/>
    </TTGlyph>
    <TTGlyph name="Ubreve" xMin="57" yMin="-7" xMax="526" yMax="892">
      <component glyphName="U" x="0" y="0" flags="0x0"/>
      <component glyphName="uni0306" x="292" y="177" flags="0x4"/>
    </TTGlyph>
    <TTGlyph name="Ucircumflex" xMin="57" yMin="-7" xMax="526" yMax="895">
      <component glyphName="U" x="0" y="0" flags="0x0"/>
      <component glyphName="uni0302" x="289" y="177" flags="0x4"/>
    </TTGlyph>
    <TTGlyph name="Udieresis" xMin="57" yMin="-7" xMax="526" yMax="879">
      <component glyphName="U" x="0" y="0" flags="0x0"/>
      <component glyphName="uni0308" x="293" y="177" flags="0x4"/>
    </TTGlyph>
    <TTGlyph name="Ugrave" xMin="57" yMin="-7" xMax="526" yMax="910">
      <component glyphName="U" x="0" y="0" flags="0x0"/>
      <component glyphName="gravecomb" x="291" y="177" flags="0x4"/>
    </TTGlyph>
    <TTGlyph name="Uhorn" xMin="50" yMin="-7" xMax="597" yMax="835">
      <contour>
        <pt x="597" y="719" on="0"/>
        <pt x="558" y="673" on="0"/>
        <pt x="519" y="666" on="1"/>
        <pt x="519" y="202" on="1"/>
        <pt x="519" y="103" on="0"/>
        <pt x="396" y="-7" on="0"/>
        <pt x="285" y="-7" on="1"/>
        <pt x="174" y="-7" on="0"/>
        <pt x="50" y="103" on="0"/>
        <pt x="50" y="202" on="1"/>
        <pt x="50" y="673" on="1"/>
        <pt x="50" y="702" on="0"/>
        <pt x="101" y="702" on="1"/>
        <pt x="132" y="702" on="1"/>
        <pt x="183" y="702" on="0"/>
        <pt x="183" y="673" on="1"/>
        <pt x="183" y="207" on="1"/>
        <pt x="183" y="162" on="0"/>
        <pt x="239" y="105" on="0"/>
        <pt x="285" y="105" on="1"/>
        <pt x="330" y="105" on="0"/>
        <pt x="387" y="162" on="0"/>
        <pt x="387" y="207" on="1"/>
        <pt x="387" y="673" on="1"/>
        <pt x="387" y="702" on="0"/>
        <pt x="438" y="702" on="1"/>
        <pt x="481" y="702" on="1"/>
        <pt x="502" y="702" on="0"/>
        <pt x="524" y="721" on="0"/>
        <pt x="524" y="735" on="1"/>
        <pt x="524" y="746" on="0"/>
        <pt x="515" y="764" on="0"/>
        <pt x="497" y="787" on="0"/>
        <pt x="497" y="792" on="1"/>
        <pt x="497" y="804" on="0"/>
        <pt x="507" y="810" on="1"/>
        <pt x="537" y="830" on="1"/>
        <pt x="542" y="835" on="0"/>
        <pt x="551" y="835" on="1"/>
        <pt x="569" y="835" on="0"/>
        <pt x="597" y="780" on="0"/>
        <pt x="597" y="755" on="1"/>
      </contour>
    </TTGlyph>
    <TTGlyph name="Uhungarumlaut" xMin="57" yMin="-7" xMax="526" yMax="910">
      <component glyphName="U" x="0" y="0" flags="0x0"/>
      <component glyphName="uni030B" x="323" y="177" flags="0x4"/>
    </TTGlyph>
    <TTGlyph name="Umacron" xMin="57" yMin="-7" xMax="526" yMax="866">
      <component glyphName="U" x="0" y="0" flags="0x0"/>
      <component glyphName="uni0304" x="293" y="177" flags="0x4"/>
    </TTGlyph>
    <TTGlyph name="Uogonek" xMin="57" yMin="-162" xMax="526" yMax="702">
      <contour>
        <pt x="526" y="140" on="0"/>
        <pt x="477" y="50" on="0"/>
        <pt x="430" y="24" on="1"/>
        <pt x="411" y="-15" on="0"/>
        <pt x="411" y="-51" on="1"/>
        <pt x="411" y="-95" on="0"/>
        <pt x="460" y="-95" on="1"/>
        <pt x="468" y="-95" on="0"/>
        <pt x="485" y="-90" on="0"/>
        <pt x="490" y="-90" on="1"/>
        <pt x="503" y="-90" on="0"/>
        <pt x="516" y="-103" on="0"/>
        <pt x="516" y="-118" on="1"/>
        <pt x="516" y="-138" on="0"/>
        <pt x="501" y="-148" on="1"/>
        <pt x="473" y="-162" on="0"/>
        <pt x="441" y="-162" on="1"/>
        <pt x="385" y="-162" on="0"/>
        <pt x="346" y="-103" on="0"/>
        <pt x="346" y="-70" on="1"/>
        <pt x="346" y="-35" on="0"/>
        <pt x="360" y="-1" on="1"/>
        <pt x="329" y="-7" on="0"/>
        <pt x="292" y="-7" on="1"/>
        <pt x="181" y="-7" on="0"/>
        <pt x="57" y="103" on="0"/>
        <pt x="57" y="202" on="1"/>
        <pt x="57" y="673" on="1"/>
        <pt x="57" y="702" on="0"/>
        <pt x="108" y="702" on="1"/>
        <pt x="139" y="702" on="1"/>
        <pt x="190" y="702" on="0"/>
        <pt x="190" y="673" on="1"/>
        <pt x="190" y="207" on="1"/>
        <pt x="190" y="162" on="0"/>
        <pt x="246" y="105" on="0"/>
        <pt x="292" y="105" on="1"/>
        <pt x="337" y="105" on="0"/>
        <pt x="394" y="162" on="0"/>
        <pt x="394" y="207" on="1"/>
        <pt x="394" y="673" on="1"/>
        <pt x="394" y="702" on="0"/>
        <pt x="445" y="702" on="1"/>
        <pt x="475" y="702" on="1"/>
        <pt x="526" y="702" on="0"/>
        <pt x="526" y="673" on="1"/>
        <pt x="526" y="202" on="1"/>
      </contour>
    </TTGlyph>
    <TTGlyph name="Uring" xMin="57" yMin="-7" xMax="526" yMax="920">
      <component glyphName="U" x="0" y="0" flags="0x0"/>
      <component glyphName="uni030A" x="290" y="177" flags="0x4"/>
    </TTGlyph>
    <TTGlyph name="Utilde" xMin="57" yMin="-7" xMax="526" yMax="873">
      <component glyphName="U" x="0" y="0" flags="0x0"/>
      <component glyphName="tildecomb" x="295" y="177" flags="0x4"/>
    </TTGlyph>
    <TTGlyph name="V" xMin="9" yMin="-2" xMax="497" yMax="702">
      <contour>
        <pt x="177" y="-2" on="0"/>
        <pt x="172" y="17" on="1"/>
        <pt x="13" y="665" on="1"/>
        <pt x="9" y="679" on="0"/>
        <pt x="9" y="682" on="1"/>
        <pt x="9" y="691" on="0"/>
        <pt x="35" y="702" on="0"/>
        <pt x="61" y="702" on="1"/>
        <pt x="91" y="702" on="1"/>
        <pt x="134" y="702" on="0"/>
        <pt x="139" y="678" on="1"/>
        <pt x="241" y="198" on="1"/>
        <pt x="250" y="135" on="1"/>
        <pt x="254" y="135" on="1"/>
        <pt x="263" y="198" on="1"/>
        <pt x="368" y="678" on="1"/>
        <pt x="373" y="702" on="0"/>
        <pt x="417" y="702" on="1"/>
        <pt x="445" y="702" on="1"/>
        <pt x="497" y="702" on="0"/>
        <pt x="497" y="682" on="1"/>
        <pt x="497" y="676" on="0"/>
        <pt x="494" y="665" on="1"/>
        <pt x="334" y="17" on="1"/>
        <pt x="329" y="-2" on="0"/>
        <pt x="286" y="-2" on="1"/>
        <pt x="220" y="-2" on="1"/>
      </contour>
    </TTGlyph>
    <TTGlyph name="W" xMin="10" yMin="-2" xMax="743" yMax="702">
      <contour>
        <pt x="149" y="-2" on="0"/>
        <pt x="145" y="17" on="1"/>
        <pt x="11" y="664" on="1"/>
        <pt x="10" y="668" on="0"/>
        <pt x="11" y="677" on="0"/>
        <pt x="11" y="678" on="1"/>
        <pt x="11" y="702" on="0"/>
        <pt x="63" y="702" on="1"/>
        <pt x="86" y="702" on="1"/>
        <pt x="138" y="702" on="0"/>
        <pt x="142" y="676" on="1"/>
        <pt x="204" y="268" on="1"/>
        <pt x="216" y="180" on="1"/>
        <pt x="222" y="131" on="1"/>
        <pt x="229" y="179" on="0"/>
        <pt x="244" y="269" on="1"/>
        <pt x="316" y="682" on="1"/>
        <pt x="318" y="693" on="0"/>
        <pt x="338" y="702" on="0"/>
        <pt x="359" y="702" on="1"/>
        <pt x="398" y="702" on="1"/>
        <pt x="419" y="702" on="0"/>
        <pt x="440" y="693" on="0"/>
        <pt x="442" y="682" on="1"/>
        <pt x="513" y="268" on="1"/>
        <pt x="518" y="246" on="0"/>
        <pt x="526" y="186" on="1"/>
        <pt x="528" y="164" on="0"/>
        <pt x="534" y="129" on="1"/>
        <pt x="553" y="268" on="1"/>
        <pt x="616" y="676" on="1"/>
        <pt x="619" y="702" on="0"/>
        <pt x="671" y="702" on="1"/>
        <pt x="690" y="702" on="1"/>
        <pt x="743" y="702" on="0"/>
        <pt x="743" y="678" on="1"/>
        <pt x="741" y="664" on="1"/>
        <pt x="606" y="17" on="1"/>
        <pt x="602" y="-2" on="0"/>
        <pt x="563" y="-2" on="1"/>
        <pt x="506" y="-2" on="1"/>
        <pt x="467" y="-2" on="0"/>
        <pt x="464" y="17" on="1"/>
        <pt x="389" y="394" on="1"/>
        <pt x="376" y="507" on="1"/>
        <pt x="363" y="394" on="1"/>
        <pt x="287" y="17" on="1"/>
        <pt x="283" y="-2" on="0"/>
        <pt x="245" y="-2" on="1"/>
        <pt x="188" y="-2" on="1"/>
      </contour>
    </TTGlyph>
    <TTGlyph name="Wacute" xMin="11" yMin="-2" xMax="743" yMax="910">
      <component glyphName="W" x="0" y="0" flags="0x0"/>
      <component glyphName="acutecomb" x="422" y="177" flags="0x4"/>
    </TTGlyph>
    <TTGlyph name="Wcircumflex" xMin="11" yMin="-2" xMax="743" yMax="895">
      <component glyphName="W" x="0" y="0" flags="0x0"/>
      <component glyphName="uni0302" x="373" y="177" flags="0x4"/>
    </TTGlyph>
    <TTGlyph name="Wdieresis" xMin="11" yMin="-2" xMax="743" yMax="879">
      <component glyphName="W" x="0" y="0" flags="0x0"/>
      <component glyphName="uni0308" x="377" y="177" flags="0x4"/>
    </TTGlyph>
    <TTGlyph name="Wgrave" xMin="11" yMin="-2" xMax="743" yMax="910">
      <component glyphName="W" x="0" y="0" flags="0x0"/>
      <component glyphName="gravecomb" x="375" y="177" flags="0x4"/>
    </TTGlyph>
    <TTGlyph name="X" xMin="13" yMin="-2" xMax="493" yMax="702">
      <contour>
        <pt x="13" y="-2" on="0"/>
        <pt x="13" y="16" on="1"/>
        <pt x="13" y="21" on="0"/>
        <pt x="19" y="35" on="0"/>
        <pt x="20" y="39" on="1"/>
        <pt x="173" y="365" on="1"/>
        <pt x="39" y="661" on="1"/>
        <pt x="38" y="663" on="0"/>
        <pt x="31" y="678" on="0"/>
        <pt x="31" y="684" on="1"/>
        <pt x="31" y="702" on="0"/>
        <pt x="85" y="702" on="1"/>
        <pt x="122" y="702" on="1"/>
        <pt x="142" y="702" on="0"/>
        <pt x="167" y="694" on="0"/>
        <pt x="171" y="684" on="1"/>
        <pt x="256" y="443" on="1"/>
        <pt x="348" y="684" on="1"/>
        <pt x="352" y="695" on="0"/>
        <pt x="376" y="702" on="0"/>
        <pt x="398" y="702" on="1"/>
        <pt x="433" y="702" on="1"/>
        <pt x="486" y="702" on="0"/>
        <pt x="486" y="684" on="1"/>
        <pt x="486" y="679" on="0"/>
        <pt x="479" y="661" on="1"/>
        <pt x="337" y="365" on="1"/>
        <pt x="485" y="39" on="1"/>
        <pt x="487" y="35" on="0"/>
        <pt x="493" y="21" on="0"/>
        <pt x="493" y="16" on="1"/>
        <pt x="493" y="-2" on="0"/>
        <pt x="439" y="-2" on="1"/>
        <pt x="404" y="-2" on="1"/>
        <pt x="361" y="-2" on="0"/>
        <pt x="355" y="16" on="1"/>
        <pt x="256" y="281" on="1"/>
        <pt x="150" y="16" on="1"/>
        <pt x="145" y="4" on="0"/>
        <pt x="122" y="-2" on="0"/>
        <pt x="100" y="-2" on="1"/>
        <pt x="66" y="-2" on="1"/>
      </contour>
    </TTGlyph>
    <TTGlyph name="Y" xMin="8" yMin="-2" xMax="476" yMax="702">
      <contour>
        <pt x="175" y="-2" on="0"/>
        <pt x="175" y="27" on="1"/>
        <pt x="175" y="307" on="1"/>
        <pt x="16" y="660" on="1"/>
        <pt x="8" y="674" on="0"/>
        <pt x="8" y="683" on="1"/>
        <pt x="8" y="702" on="0"/>
        <pt x="61" y="702" on="1"/>
        <pt x="101" y="702" on="1"/>
        <pt x="122" y="702" on="0"/>
        <pt x="147" y="694" on="0"/>
        <pt x="150" y="684" on="1"/>
        <pt x="245" y="426" on="1"/>
        <pt x="339" y="685" on="1"/>
        <pt x="342" y="695" on="0"/>
        <pt x="368" y="702" on="0"/>
        <pt x="389" y="702" on="1"/>
        <pt x="421" y="702" on="1"/>
        <pt x="476" y="702" on="0"/>
        <pt x="476" y="683" on="1"/>
        <pt x="476" y="678" on="0"/>
        <pt x="469" y="660" on="1"/>
        <pt x="309" y="304" on="1"/>
        <pt x="309" y="27" on="1"/>
        <pt x="309" y="-2" on="0"/>
        <pt x="258" y="-2" on="1"/>
        <pt x="227" y="-2" on="1"/>
      </contour>
    </TTGlyph>
    <TTGlyph name="Y.loclGUA" xMin="49" yMin="-9" xMax="446" yMax="701">
      <contour>
        <pt x="446" y="701" on="0"/>
        <pt x="446" y="673" on="1"/>
        <pt x="446" y="273" on="1"/>
        <pt x="446" y="124" on="0"/>
        <pt x="350" y="-9" on="0"/>
        <pt x="242" y="-9" on="1"/>
        <pt x="169" y="-9" on="0"/>
        <pt x="59" y="29" on="0"/>
        <pt x="55" y="55" on="1"/>
        <pt x="52" y="76" on="0"/>
        <pt x="52" y="95" on="1"/>
        <pt x="52" y="113" on="0"/>
        <pt x="62" y="130" on="0"/>
        <pt x="68" y="130" on="1"/>
        <pt x="71" y="130" on="0"/>
        <pt x="118" y="109" on="0"/>
        <pt x="177" y="93" on="0"/>
        <pt x="213" y="93" on="1"/>
        <pt x="270" y="93" on="0"/>
        <pt x="321" y="162" on="0"/>
        <pt x="321" y="239" on="1"/>
        <pt x="321" y="270" on="1"/>
        <pt x="299" y="241" on="0"/>
        <pt x="235" y="209" on="0"/>
        <pt x="196" y="209" on="1"/>
        <pt x="123" y="209" on="0"/>
        <pt x="49" y="287" on="0"/>
        <pt x="49" y="363" on="1"/>
        <pt x="49" y="673" on="1"/>
        <pt x="49" y="701" on="0"/>
        <pt x="102" y="701" on="1"/>
        <pt x="122" y="701" on="1"/>
        <pt x="175" y="701" on="0"/>
        <pt x="175" y="673" on="1"/>
        <pt x="175" y="380" on="1"/>
        <pt x="175" y="348" on="0"/>
        <pt x="209" y="314" on="0"/>
        <pt x="242" y="314" on="1"/>
        <pt x="288" y="314" on="0"/>
        <pt x="321" y="376" on="1"/>
        <pt x="321" y="673" on="1"/>
        <pt x="321" y="701" on="0"/>
        <pt x="374" y="701" on="1"/>
        <pt x="393" y="701" on="1"/>
      </contour>
    </TTGlyph>
    <TTGlyph name="Yacute" xMin="8" yMin="-2" xMax="476" yMax="910">
      <component glyphName="Y" x="0" y="0" flags="0x0"/>
      <component glyphName="acutecomb" x="288" y="177" flags="0x4"/>
    </TTGlyph>
    <TTGlyph name="Yacute.loclGUA" xMin="49" yMin="-9" xMax="446" yMax="910">
      <component glyphName="Y.loclGUA" x="0" y="0" flags="0x0"/>
      <component glyphName="acutecomb" x="292" y="177" flags="0x4"/>
    </TTGlyph>
    <TTGlyph name="Ycircumflex" xMin="8" yMin="-2" xMax="476" yMax="895">
      <component glyphName="Y" x="0" y="0" flags="0x0"/>
      <component glyphName="uni0302" x="239" y="177" flags="0x4"/>
    </TTGlyph>
    <TTGlyph name="Ycircumflex.loclGUA" xMin="49" yMin="-9" xMax="446" yMax="895">
      <component glyphName="Y.loclGUA" x="0" y="0" flags="0x0"/>
      <component glyphName="uni0302" x="243" y="177" flags="0x4"/>
    </TTGlyph>
    <TTGlyph name="Ydieresis" xMin="8" yMin="-2" xMax="476" yMax="879">
      <component glyphName="Y" x="0" y="0" flags="0x0"/>
      <component glyphName="uni0308" x="243" y="177" flags="0x4"/>
    </TTGlyph>
    <TTGlyph name="Ydieresis.loclGUA" xMin="49" yMin="-9" xMax="446" yMax="879">
      <component glyphName="Y.loclGUA" x="0" y="0" flags="0x0"/>
      <component glyphName="uni0308" x="247" y="177" flags="0x4"/>
    </TTGlyph>
    <TTGlyph name="Ygrave" xMin="8" yMin="-2" xMax="476" yMax="910">
      <component glyphName="Y" x="0" y="0" flags="0x0"/>
      <component glyphName="gravecomb" x="241" y="177" flags="0x4"/>
    </TTGlyph>
    <TTGlyph name="Ygrave.loclGUA" xMin="49" yMin="-9" xMax="446" yMax="910">
      <component glyphName="Y.loclGUA" x="0" y="0" flags="0x0"/>
      <component glyphName="gravecomb" x="245" y="177" flags="0x4"/>
    </TTGlyph>
    <TTGlyph name="Z" xMin="27" yMin="0" xMax="473" yMax="700">
      <contour>
        <pt x="50" y="0" on="0"/>
        <pt x="27" y="56" on="0"/>
        <pt x="27" y="77" on="1"/>
        <pt x="27" y="85" on="0"/>
        <pt x="28" y="87" on="1"/>
        <pt x="305" y="588" on="1"/>
        <pt x="75" y="588" on="1"/>
        <pt x="62" y="588" on="0"/>
        <pt x="50" y="609" on="0"/>
        <pt x="50" y="633" on="1"/>
        <pt x="50" y="656" on="1"/>
        <pt x="50" y="679" on="0"/>
        <pt x="62" y="700" on="0"/>
        <pt x="75" y="700" on="1"/>
        <pt x="440" y="700" on="1"/>
        <pt x="450" y="700" on="0"/>
        <pt x="472" y="642" on="0"/>
        <pt x="472" y="622" on="1"/>
        <pt x="472" y="619" on="0"/>
        <pt x="473" y="614" on="0"/>
        <pt x="472" y="612" on="1"/>
        <pt x="196" y="112" on="1"/>
        <pt x="448" y="112" on="1"/>
        <pt x="461" y="112" on="0"/>
        <pt x="473" y="91" on="0"/>
        <pt x="473" y="68" on="1"/>
        <pt x="473" y="44" on="1"/>
        <pt x="473" y="21" on="0"/>
        <pt x="461" y="0" on="0"/>
        <pt x="448" y="0" on="1"/>
        <pt x="61" y="0" on="1"/>
      </contour>
    </TTGlyph>
    <TTGlyph name="Zacute" xMin="27" yMin="0" xMax="473" yMax="910">
      <component glyphName="Z" x="0" y="0" flags="0x0"/>
      <component glyphName="acutecomb" x="302" y="177" flags="0x4"/>
    </TTGlyph>
    <TTGlyph name="Zacute.loclPLK" xMin="27" yMin="0" xMax="473" yMax="910">
      <component glyphName="Z" x="0" y="0" flags="0x0"/>
      <component glyphName="acute.loclPLK" x="168" y="177" flags="0x4"/>
    </TTGlyph>
    <TTGlyph name="Zcaron" xMin="27" yMin="0" xMax="473" yMax="897">
      <component glyphName="Z" x="0" y="0" flags="0x0"/>
      <component glyphName="uni030C" x="249" y="177" flags="0x4"/>
    </TTGlyph>
    <TTGlyph name="Zdotaccent" xMin="27" yMin="0" xMax="473" yMax="879">
      <component glyphName="Z" x="0" y="0" flags="0x0"/>
      <component glyphName="uni0307" x="255" y="177" flags="0x4"/>
    </TTGlyph>
    <TTGlyph name="a" xMin="43" yMin="-7" xMax="426" yMax="530">
      <contour>
        <pt x="116" y="-7" on="0"/>
        <pt x="43" y="76" on="0"/>
        <pt x="43" y="149" on="1"/>
        <pt x="43" y="234" on="0"/>
        <pt x="162" y="334" on="0"/>
        <pt x="288" y="334" on="1"/>
        <pt x="288" y="361" on="1"/>
        <pt x="288" y="429" on="0"/>
        <pt x="218" y="429" on="1"/>
        <pt x="191" y="429" on="0"/>
        <pt x="151" y="416" on="0"/>
        <pt x="128" y="405" on="1"/>
        <pt x="115" y="397" on="0"/>
        <pt x="109" y="397" on="1"/>
        <pt x="96" y="397" on="0"/>
        <pt x="63" y="452" on="0"/>
        <pt x="63" y="467" on="1"/>
        <pt x="63" y="483" on="0"/>
        <pt x="110" y="512" on="0"/>
        <pt x="186" y="530" on="0"/>
        <pt x="226" y="530" on="1"/>
        <pt x="322" y="530" on="0"/>
        <pt x="414" y="442" on="0"/>
        <pt x="414" y="365" on="1"/>
        <pt x="414" y="166" on="1"/>
        <pt x="414" y="98" on="0"/>
        <pt x="426" y="35" on="0"/>
        <pt x="426" y="28" on="1"/>
        <pt x="426" y="14" on="0"/>
        <pt x="360" y="-1" on="0"/>
        <pt x="334" y="-1" on="1"/>
        <pt x="319" y="-1" on="0"/>
        <pt x="305" y="25" on="0"/>
        <pt x="298" y="53" on="1"/>
        <pt x="281" y="28" on="0"/>
        <pt x="222" y="-7" on="0"/>
        <pt x="183" y="-7" on="1"/>
      </contour>
      <contour>
        <pt x="239" y="90" on="0"/>
        <pt x="276" y="112" on="0"/>
        <pt x="288" y="131" on="1"/>
        <pt x="288" y="252" on="1"/>
        <pt x="160" y="252" on="0"/>
        <pt x="160" y="157" on="1"/>
        <pt x="160" y="125" on="0"/>
        <pt x="189" y="90" on="0"/>
        <pt x="218" y="90" on="1"/>
      </contour>
    </TTGlyph>
    <TTGlyph name="aacute" xMin="43" yMin="-7" xMax="426" yMax="733">
      <component glyphName="a" x="0" y="0" flags="0x0"/>
      <component glyphName="acutecomb" x="284" y="0" flags="0x0"/>
    </TTGlyph>
    <TTGlyph name="abreve" xMin="43" yMin="-7" xMax="426" yMax="715">
      <component glyphName="a" x="0" y="0" flags="0x0"/>
      <component glyphName="uni0306" x="238" y="0" flags="0x0"/>
    </TTGlyph>
    <TTGlyph name="acircumflex" xMin="43" yMin="-7" xMax="426" yMax="718">
      <component glyphName="a" x="0" y="0" flags="0x0"/>
      <component glyphName="uni0302" x="235" y="0" flags="0x0"/>
    </TTGlyph>
    <TTGlyph name="acute" xMin="40" yMin="578" xMax="214" yMax="733">
      <contour>
        <pt x="51" y="578" on="0"/>
        <pt x="40" y="584" on="0"/>
        <pt x="40" y="592" on="1"/>
        <pt x="40" y="597" on="0"/>
        <pt x="53" y="626" on="0"/>
        <pt x="68" y="656" on="0"/>
        <pt x="72" y="663" on="1"/>
        <pt x="94" y="707" on="1"/>
        <pt x="106" y="733" on="0"/>
        <pt x="165" y="733" on="1"/>
        <pt x="191" y="733" on="0"/>
        <pt x="214" y="727" on="0"/>
        <pt x="214" y="720" on="1"/>
        <pt x="214" y="713" on="0"/>
        <pt x="202" y="694" on="0"/>
        <pt x="175" y="660" on="1"/>
        <pt x="130" y="601" on="1"/>
        <pt x="122" y="590" on="0"/>
        <pt x="94" y="578" on="0"/>
        <pt x="66" y="578" on="1"/>
      </contour>
    </TTGlyph>
    <TTGlyph name="acute.loclPLK" xMin="45" yMin="578" xMax="195" yMax="733">
      <contour>
        <pt x="57" y="578" on="0"/>
        <pt x="45" y="584" on="0"/>
        <pt x="45" y="592" on="1"/>
        <pt x="45" y="604" on="0"/>
        <pt x="75" y="707" on="1"/>
        <pt x="79" y="722" on="0"/>
        <pt x="117" y="733" on="0"/>
        <pt x="146" y="733" on="1"/>
        <pt x="172" y="733" on="0"/>
        <pt x="195" y="727" on="0"/>
        <pt x="195" y="719" on="1"/>
        <pt x="195" y="714" on="0"/>
        <pt x="177" y="677" on="0"/>
        <pt x="160" y="647" on="1"/>
        <pt x="135" y="601" on="1"/>
        <pt x="129" y="590" on="0"/>
        <pt x="101" y="578" on="0"/>
        <pt x="73" y="578" on="1"/>
      </contour>
    </TTGlyph>
    <TTGlyph name="acutecomb" xMin="-88" yMin="578" xMax="86" yMax="733">
      <contour>
        <pt x="-77" y="578" on="0"/>
        <pt x="-88" y="584" on="0"/>
        <pt x="-88" y="592" on="1"/>
        <pt x="-88" y="597" on="0"/>
        <pt x="-75" y="626" on="0"/>
        <pt x="-60" y="656" on="0"/>
        <pt x="-56" y="663" on="1"/>
        <pt x="-34" y="707" on="1"/>
        <pt x="-22" y="733" on="0"/>
        <pt x="37" y="733" on="1"/>
        <pt x="63" y="733" on="0"/>
        <pt x="86" y="727" on="0"/>
        <pt x="86" y="720" on="1"/>
        <pt x="86" y="713" on="0"/>
        <pt x="74" y="694" on="0"/>
        <pt x="47" y="660" on="1"/>
        <pt x="2" y="601" on="1"/>
        <pt x="-6" y="590" on="0"/>
        <pt x="-34" y="578" on="0"/>
        <pt x="-62" y="578" on="1"/>
      </contour>
    </TTGlyph>
    <TTGlyph name="adieresis" xMin="43" yMin="-7" xMax="426" yMax="702">
      <component glyphName="a" x="0" y="0" flags="0x0"/>
      <component glyphName="uni0308" x="239" y="0" flags="0x0"/>
    </TTGlyph>
    <TTGlyph name="ae" xMin="24" yMin="-7" xMax="642" yMax="530">
      <contour>
        <pt x="103" y="-7" on="0"/>
        <pt x="24" y="76" on="0"/>
        <pt x="24" y="149" on="1"/>
        <pt x="24" y="231" on="0"/>
        <pt x="136" y="331" on="0"/>
        <pt x="260" y="332" on="1"/>
        <pt x="263" y="363" on="0"/>
        <pt x="272" y="387" on="1"/>
        <pt x="256" y="429" on="0"/>
        <pt x="200" y="429" on="1"/>
        <pt x="175" y="429" on="0"/>
        <pt x="137" y="417" on="0"/>
        <pt x="113" y="406" on="1"/>
        <pt x="99" y="398" on="0"/>
        <pt x="92" y="398" on="1"/>
        <pt x="79" y="398" on="0"/>
        <pt x="46" y="452" on="0"/>
        <pt x="46" y="467" on="1"/>
        <pt x="46" y="483" on="0"/>
        <pt x="92" y="512" on="0"/>
        <pt x="168" y="530" on="0"/>
        <pt x="209" y="530" on="1"/>
        <pt x="250" y="530" on="0"/>
        <pt x="317" y="512" on="0"/>
        <pt x="339" y="495" on="1"/>
        <pt x="386" y="530" on="0"/>
        <pt x="458" y="530" on="1"/>
        <pt x="553" y="530" on="0"/>
        <pt x="642" y="398" on="0"/>
        <pt x="642" y="269" on="1"/>
        <pt x="642" y="258" on="0"/>
        <pt x="606" y="216" on="0"/>
        <pt x="597" y="216" on="1"/>
        <pt x="387" y="216" on="1"/>
        <pt x="390" y="94" on="0"/>
        <pt x="480" y="94" on="1"/>
        <pt x="506" y="94" on="0"/>
        <pt x="546" y="109" on="0"/>
        <pt x="580" y="128" on="0"/>
        <pt x="584" y="128" on="1"/>
        <pt x="596" y="128" on="0"/>
        <pt x="629" y="75" on="0"/>
        <pt x="629" y="60" on="1"/>
        <pt x="629" y="42" on="0"/>
        <pt x="581" y="11" on="0"/>
        <pt x="507" y="-7" on="0"/>
        <pt x="472" y="-7" on="1"/>
        <pt x="371" y="-7" on="0"/>
        <pt x="315" y="52" on="1"/>
        <pt x="294" y="26" on="0"/>
        <pt x="219" y="-7" on="0"/>
        <pt x="174" y="-7" on="1"/>
      </contour>
      <contour>
        <pt x="518" y="306" on="1"/>
        <pt x="518" y="370" on="0"/>
        <pt x="488" y="429" on="0"/>
        <pt x="458" y="429" on="1"/>
        <pt x="426" y="429" on="0"/>
        <pt x="389" y="372" on="0"/>
        <pt x="385" y="306" on="1"/>
      </contour>
      <contour>
        <pt x="220" y="97" on="0"/>
        <pt x="258" y="115" on="0"/>
        <pt x="271" y="133" on="1"/>
        <pt x="258" y="174" on="0"/>
        <pt x="256" y="243" on="1"/>
        <pt x="147" y="241" on="0"/>
        <pt x="147" y="157" on="1"/>
        <pt x="147" y="129" on="0"/>
        <pt x="173" y="97" on="0"/>
        <pt x="198" y="97" on="1"/>
      </contour>
    </TTGlyph>
    <TTGlyph name="aeacute" xMin="24" yMin="-7" xMax="642" yMax="733">
      <component glyphName="ae" x="0" y="0" flags="0x0"/>
      <component glyphName="acutecomb" x="385" y="0" flags="0x0"/>
    </TTGlyph>
    <TTGlyph name="agrave" xMin="43" yMin="-7" xMax="426" yMax="733">
      <component glyphName="a" x="0" y="0" flags="0x0"/>
      <component glyphName="gravecomb" x="237" y="0" flags="0x0"/>
    </TTGlyph>
    <TTGlyph name="amacron" xMin="43" yMin="-7" xMax="426" yMax="689">
      <component glyphName="a" x="0" y="0" flags="0x0"/>
      <component glyphName="uni0304" x="239" y="0" flags="0x0"/>
    </TTGlyph>
    <TTGlyph name="ampersand" xMin="14" yMin="-7" xMax="512" yMax="707">
      <contour>
        <pt x="496" y="98" on="0"/>
        <pt x="512" y="47" on="0"/>
        <pt x="512" y="35" on="1"/>
        <pt x="512" y="-7" on="0"/>
        <pt x="432" y="-7" on="1"/>
        <pt x="400" y="-7" on="0"/>
        <pt x="358" y="12" on="0"/>
        <pt x="343" y="34" on="1"/>
        <pt x="301" y="12" on="0"/>
        <pt x="240" y="-7" on="0"/>
        <pt x="196" y="-7" on="1"/>
        <pt x="110" y="-7" on="0"/>
        <pt x="14" y="100" on="0"/>
        <pt x="14" y="204" on="1"/>
        <pt x="14" y="275" on="0"/>
        <pt x="58" y="366" on="0"/>
        <pt x="106" y="384" on="1"/>
        <pt x="106" y="388" on="1"/>
        <pt x="71" y="406" on="0"/>
        <pt x="32" y="482" on="0"/>
        <pt x="32" y="535" on="1"/>
        <pt x="32" y="616" on="0"/>
        <pt x="121" y="707" on="0"/>
        <pt x="197" y="707" on="1"/>
        <pt x="231" y="707" on="0"/>
        <pt x="289" y="688" on="0"/>
        <pt x="289" y="669" on="1"/>
        <pt x="289" y="644" on="0"/>
        <pt x="269" y="598" on="0"/>
        <pt x="259" y="598" on="1"/>
        <pt x="255" y="598" on="0"/>
        <pt x="232" y="606" on="0"/>
        <pt x="220" y="606" on="1"/>
        <pt x="190" y="606" on="0"/>
        <pt x="163" y="554" on="0"/>
        <pt x="163" y="516" on="1"/>
        <pt x="163" y="477" on="0"/>
        <pt x="206" y="420" on="0"/>
        <pt x="240" y="420" on="1"/>
        <pt x="312" y="420" on="1"/>
        <pt x="323" y="518" on="1"/>
        <pt x="326" y="547" on="0"/>
        <pt x="370" y="547" on="1"/>
        <pt x="397" y="547" on="1"/>
        <pt x="440" y="547" on="0"/>
        <pt x="440" y="518" on="1"/>
        <pt x="440" y="420" on="1"/>
        <pt x="475" y="420" on="1"/>
        <pt x="500" y="420" on="0"/>
        <pt x="500" y="377" on="1"/>
        <pt x="500" y="361" on="1"/>
        <pt x="500" y="318" on="0"/>
        <pt x="475" y="318" on="1"/>
        <pt x="440" y="318" on="1"/>
        <pt x="440" y="148" on="1"/>
        <pt x="440" y="118" on="0"/>
        <pt x="451" y="94" on="0"/>
        <pt x="464" y="94" on="1"/>
        <pt x="471" y="94" on="0"/>
        <pt x="483" y="98" on="0"/>
        <pt x="486" y="98" on="1"/>
      </contour>
      <contour>
        <pt x="144" y="148" on="0"/>
        <pt x="180" y="94" on="0"/>
        <pt x="216" y="94" on="1"/>
        <pt x="238" y="94" on="0"/>
        <pt x="281" y="107" on="0"/>
        <pt x="312" y="122" on="1"/>
        <pt x="312" y="131" on="1"/>
        <pt x="312" y="318" on="1"/>
        <pt x="232" y="318" on="1"/>
        <pt x="183" y="318" on="0"/>
        <pt x="144" y="265" on="0"/>
        <pt x="144" y="205" on="1"/>
      </contour>
    </TTGlyph>
    <TTGlyph name="aogonek" xMin="43" yMin="-160" xMax="510" yMax="530">
      <contour>
        <pt x="497" y="-88" on="0"/>
        <pt x="510" y="-101" on="0"/>
        <pt x="510" y="-116" on="1"/>
        <pt x="510" y="-136" on="0"/>
        <pt x="495" y="-146" on="1"/>
        <pt x="467" y="-160" on="0"/>
        <pt x="435" y="-160" on="1"/>
        <pt x="379" y="-160" on="0"/>
        <pt x="340" y="-101" on="0"/>
        <pt x="340" y="-68" on="1"/>
        <pt x="340" y="-34" on="0"/>
        <pt x="354" y="0" on="1"/>
        <pt x="346" y="-1" on="0"/>
        <pt x="334" y="-1" on="1"/>
        <pt x="319" y="-1" on="0"/>
        <pt x="305" y="25" on="0"/>
        <pt x="298" y="53" on="1"/>
        <pt x="281" y="28" on="0"/>
        <pt x="222" y="-7" on="0"/>
        <pt x="183" y="-7" on="1"/>
        <pt x="116" y="-7" on="0"/>
        <pt x="43" y="76" on="0"/>
        <pt x="43" y="149" on="1"/>
        <pt x="43" y="234" on="0"/>
        <pt x="162" y="334" on="0"/>
        <pt x="288" y="334" on="1"/>
        <pt x="288" y="361" on="1"/>
        <pt x="288" y="429" on="0"/>
        <pt x="218" y="429" on="1"/>
        <pt x="191" y="429" on="0"/>
        <pt x="151" y="416" on="0"/>
        <pt x="128" y="405" on="1"/>
        <pt x="115" y="397" on="0"/>
        <pt x="109" y="397" on="1"/>
        <pt x="96" y="397" on="0"/>
        <pt x="63" y="452" on="0"/>
        <pt x="63" y="467" on="1"/>
        <pt x="63" y="483" on="0"/>
        <pt x="110" y="512" on="0"/>
        <pt x="186" y="530" on="0"/>
        <pt x="226" y="530" on="1"/>
        <pt x="322" y="530" on="0"/>
        <pt x="414" y="442" on="0"/>
        <pt x="414" y="365" on="1"/>
        <pt x="414" y="166" on="1"/>
        <pt x="414" y="98" on="0"/>
        <pt x="426" y="35" on="0"/>
        <pt x="426" y="28" on="1"/>
        <pt x="426" y="23" on="0"/>
        <pt x="421" y="18" on="1"/>
        <pt x="405" y="-17" on="0"/>
        <pt x="405" y="-49" on="1"/>
        <pt x="405" y="-93" on="0"/>
        <pt x="454" y="-93" on="1"/>
        <pt x="462" y="-93" on="0"/>
        <pt x="479" y="-88" on="0"/>
        <pt x="484" y="-88" on="1"/>
      </contour>
      <contour>
        <pt x="288" y="252" on="1"/>
        <pt x="160" y="252" on="0"/>
        <pt x="160" y="157" on="1"/>
        <pt x="160" y="125" on="0"/>
        <pt x="189" y="90" on="0"/>
        <pt x="218" y="90" on="1"/>
        <pt x="239" y="90" on="0"/>
        <pt x="276" y="112" on="0"/>
        <pt x="288" y="131" on="1"/>
      </contour>
    </TTGlyph>
    <TTGlyph name="approxequal" xMin="48" yMin="145" xMax="396" yMax="327">
      <contour>
        <pt x="396" y="247" on="0"/>
        <pt x="396" y="234" on="1"/>
        <pt x="396" y="230" on="0"/>
        <pt x="394" y="220" on="1"/>
        <pt x="386" y="187" on="0"/>
        <pt x="333" y="148" on="0"/>
        <pt x="292" y="148" on="1"/>
        <pt x="274" y="148" on="0"/>
        <pt x="223" y="165" on="1"/>
        <pt x="215" y="167" on="0"/>
        <pt x="163" y="182" on="0"/>
        <pt x="149" y="182" on="1"/>
        <pt x="121" y="182" on="0"/>
        <pt x="108" y="161" on="1"/>
        <pt x="97" y="145" on="0"/>
        <pt x="86" y="145" on="1"/>
        <pt x="84" y="145" on="0"/>
        <pt x="76" y="147" on="1"/>
        <pt x="68" y="150" on="1"/>
        <pt x="48" y="159" on="0"/>
        <pt x="48" y="170" on="1"/>
        <pt x="48" y="174" on="0"/>
        <pt x="50" y="182" on="1"/>
        <pt x="55" y="204" on="0"/>
        <pt x="68" y="219" on="1"/>
        <pt x="48" y="228" on="0"/>
        <pt x="48" y="239" on="1"/>
        <pt x="48" y="243" on="0"/>
        <pt x="50" y="251" on="1"/>
        <pt x="58" y="285" on="0"/>
        <pt x="112" y="324" on="0"/>
        <pt x="153" y="324" on="1"/>
        <pt x="172" y="324" on="0"/>
        <pt x="223" y="307" on="1"/>
        <pt x="229" y="305" on="0"/>
        <pt x="281" y="290" on="0"/>
        <pt x="295" y="290" on="1"/>
        <pt x="324" y="290" on="0"/>
        <pt x="337" y="311" on="1"/>
        <pt x="346" y="327" on="0"/>
        <pt x="358" y="327" on="1"/>
        <pt x="365" y="327" on="0"/>
        <pt x="368" y="325" on="1"/>
        <pt x="376" y="322" on="1"/>
        <pt x="396" y="316" on="0"/>
        <pt x="396" y="303" on="1"/>
        <pt x="396" y="299" on="0"/>
        <pt x="394" y="289" on="1"/>
        <pt x="390" y="269" on="0"/>
        <pt x="377" y="253" on="1"/>
      </contour>
    </TTGlyph>
    <TTGlyph name="aring" xMin="43" yMin="-7" xMax="426" yMax="743">
      <component glyphName="a" x="0" y="0" flags="0x0"/>
      <component glyphName="uni030A" x="236" y="0" flags="0x0"/>
    </TTGlyph>
    <TTGlyph name="aringacute" xMin="43" yMin="-7" xMax="426" yMax="922">
      <component glyphName="a" x="0" y="0" flags="0x0"/>
      <component glyphName="uni030A" x="236" y="0" flags="0x0"/>
      <component glyphName="acutecomb" x="284" y="189" flags="0x4"/>
    </TTGlyph>
    <TTGlyph name="arrowdown" xMin="6" yMin="9" xMax="500" yMax="706">
      <contour>
        <pt x="242" y="9" on="0"/>
        <pt x="235" y="16" on="1"/>
        <pt x="24" y="228" on="1"/>
        <pt x="6" y="246" on="0"/>
        <pt x="6" y="273" on="1"/>
        <pt x="6" y="349" on="1"/>
        <pt x="6" y="368" on="0"/>
        <pt x="13" y="368" on="1"/>
        <pt x="17" y="368" on="0"/>
        <pt x="27" y="358" on="1"/>
        <pt x="205" y="175" on="1"/>
        <pt x="205" y="678" on="1"/>
        <pt x="205" y="706" on="0"/>
        <pt x="244" y="706" on="1"/>
        <pt x="260" y="706" on="1"/>
        <pt x="299" y="706" on="0"/>
        <pt x="299" y="678" on="1"/>
        <pt x="299" y="175" on="1"/>
        <pt x="479" y="358" on="1"/>
        <pt x="489" y="368" on="0"/>
        <pt x="493" y="368" on="1"/>
        <pt x="500" y="368" on="0"/>
        <pt x="500" y="349" on="1"/>
        <pt x="500" y="274" on="1"/>
        <pt x="500" y="248" on="0"/>
        <pt x="481" y="228" on="1"/>
        <pt x="271" y="16" on="1"/>
        <pt x="264" y="9" on="0"/>
        <pt x="253" y="9" on="1"/>
      </contour>
    </TTGlyph>
    <TTGlyph name="arrowleft" xMin="1" yMin="0" xMax="591" yMax="528">
      <contour>
        <pt x="223" y="0" on="0"/>
        <pt x="203" y="9" on="0"/>
        <pt x="195" y="19" on="1"/>
        <pt x="7" y="246" on="1"/>
        <pt x="1" y="255" on="0"/>
        <pt x="1" y="264" on="1"/>
        <pt x="1" y="275" on="0"/>
        <pt x="7" y="282" on="1"/>
        <pt x="194" y="509" on="1"/>
        <pt x="203" y="519" on="0"/>
        <pt x="223" y="528" on="0"/>
        <pt x="238" y="528" on="1"/>
        <pt x="293" y="528" on="1"/>
        <pt x="318" y="528" on="0"/>
        <pt x="318" y="519" on="1"/>
        <pt x="318" y="513" on="0"/>
        <pt x="304" y="496" on="1"/>
        <pt x="151" y="311" on="1"/>
        <pt x="563" y="311" on="1"/>
        <pt x="591" y="311" on="0"/>
        <pt x="591" y="272" on="1"/>
        <pt x="591" y="256" on="1"/>
        <pt x="591" y="217" on="0"/>
        <pt x="563" y="217" on="1"/>
        <pt x="151" y="217" on="1"/>
        <pt x="306" y="31" on="1"/>
        <pt x="319" y="15" on="0"/>
        <pt x="319" y="9" on="1"/>
        <pt x="319" y="0" on="0"/>
        <pt x="294" y="0" on="1"/>
        <pt x="239" y="0" on="1"/>
      </contour>
    </TTGlyph>
    <TTGlyph name="arrowright" xMin="9" yMin="0" xMax="599" yMax="528">
      <contour>
        <pt x="294" y="0" on="0"/>
        <pt x="282" y="4" on="0"/>
        <pt x="282" y="9" on="1"/>
        <pt x="282" y="15" on="0"/>
        <pt x="294" y="31" on="1"/>
        <pt x="449" y="217" on="1"/>
        <pt x="37" y="217" on="1"/>
        <pt x="9" y="217" on="0"/>
        <pt x="9" y="256" on="1"/>
        <pt x="9" y="272" on="1"/>
        <pt x="9" y="311" on="0"/>
        <pt x="37" y="311" on="1"/>
        <pt x="449" y="311" on="1"/>
        <pt x="296" y="496" on="1"/>
        <pt x="282" y="513" on="0"/>
        <pt x="282" y="519" on="1"/>
        <pt x="282" y="528" on="0"/>
        <pt x="307" y="528" on="1"/>
        <pt x="362" y="528" on="1"/>
        <pt x="377" y="528" on="0"/>
        <pt x="397" y="519" on="0"/>
        <pt x="406" y="509" on="1"/>
        <pt x="593" y="282" on="1"/>
        <pt x="599" y="275" on="0"/>
        <pt x="599" y="264" on="1"/>
        <pt x="599" y="253" on="0"/>
        <pt x="593" y="246" on="1"/>
        <pt x="406" y="19" on="1"/>
        <pt x="397" y="9" on="0"/>
        <pt x="377" y="0" on="0"/>
        <pt x="362" y="0" on="1"/>
        <pt x="307" y="0" on="1"/>
      </contour>
    </TTGlyph>
    <TTGlyph name="arrowup" xMin="5" yMin="-3" xMax="499" yMax="709">
      <contour>
        <pt x="205" y="-3" on="0"/>
        <pt x="205" y="26" on="1"/>
        <pt x="205" y="543" on="1"/>
        <pt x="26" y="360" on="1"/>
        <pt x="16" y="350" on="0"/>
        <pt x="12" y="350" on="1"/>
        <pt x="5" y="350" on="0"/>
        <pt x="5" y="369" on="1"/>
        <pt x="5" y="444" on="1"/>
        <pt x="5" y="458" on="0"/>
        <pt x="14" y="480" on="0"/>
        <pt x="24" y="490" on="1"/>
        <pt x="234" y="702" on="1"/>
        <pt x="241" y="709" on="0"/>
        <pt x="252" y="709" on="1"/>
        <pt x="263" y="709" on="0"/>
        <pt x="270" y="702" on="1"/>
        <pt x="480" y="490" on="1"/>
        <pt x="490" y="480" on="0"/>
        <pt x="499" y="459" on="0"/>
        <pt x="499" y="445" on="1"/>
        <pt x="499" y="369" on="1"/>
        <pt x="499" y="350" on="0"/>
        <pt x="492" y="350" on="1"/>
        <pt x="488" y="350" on="0"/>
        <pt x="478" y="360" on="1"/>
        <pt x="299" y="543" on="1"/>
        <pt x="299" y="26" on="1"/>
        <pt x="299" y="-3" on="0"/>
        <pt x="260" y="-3" on="1"/>
        <pt x="244" y="-3" on="1"/>
      </contour>
    </TTGlyph>
    <TTGlyph name="asciicircum" xMin="25" yMin="319" xMax="335" yMax="685">
      <contour>
        <pt x="25" y="319" on="0"/>
        <pt x="25" y="336" on="1"/>
        <pt x="25" y="343" on="0"/>
        <pt x="28" y="350" on="1"/>
        <pt x="133" y="659" on="1"/>
        <pt x="141" y="685" on="0"/>
        <pt x="167" y="685" on="1"/>
        <pt x="194" y="685" on="1"/>
        <pt x="220" y="685" on="0"/>
        <pt x="228" y="659" on="1"/>
        <pt x="333" y="350" on="1"/>
        <pt x="335" y="340" on="0"/>
        <pt x="335" y="336" on="1"/>
        <pt x="335" y="319" on="0"/>
        <pt x="309" y="319" on="1"/>
        <pt x="290" y="319" on="1"/>
        <pt x="256" y="319" on="0"/>
        <pt x="247" y="346" on="1"/>
        <pt x="180" y="572" on="1"/>
        <pt x="113" y="346" on="1"/>
        <pt x="104" y="319" on="0"/>
        <pt x="72" y="319" on="1"/>
        <pt x="52" y="319" on="1"/>
      </contour>
    </TTGlyph>
    <TTGlyph name="asciitilde" xMin="41" yMin="217" xMax="402" yMax="331">
      <contour>
        <pt x="62" y="223" on="1"/>
        <pt x="41" y="228" on="0"/>
        <pt x="41" y="244" on="1"/>
        <pt x="41" y="250" on="0"/>
        <pt x="45" y="259" on="1"/>
        <pt x="59" y="291" on="0"/>
        <pt x="112" y="328" on="0"/>
        <pt x="148" y="328" on="1"/>
        <pt x="172" y="328" on="0"/>
        <pt x="226" y="310" on="1"/>
        <pt x="271" y="295" on="0"/>
        <pt x="290" y="295" on="1"/>
        <pt x="299" y="295" on="0"/>
        <pt x="315" y="303" on="0"/>
        <pt x="325" y="314" on="1"/>
        <pt x="337" y="331" on="0"/>
        <pt x="354" y="331" on="1"/>
        <pt x="362" y="331" on="0"/>
        <pt x="369" y="328" on="1"/>
        <pt x="381" y="325" on="1"/>
        <pt x="402" y="319" on="0"/>
        <pt x="402" y="304" on="1"/>
        <pt x="402" y="297" on="0"/>
        <pt x="399" y="289" on="1"/>
        <pt x="384" y="257" on="0"/>
        <pt x="331" y="220" on="0"/>
        <pt x="296" y="220" on="1"/>
        <pt x="269" y="220" on="0"/>
        <pt x="215" y="238" on="1"/>
        <pt x="170" y="253" on="0"/>
        <pt x="152" y="253" on="1"/>
        <pt x="133" y="253" on="0"/>
        <pt x="118" y="233" on="1"/>
        <pt x="105" y="217" on="0"/>
        <pt x="90" y="217" on="1"/>
        <pt x="85" y="217" on="0"/>
        <pt x="75" y="219" on="1"/>
      </contour>
    </TTGlyph>
    <TTGlyph name="asterisk" xMin="18" yMin="420" xMax="277" yMax="708">
      <contour>
        <pt x="69" y="420" on="0"/>
        <pt x="48" y="436" on="0"/>
        <pt x="48" y="444" on="1"/>
        <pt x="48" y="446" on="1"/>
        <pt x="48" y="453" on="0"/>
        <pt x="56" y="464" on="1"/>
        <pt x="106" y="547" on="1"/>
        <pt x="37" y="573" on="1"/>
        <pt x="27" y="578" on="0"/>
        <pt x="18" y="587" on="0"/>
        <pt x="18" y="594" on="1"/>
        <pt x="18" y="606" on="0"/>
        <pt x="30" y="626" on="0"/>
        <pt x="42" y="626" on="1"/>
        <pt x="51" y="626" on="0"/>
        <pt x="57" y="623" on="1"/>
        <pt x="121" y="599" on="1"/>
        <pt x="121" y="682" on="1"/>
        <pt x="121" y="708" on="0"/>
        <pt x="147" y="708" on="1"/>
        <pt x="161" y="708" on="0"/>
        <pt x="174" y="696" on="0"/>
        <pt x="174" y="682" on="1"/>
        <pt x="174" y="599" on="1"/>
        <pt x="237" y="623" on="1"/>
        <pt x="243" y="626" on="0"/>
        <pt x="251" y="626" on="1"/>
        <pt x="262" y="626" on="0"/>
        <pt x="277" y="607" on="0"/>
        <pt x="277" y="594" on="1"/>
        <pt x="277" y="587" on="0"/>
        <pt x="268" y="578" on="0"/>
        <pt x="257" y="573" on="1"/>
        <pt x="187" y="547" on="1"/>
        <pt x="239" y="464" on="1"/>
        <pt x="246" y="453" on="0"/>
        <pt x="246" y="444" on="1"/>
        <pt x="246" y="436" on="0"/>
        <pt x="225" y="420" on="0"/>
        <pt x="216" y="420" on="1"/>
        <pt x="204" y="422" on="0"/>
        <pt x="196" y="435" on="1"/>
        <pt x="147" y="511" on="1"/>
        <pt x="99" y="435" on="1"/>
        <pt x="91" y="422" on="0"/>
        <pt x="78" y="420" on="1"/>
      </contour>
    </TTGlyph>
    <TTGlyph name="at" xMin="55" yMin="-124" xMax="727" yMax="707">
      <contour>
        <pt x="526" y="707" on="0"/>
        <pt x="656" y="626" on="0"/>
        <pt x="727" y="478" on="0"/>
        <pt x="727" y="380" on="1"/>
        <pt x="727" y="291" on="0"/>
        <pt x="674" y="143" on="0"/>
        <pt x="579" y="57" on="0"/>
        <pt x="521" y="57" on="1"/>
        <pt x="483" y="57" on="0"/>
        <pt x="435" y="91" on="0"/>
        <pt x="427" y="121" on="1"/>
        <pt x="411" y="91" on="0"/>
        <pt x="358" y="57" on="0"/>
        <pt x="326" y="57" on="1"/>
        <pt x="277" y="57" on="0"/>
        <pt x="212" y="148" on="0"/>
        <pt x="212" y="238" on="1"/>
        <pt x="212" y="317" on="0"/>
        <pt x="253" y="439" on="0"/>
        <pt x="327" y="507" on="0"/>
        <pt x="375" y="507" on="1"/>
        <pt x="403" y="507" on="0"/>
        <pt x="448" y="481" on="0"/>
        <pt x="462" y="464" on="1"/>
        <pt x="469" y="488" on="0"/>
        <pt x="485" y="503" on="0"/>
        <pt x="506" y="503" on="1"/>
        <pt x="516" y="503" on="1"/>
        <pt x="555" y="503" on="0"/>
        <pt x="555" y="480" on="1"/>
        <pt x="546" y="376" on="1"/>
        <pt x="528" y="183" on="0"/>
        <pt x="528" y="164" on="1"/>
        <pt x="528" y="146" on="0"/>
        <pt x="545" y="129" on="0"/>
        <pt x="558" y="129" on="1"/>
        <pt x="586" y="129" on="0"/>
        <pt x="636" y="199" on="0"/>
        <pt x="666" y="314" on="0"/>
        <pt x="666" y="379" on="1"/>
        <pt x="666" y="463" on="0"/>
        <pt x="609" y="588" on="0"/>
        <pt x="507" y="656" on="0"/>
        <pt x="439" y="656" on="1"/>
        <pt x="350" y="656" on="0"/>
        <pt x="202" y="545" on="0"/>
        <pt x="116" y="354" on="0"/>
        <pt x="116" y="237" on="1"/>
        <pt x="116" y="145" on="0"/>
        <pt x="170" y="4" on="0"/>
        <pt x="270" y="-74" on="0"/>
        <pt x="335" y="-74" on="1"/>
        <pt x="367" y="-74" on="0"/>
        <pt x="412" y="-62" on="0"/>
        <pt x="434" y="-52" on="1"/>
        <pt x="453" y="-45" on="0"/>
        <pt x="458" y="-45" on="1"/>
        <pt x="472" y="-45" on="0"/>
        <pt x="472" y="-74" on="1"/>
        <pt x="472" y="-100" on="0"/>
        <pt x="376" y="-124" on="0"/>
        <pt x="330" y="-124" on="1"/>
        <pt x="249" y="-124" on="0"/>
        <pt x="124" y="-32" on="0"/>
        <pt x="55" y="132" on="0"/>
        <pt x="55" y="238" on="1"/>
        <pt x="55" y="368" on="0"/>
        <pt x="157" y="583" on="0"/>
        <pt x="334" y="707" on="0"/>
        <pt x="441" y="707" on="1"/>
      </contour>
      <contour>
        <pt x="428" y="248" on="0"/>
        <pt x="438" y="367" on="0"/>
        <pt x="444" y="399" on="1"/>
        <pt x="424" y="421" on="0"/>
        <pt x="398" y="421" on="1"/>
        <pt x="358" y="421" on="0"/>
        <pt x="319" y="328" on="0"/>
        <pt x="319" y="245" on="1"/>
        <pt x="319" y="189" on="0"/>
        <pt x="343" y="144" on="0"/>
        <pt x="366" y="144" on="1"/>
        <pt x="382" y="144" on="0"/>
        <pt x="414" y="173" on="0"/>
        <pt x="426" y="202" on="1"/>
      </contour>
    </TTGlyph>
    <TTGlyph name="atilde" xMin="43" yMin="-7" xMax="426" yMax="696">
      <component glyphName="a" x="0" y="0" flags="0x0"/>
      <component glyphName="tildecomb" x="241" y="0" flags="0x0"/>
    </TTGlyph>
    <TTGlyph name="b" xMin="60" yMin="-7" xMax="443" yMax="753">
      <contour>
        <pt x="255" y="-7" on="0"/>
        <pt x="194" y="31" on="0"/>
        <pt x="176" y="64" on="1"/>
        <pt x="167" y="19" on="1"/>
        <pt x="163" y="7" on="0"/>
        <pt x="140" y="-2" on="0"/>
        <pt x="120" y="-2" on="1"/>
        <pt x="110" y="-2" on="1"/>
        <pt x="60" y="-2" on="0"/>
        <pt x="60" y="27" on="1"/>
        <pt x="60" y="725" on="1"/>
        <pt x="60" y="753" on="0"/>
        <pt x="112" y="753" on="1"/>
        <pt x="134" y="753" on="1"/>
        <pt x="186" y="753" on="0"/>
        <pt x="186" y="725" on="1"/>
        <pt x="186" y="493" on="1"/>
        <pt x="223" y="530" on="0"/>
        <pt x="277" y="530" on="1"/>
        <pt x="355" y="530" on="0"/>
        <pt x="443" y="391" on="0"/>
        <pt x="443" y="262" on="1"/>
        <pt x="443" y="179" on="0"/>
        <pt x="405" y="57" on="0"/>
        <pt x="335" y="-7" on="0"/>
        <pt x="289" y="-7" on="1"/>
      </contour>
      <contour>
        <pt x="283" y="97" on="0"/>
        <pt x="314" y="177" on="0"/>
        <pt x="314" y="263" on="1"/>
        <pt x="314" y="351" on="0"/>
        <pt x="279" y="428" on="0"/>
        <pt x="243" y="428" on="1"/>
        <pt x="211" y="428" on="0"/>
        <pt x="186" y="403" on="1"/>
        <pt x="186" y="143" on="1"/>
        <pt x="215" y="97" on="0"/>
        <pt x="250" y="97" on="1"/>
      </contour>
    </TTGlyph>
    <TTGlyph name="backslash" xMin="0" yMin="-21" xMax="283" yMax="702">
      <contour>
        <pt x="188" y="-21" on="0"/>
        <pt x="181" y="6" on="1"/>
        <pt x="4" y="658" on="1"/>
        <pt x="0" y="679" on="0"/>
        <pt x="0" y="681" on="1"/>
        <pt x="2" y="702" on="0"/>
        <pt x="33" y="702" on="1"/>
        <pt x="60" y="702" on="1"/>
        <pt x="94" y="702" on="0"/>
        <pt x="101" y="674" on="1"/>
        <pt x="279" y="27" on="1"/>
        <pt x="283" y="2" on="0"/>
        <pt x="283" y="0" on="1"/>
        <pt x="283" y="-10" on="0"/>
        <pt x="267" y="-21" on="0"/>
        <pt x="251" y="-21" on="1"/>
        <pt x="222" y="-21" on="1"/>
      </contour>
    </TTGlyph>
    <TTGlyph name="bar" xMin="51" yMin="-139" xMax="151" yMax="769">
      <contour>
        <pt x="72" y="-139" on="0"/>
        <pt x="51" y="-125" on="0"/>
        <pt x="51" y="-111" on="1"/>
        <pt x="51" y="741" on="1"/>
        <pt x="51" y="755" on="0"/>
        <pt x="72" y="769" on="0"/>
        <pt x="95" y="769" on="1"/>
        <pt x="107" y="769" on="1"/>
        <pt x="131" y="769" on="0"/>
        <pt x="151" y="756" on="0"/>
        <pt x="151" y="741" on="1"/>
        <pt x="151" y="-111" on="1"/>
        <pt x="151" y="-126" on="0"/>
        <pt x="131" y="-139" on="0"/>
        <pt x="107" y="-139" on="1"/>
        <pt x="95" y="-139" on="1"/>
      </contour>
    </TTGlyph>
    <TTGlyph name="braceleft" xMin="14" yMin="-138" xMax="240" yMax="768">
      <contour>
        <pt x="134" y="-138" on="0"/>
        <pt x="80" y="-77" on="0"/>
        <pt x="80" y="-22" on="1"/>
        <pt x="80" y="161" on="1"/>
        <pt x="80" y="206" on="0"/>
        <pt x="63" y="253" on="0"/>
        <pt x="41" y="264" on="1"/>
        <pt x="27" y="272" on="0"/>
        <pt x="14" y="292" on="0"/>
        <pt x="14" y="309" on="1"/>
        <pt x="14" y="321" on="1"/>
        <pt x="14" y="338" on="0"/>
        <pt x="27" y="358" on="0"/>
        <pt x="41" y="366" on="1"/>
        <pt x="63" y="377" on="0"/>
        <pt x="80" y="424" on="0"/>
        <pt x="80" y="469" on="1"/>
        <pt x="80" y="652" on="1"/>
        <pt x="80" y="707" on="0"/>
        <pt x="134" y="768" on="0"/>
        <pt x="172" y="768" on="1"/>
        <pt x="213" y="768" on="1"/>
        <pt x="227" y="768" on="0"/>
        <pt x="240" y="751" on="0"/>
        <pt x="240" y="732" on="1"/>
        <pt x="240" y="721" on="1"/>
        <pt x="240" y="703" on="0"/>
        <pt x="229" y="686" on="0"/>
        <pt x="216" y="685" on="1"/>
        <pt x="211" y="685" on="1"/>
        <pt x="194" y="685" on="0"/>
        <pt x="181" y="664" on="0"/>
        <pt x="181" y="640" on="1"/>
        <pt x="181" y="453" on="1"/>
        <pt x="181" y="402" on="0"/>
        <pt x="144" y="330" on="0"/>
        <pt x="118" y="315" on="1"/>
        <pt x="143" y="300" on="0"/>
        <pt x="181" y="229" on="0"/>
        <pt x="181" y="177" on="1"/>
        <pt x="181" y="-10" on="1"/>
        <pt x="181" y="-33" on="0"/>
        <pt x="193" y="-55" on="0"/>
        <pt x="208" y="-55" on="1"/>
        <pt x="215" y="-55" on="1"/>
        <pt x="228" y="-56" on="0"/>
        <pt x="240" y="-73" on="0"/>
        <pt x="240" y="-91" on="1"/>
        <pt x="240" y="-102" on="1"/>
        <pt x="240" y="-121" on="0"/>
        <pt x="227" y="-138" on="0"/>
        <pt x="213" y="-138" on="1"/>
        <pt x="172" y="-138" on="1"/>
      </contour>
    </TTGlyph>
    <TTGlyph name="braceright" xMin="16" yMin="-138" xMax="242" yMax="768">
      <contour>
        <pt x="28" y="-138" on="0"/>
        <pt x="16" y="-121" on="0"/>
        <pt x="16" y="-102" on="1"/>
        <pt x="16" y="-91" on="1"/>
        <pt x="16" y="-73" on="0"/>
        <pt x="28" y="-56" on="0"/>
        <pt x="41" y="-55" on="1"/>
        <pt x="47" y="-55" on="1"/>
        <pt x="62" y="-55" on="0"/>
        <pt x="75" y="-33" on="0"/>
        <pt x="75" y="-10" on="1"/>
        <pt x="75" y="177" on="1"/>
        <pt x="75" y="229" on="0"/>
        <pt x="112" y="300" on="0"/>
        <pt x="137" y="315" on="1"/>
        <pt x="111" y="330" on="0"/>
        <pt x="75" y="402" on="0"/>
        <pt x="75" y="453" on="1"/>
        <pt x="75" y="640" on="1"/>
        <pt x="75" y="664" on="0"/>
        <pt x="62" y="685" on="0"/>
        <pt x="45" y="685" on="1"/>
        <pt x="40" y="685" on="1"/>
        <pt x="27" y="686" on="0"/>
        <pt x="16" y="703" on="0"/>
        <pt x="16" y="721" on="1"/>
        <pt x="16" y="732" on="1"/>
        <pt x="16" y="751" on="0"/>
        <pt x="28" y="768" on="0"/>
        <pt x="42" y="768" on="1"/>
        <pt x="83" y="768" on="1"/>
        <pt x="121" y="768" on="0"/>
        <pt x="175" y="707" on="0"/>
        <pt x="175" y="652" on="1"/>
        <pt x="175" y="469" on="1"/>
        <pt x="175" y="424" on="0"/>
        <pt x="192" y="377" on="0"/>
        <pt x="214" y="366" on="1"/>
        <pt x="229" y="358" on="0"/>
        <pt x="242" y="338" on="0"/>
        <pt x="242" y="321" on="1"/>
        <pt x="242" y="309" on="1"/>
        <pt x="242" y="292" on="0"/>
        <pt x="229" y="272" on="0"/>
        <pt x="214" y="264" on="1"/>
        <pt x="192" y="253" on="0"/>
        <pt x="175" y="206" on="0"/>
        <pt x="175" y="161" on="1"/>
        <pt x="175" y="-22" on="1"/>
        <pt x="175" y="-77" on="0"/>
        <pt x="121" y="-138" on="0"/>
        <pt x="83" y="-138" on="1"/>
        <pt x="42" y="-138" on="1"/>
      </contour>
    </TTGlyph>
    <TTGlyph name="bracketleft" xMin="55" yMin="-138" xMax="218" yMax="768">
      <contour>
        <pt x="71" y="-138" on="0"/>
        <pt x="55" y="-120" on="0"/>
        <pt x="55" y="-101" on="1"/>
        <pt x="55" y="731" on="1"/>
        <pt x="55" y="750" on="0"/>
        <pt x="71" y="768" on="0"/>
        <pt x="88" y="768" on="1"/>
        <pt x="193" y="768" on="1"/>
        <pt x="206" y="768" on="0"/>
        <pt x="218" y="751" on="0"/>
        <pt x="218" y="732" on="1"/>
        <pt x="218" y="720" on="1"/>
        <pt x="218" y="701" on="0"/>
        <pt x="206" y="684" on="0"/>
        <pt x="193" y="684" on="1"/>
        <pt x="153" y="684" on="1"/>
        <pt x="153" y="-54" on="1"/>
        <pt x="193" y="-54" on="1"/>
        <pt x="206" y="-54" on="0"/>
        <pt x="218" y="-71" on="0"/>
        <pt x="218" y="-91" on="1"/>
        <pt x="218" y="-102" on="1"/>
        <pt x="218" y="-121" on="0"/>
        <pt x="206" y="-138" on="0"/>
        <pt x="193" y="-138" on="1"/>
        <pt x="88" y="-138" on="1"/>
      </contour>
    </TTGlyph>
    <TTGlyph name="bracketright" xMin="21" yMin="-138" xMax="185" yMax="768">
      <contour>
        <pt x="33" y="-138" on="0"/>
        <pt x="21" y="-121" on="0"/>
        <pt x="21" y="-102" on="1"/>
        <pt x="21" y="-91" on="1"/>
        <pt x="21" y="-72" on="0"/>
        <pt x="33" y="-54" on="0"/>
        <pt x="47" y="-54" on="1"/>
        <pt x="87" y="-54" on="1"/>
        <pt x="87" y="684" on="1"/>
        <pt x="47" y="684" on="1"/>
        <pt x="33" y="684" on="0"/>
        <pt x="21" y="701" on="0"/>
        <pt x="21" y="720" on="1"/>
        <pt x="21" y="732" on="1"/>
        <pt x="21" y="751" on="0"/>
        <pt x="33" y="768" on="0"/>
        <pt x="47" y="768" on="1"/>
        <pt x="152" y="768" on="1"/>
        <pt x="169" y="768" on="0"/>
        <pt x="185" y="750" on="0"/>
        <pt x="185" y="731" on="1"/>
        <pt x="185" y="-101" on="1"/>
        <pt x="185" y="-120" on="0"/>
        <pt x="169" y="-138" on="0"/>
        <pt x="152" y="-138" on="1"/>
        <pt x="47" y="-138" on="1"/>
      </contour>
    </TTGlyph>
    <TTGlyph name="breve" xMin="1" yMin="578" xMax="252" yMax="715">
      <contour>
        <pt x="68" y="578" on="0"/>
        <pt x="1" y="641" on="0"/>
        <pt x="1" y="688" on="1"/>
        <pt x="1" y="715" on="0"/>
        <pt x="33" y="715" on="1"/>
        <pt x="43" y="715" on="0"/>
        <pt x="55" y="705" on="0"/>
        <pt x="60" y="695" on="1"/>
        <pt x="69" y="678" on="0"/>
        <pt x="96" y="661" on="0"/>
        <pt x="127" y="661" on="1"/>
        <pt x="160" y="661" on="0"/>
        <pt x="187" y="680" on="0"/>
        <pt x="195" y="696" on="1"/>
        <pt x="202" y="715" on="0"/>
        <pt x="220" y="715" on="1"/>
        <pt x="252" y="715" on="0"/>
        <pt x="252" y="688" on="1"/>
        <pt x="252" y="642" on="0"/>
        <pt x="185" y="578" on="0"/>
        <pt x="126" y="578" on="1"/>
      </contour>
    </TTGlyph>
    <TTGlyph name="brokenbar" xMin="51" yMin="-140" xMax="151" yMax="770">
      <contour>
        <pt x="51" y="388" on="0"/>
        <pt x="51" y="417" on="1"/>
        <pt x="51" y="741" on="1"/>
        <pt x="51" y="770" on="0"/>
        <pt x="95" y="770" on="1"/>
        <pt x="107" y="770" on="1"/>
        <pt x="130" y="770" on="0"/>
        <pt x="151" y="756" on="0"/>
        <pt x="151" y="741" on="1"/>
        <pt x="151" y="417" on="1"/>
        <pt x="151" y="402" on="0"/>
        <pt x="130" y="388" on="0"/>
        <pt x="107" y="388" on="1"/>
        <pt x="95" y="388" on="1"/>
      </contour>
      <contour>
        <pt x="51" y="-140" on="0"/>
        <pt x="51" y="-111" on="1"/>
        <pt x="51" y="213" on="1"/>
        <pt x="51" y="242" on="0"/>
        <pt x="95" y="242" on="1"/>
        <pt x="107" y="242" on="1"/>
        <pt x="130" y="242" on="0"/>
        <pt x="151" y="228" on="0"/>
        <pt x="151" y="213" on="1"/>
        <pt x="151" y="-111" on="1"/>
        <pt x="151" y="-126" on="0"/>
        <pt x="130" y="-140" on="0"/>
        <pt x="107" y="-140" on="1"/>
        <pt x="95" y="-140" on="1"/>
      </contour>
    </TTGlyph>
    <TTGlyph name="bullet" xMin="30" yMin="197" xMax="268" yMax="456">
      <contour>
        <pt x="97" y="197" on="0"/>
        <pt x="30" y="263" on="0"/>
        <pt x="30" y="326" on="1"/>
        <pt x="30" y="389" on="0"/>
        <pt x="97" y="456" on="0"/>
        <pt x="149" y="456" on="1"/>
        <pt x="201" y="456" on="0"/>
        <pt x="268" y="389" on="0"/>
        <pt x="268" y="326" on="1"/>
        <pt x="268" y="263" on="0"/>
        <pt x="201" y="197" on="0"/>
        <pt x="149" y="197" on="1"/>
      </contour>
    </TTGlyph>
    <TTGlyph name="c" xMin="38" yMin="-7" xMax="393" yMax="530">
      <contour>
        <pt x="143" y="-7" on="0"/>
        <pt x="38" y="124" on="0"/>
        <pt x="38" y="261" on="1"/>
        <pt x="38" y="399" on="0"/>
        <pt x="145" y="530" on="0"/>
        <pt x="251" y="530" on="1"/>
        <pt x="304" y="530" on="0"/>
        <pt x="389" y="493" on="0"/>
        <pt x="389" y="469" on="1"/>
        <pt x="389" y="453" on="0"/>
        <pt x="361" y="401" on="0"/>
        <pt x="349" y="401" on="1"/>
        <pt x="345" y="401" on="0"/>
        <pt x="333" y="408" on="1"/>
        <pt x="315" y="418" on="0"/>
        <pt x="284" y="429" on="0"/>
        <pt x="262" y="429" on="1"/>
        <pt x="215" y="429" on="0"/>
        <pt x="168" y="352" on="0"/>
        <pt x="168" y="263" on="1"/>
        <pt x="168" y="173" on="0"/>
        <pt x="212" y="94" on="0"/>
        <pt x="261" y="94" on="1"/>
        <pt x="285" y="94" on="0"/>
        <pt x="318" y="106" on="0"/>
        <pt x="336" y="115" on="1"/>
        <pt x="340" y="117" on="0"/>
        <pt x="350" y="123" on="0"/>
        <pt x="353" y="123" on="1"/>
        <pt x="366" y="123" on="0"/>
        <pt x="393" y="72" on="0"/>
        <pt x="393" y="55" on="1"/>
        <pt x="393" y="39" on="0"/>
        <pt x="346" y="10" on="0"/>
        <pt x="277" y="-7" on="0"/>
        <pt x="249" y="-7" on="1"/>
      </contour>
    </TTGlyph>
    <TTGlyph name="cacute" xMin="38" yMin="-7" xMax="393" yMax="733">
      <component glyphName="c" x="0" y="0" flags="0x0"/>
      <component glyphName="acutecomb" x="277" y="0" flags="0x0"/>
    </TTGlyph>
    <TTGlyph name="cacute.loclPLK" xMin="38" yMin="-7" xMax="393" yMax="733">
      <component glyphName="c" x="0" y="0" flags="0x0"/>
      <component glyphName="acute.loclPLK" x="143" y="0" flags="0x0"/>
    </TTGlyph>
    <TTGlyph name="caron" xMin="7" yMin="576" xMax="244" yMax="720">
      <contour>
        <pt x="101" y="576" on="0"/>
        <pt x="77" y="585" on="0"/>
        <pt x="70" y="596" on="1"/>
        <pt x="14" y="692" on="1"/>
        <pt x="7" y="703" on="0"/>
        <pt x="7" y="709" on="1"/>
        <pt x="7" y="720" on="0"/>
        <pt x="27" y="720" on="1"/>
        <pt x="51" y="720" on="1"/>
        <pt x="80" y="720" on="0"/>
        <pt x="93" y="703" on="1"/>
        <pt x="125" y="648" on="1"/>
        <pt x="158" y="703" on="1"/>
        <pt x="167" y="720" on="0"/>
        <pt x="200" y="720" on="1"/>
        <pt x="225" y="720" on="1"/>
        <pt x="244" y="720" on="0"/>
        <pt x="244" y="709" on="1"/>
        <pt x="244" y="704" on="0"/>
        <pt x="238" y="692" on="1"/>
        <pt x="180" y="596" on="1"/>
        <pt x="173" y="585" on="0"/>
        <pt x="149" y="576" on="0"/>
        <pt x="130" y="576" on="1"/>
        <pt x="121" y="576" on="1"/>
      </contour>
    </TTGlyph>
    <TTGlyph name="caron.alt" xMin="37" yMin="516" xMax="152" yMax="700">
      <contour>
        <pt x="61" y="516" on="0"/>
        <pt x="37" y="526" on="0"/>
        <pt x="37" y="536" on="1"/>
        <pt x="37" y="555" on="0"/>
        <pt x="39" y="583" on="0"/>
        <pt x="40" y="593" on="1"/>
        <pt x="44" y="635" on="0"/>
        <pt x="44" y="660" on="1"/>
        <pt x="44" y="679" on="0"/>
        <pt x="67" y="700" on="0"/>
        <pt x="90" y="700" on="1"/>
        <pt x="106" y="700" on="1"/>
        <pt x="128" y="700" on="0"/>
        <pt x="152" y="679" on="0"/>
        <pt x="152" y="662" on="1"/>
        <pt x="152" y="627" on="0"/>
        <pt x="126" y="560" on="0"/>
        <pt x="89" y="517" on="0"/>
        <pt x="76" y="516" on="1"/>
      </contour>
    </TTGlyph>
    <TTGlyph name="ccaron" xMin="38" yMin="-7" xMax="393" yMax="720">
      <component glyphName="c" x="0" y="0" flags="0x0"/>
      <component glyphName="uni030C" x="224" y="0" flags="0x0"/>
    </TTGlyph>
    <TTGlyph name="ccedilla" xMin="38" yMin="-211" xMax="393" yMax="530">
      <contour>
        <pt x="393" y="35" on="0"/>
        <pt x="321" y="1" on="0"/>
        <pt x="277" y="-5" on="1"/>
        <pt x="264" y="-52" on="1"/>
        <pt x="293" y="-55" on="0"/>
        <pt x="331" y="-91" on="0"/>
        <pt x="331" y="-124" on="1"/>
        <pt x="331" y="-168" on="0"/>
        <pt x="275" y="-211" on="0"/>
        <pt x="229" y="-211" on="1"/>
        <pt x="190" y="-211" on="0"/>
        <pt x="128" y="-182" on="0"/>
        <pt x="128" y="-162" on="1"/>
        <pt x="128" y="-147" on="0"/>
        <pt x="146" y="-126" on="0"/>
        <pt x="155" y="-126" on="1"/>
        <pt x="161" y="-126" on="0"/>
        <pt x="179" y="-134" on="1"/>
        <pt x="205" y="-147" on="0"/>
        <pt x="221" y="-147" on="1"/>
        <pt x="232" y="-147" on="0"/>
        <pt x="247" y="-137" on="0"/>
        <pt x="247" y="-126" on="1"/>
        <pt x="247" y="-115" on="0"/>
        <pt x="234" y="-106" on="0"/>
        <pt x="220" y="-99" on="1"/>
        <pt x="197" y="-91" on="0"/>
        <pt x="197" y="-79" on="1"/>
        <pt x="197" y="-70" on="0"/>
        <pt x="220" y="-6" on="1"/>
        <pt x="129" y="3" on="0"/>
        <pt x="38" y="134" on="0"/>
        <pt x="38" y="261" on="1"/>
        <pt x="38" y="399" on="0"/>
        <pt x="145" y="530" on="0"/>
        <pt x="251" y="530" on="1"/>
        <pt x="304" y="530" on="0"/>
        <pt x="389" y="493" on="0"/>
        <pt x="389" y="469" on="1"/>
        <pt x="389" y="453" on="0"/>
        <pt x="361" y="401" on="0"/>
        <pt x="349" y="401" on="1"/>
        <pt x="345" y="401" on="0"/>
        <pt x="333" y="408" on="1"/>
        <pt x="315" y="418" on="0"/>
        <pt x="284" y="429" on="0"/>
        <pt x="262" y="429" on="1"/>
        <pt x="215" y="429" on="0"/>
        <pt x="168" y="352" on="0"/>
        <pt x="168" y="263" on="1"/>
        <pt x="168" y="173" on="0"/>
        <pt x="212" y="94" on="0"/>
        <pt x="261" y="94" on="1"/>
        <pt x="285" y="94" on="0"/>
        <pt x="318" y="106" on="0"/>
        <pt x="336" y="115" on="1"/>
        <pt x="340" y="117" on="0"/>
        <pt x="350" y="123" on="0"/>
        <pt x="353" y="123" on="1"/>
        <pt x="366" y="123" on="0"/>
        <pt x="393" y="72" on="0"/>
        <pt x="393" y="55" on="1"/>
      </contour>
    </TTGlyph>
    <TTGlyph name="ccircumflex" xMin="38" yMin="-7" xMax="393" yMax="718">
      <component glyphName="c" x="0" y="0" flags="0x0"/>
      <component glyphName="uni0302" x="228" y="0" flags="0x0"/>
    </TTGlyph>
    <TTGlyph name="cdotaccent" xMin="38" yMin="-7" xMax="393" yMax="702">
      <component glyphName="c" x="0" y="0" flags="0x0"/>
      <component glyphName="uni0307" x="230" y="0" flags="0x0"/>
    </TTGlyph>
    <TTGlyph name="cedilla" xMin="21" yMin="-211" xMax="224" yMax="7">
      <contour>
        <pt x="186" y="-55" on="0"/>
        <pt x="224" y="-91" on="0"/>
        <pt x="224" y="-124" on="1"/>
        <pt x="224" y="-168" on="0"/>
        <pt x="168" y="-211" on="0"/>
        <pt x="122" y="-211" on="1"/>
        <pt x="83" y="-211" on="0"/>
        <pt x="21" y="-182" on="0"/>
        <pt x="21" y="-162" on="1"/>
        <pt x="21" y="-147" on="0"/>
        <pt x="39" y="-126" on="0"/>
        <pt x="48" y="-126" on="1"/>
        <pt x="54" y="-126" on="0"/>
        <pt x="72" y="-134" on="1"/>
        <pt x="98" y="-147" on="0"/>
        <pt x="114" y="-147" on="1"/>
        <pt x="125" y="-147" on="0"/>
        <pt x="140" y="-137" on="0"/>
        <pt x="140" y="-126" on="1"/>
        <pt x="140" y="-115" on="0"/>
        <pt x="127" y="-106" on="0"/>
        <pt x="113" y="-99" on="1"/>
        <pt x="90" y="-91" on="0"/>
        <pt x="90" y="-79" on="1"/>
        <pt x="90" y="-73" on="0"/>
        <pt x="105" y="-28" on="0"/>
        <pt x="109" y="-15" on="1"/>
        <pt x="117" y="7" on="1"/>
        <pt x="173" y="7" on="1"/>
        <pt x="157" y="-52" on="1"/>
      </contour>
    </TTGlyph>
    <TTGlyph name="cent" xMin="38" yMin="-77" xMax="393" yMax="586">
      <contour>
        <pt x="393" y="33" on="0"/>
        <pt x="304" y="-5" on="0"/>
        <pt x="258" y="-7" on="1"/>
        <pt x="258" y="-52" on="1"/>
        <pt x="258" y="-77" on="0"/>
        <pt x="235" y="-77" on="1"/>
        <pt x="209" y="-77" on="0"/>
        <pt x="209" y="-52" on="1"/>
        <pt x="209" y="-4" on="1"/>
        <pt x="123" y="7" on="0"/>
        <pt x="38" y="138" on="0"/>
        <pt x="38" y="261" on="1"/>
        <pt x="38" y="385" on="0"/>
        <pt x="124" y="515" on="0"/>
        <pt x="209" y="527" on="1"/>
        <pt x="209" y="560" on="1"/>
        <pt x="209" y="586" on="0"/>
        <pt x="233" y="586" on="1"/>
        <pt x="258" y="586" on="0"/>
        <pt x="258" y="560" on="1"/>
        <pt x="258" y="530" on="1"/>
        <pt x="309" y="528" on="0"/>
        <pt x="389" y="493" on="0"/>
        <pt x="389" y="469" on="1"/>
        <pt x="389" y="453" on="0"/>
        <pt x="361" y="401" on="0"/>
        <pt x="349" y="401" on="1"/>
        <pt x="345" y="401" on="0"/>
        <pt x="333" y="408" on="1"/>
        <pt x="315" y="418" on="0"/>
        <pt x="284" y="429" on="0"/>
        <pt x="262" y="429" on="1"/>
        <pt x="258" y="429" on="1"/>
        <pt x="258" y="94" on="1"/>
        <pt x="261" y="94" on="1"/>
        <pt x="285" y="94" on="0"/>
        <pt x="318" y="106" on="0"/>
        <pt x="336" y="115" on="1"/>
        <pt x="340" y="117" on="0"/>
        <pt x="350" y="123" on="0"/>
        <pt x="353" y="123" on="1"/>
        <pt x="366" y="123" on="0"/>
        <pt x="393" y="72" on="0"/>
        <pt x="393" y="55" on="1"/>
      </contour>
      <contour>
        <pt x="168" y="202" on="0"/>
        <pt x="188" y="127" on="0"/>
        <pt x="209" y="110" on="1"/>
        <pt x="209" y="412" on="1"/>
        <pt x="168" y="377" on="0"/>
        <pt x="168" y="263" on="1"/>
      </contour>
    </TTGlyph>
    <TTGlyph name="circumflex" xMin="7" yMin="573" xMax="244" yMax="718">
      <contour>
        <pt x="7" y="573" on="0"/>
        <pt x="7" y="584" on="1"/>
        <pt x="7" y="590" on="0"/>
        <pt x="14" y="602" on="1"/>
        <pt x="70" y="698" on="1"/>
        <pt x="77" y="709" on="0"/>
        <pt x="102" y="718" on="0"/>
        <pt x="122" y="718" on="1"/>
        <pt x="128" y="718" on="1"/>
        <pt x="148" y="718" on="0"/>
        <pt x="173" y="709" on="0"/>
        <pt x="180" y="698" on="1"/>
        <pt x="238" y="602" on="1"/>
        <pt x="244" y="588" on="0"/>
        <pt x="244" y="585" on="1"/>
        <pt x="244" y="573" on="0"/>
        <pt x="225" y="573" on="1"/>
        <pt x="200" y="573" on="1"/>
        <pt x="167" y="573" on="0"/>
        <pt x="158" y="590" on="1"/>
        <pt x="125" y="645" on="1"/>
        <pt x="93" y="591" on="1"/>
        <pt x="81" y="573" on="0"/>
        <pt x="51" y="573" on="1"/>
        <pt x="27" y="573" on="1"/>
      </contour>
    </TTGlyph>
    <TTGlyph name="colon" xMin="29" yMin="-2" xMax="159" yMax="525">
      <contour>
        <pt x="29" y="385" on="0"/>
        <pt x="29" y="413" on="1"/>
        <pt x="29" y="496" on="1"/>
        <pt x="29" y="525" on="0"/>
        <pt x="80" y="525" on="1"/>
        <pt x="108" y="525" on="1"/>
        <pt x="159" y="525" on="0"/>
        <pt x="159" y="496" on="1"/>
        <pt x="159" y="413" on="1"/>
        <pt x="159" y="385" on="0"/>
        <pt x="108" y="385" on="1"/>
        <pt x="80" y="385" on="1"/>
      </contour>
      <contour>
        <pt x="29" y="-2" on="0"/>
        <pt x="29" y="27" on="1"/>
        <pt x="29" y="110" on="1"/>
        <pt x="29" y="138" on="0"/>
        <pt x="80" y="138" on="1"/>
        <pt x="108" y="138" on="1"/>
        <pt x="159" y="138" on="0"/>
        <pt x="159" y="110" on="1"/>
        <pt x="159" y="27" on="1"/>
        <pt x="159" y="-2" on="0"/>
        <pt x="108" y="-2" on="1"/>
        <pt x="80" y="-2" on="1"/>
      </contour>
    </TTGlyph>
    <TTGlyph name="comma" xMin="4" yMin="-122" xMax="158" yMax="138">
      <contour>
        <pt x="29" y="-122" on="0"/>
        <pt x="4" y="-112" on="0"/>
        <pt x="4" y="-102" on="1"/>
        <pt x="4" y="-97" on="0"/>
        <pt x="9" y="-79" on="0"/>
        <pt x="10" y="-72" on="1"/>
        <pt x="12" y="-66" on="0"/>
        <pt x="29" y="-11" on="0"/>
        <pt x="40" y="59" on="0"/>
        <pt x="40" y="98" on="1"/>
        <pt x="40" y="138" on="0"/>
        <pt x="91" y="138" on="1"/>
        <pt x="107" y="138" on="1"/>
        <pt x="133" y="138" on="0"/>
        <pt x="158" y="117" on="0"/>
        <pt x="158" y="100" on="1"/>
        <pt x="158" y="46" on="0"/>
        <pt x="117" y="-57" on="0"/>
        <pt x="62" y="-122" on="0"/>
        <pt x="42" y="-122" on="1"/>
      </contour>
    </TTGlyph>
    <TTGlyph name="copyright" xMin="10" yMin="-7" xMax="582" yMax="709">
      <contour>
        <pt x="216" y="-7" on="0"/>
        <pt x="86" y="76" on="0"/>
        <pt x="10" y="238" on="0"/>
        <pt x="10" y="351" on="1"/>
        <pt x="10" y="465" on="0"/>
        <pt x="86" y="626" on="0"/>
        <pt x="216" y="709" on="0"/>
        <pt x="296" y="709" on="1"/>
        <pt x="376" y="709" on="0"/>
        <pt x="506" y="626" on="0"/>
        <pt x="582" y="465" on="0"/>
        <pt x="582" y="351" on="1"/>
        <pt x="582" y="238" on="0"/>
        <pt x="506" y="76" on="0"/>
        <pt x="376" y="-7" on="0"/>
        <pt x="296" y="-7" on="1"/>
      </contour>
      <contour>
        <pt x="359" y="52" on="0"/>
        <pt x="461" y="119" on="0"/>
        <pt x="521" y="254" on="0"/>
        <pt x="521" y="351" on="1"/>
        <pt x="521" y="448" on="0"/>
        <pt x="461" y="583" on="0"/>
        <pt x="359" y="650" on="0"/>
        <pt x="296" y="650" on="1"/>
        <pt x="232" y="650" on="0"/>
        <pt x="130" y="583" on="0"/>
        <pt x="70" y="449" on="0"/>
        <pt x="70" y="351" on="1"/>
        <pt x="70" y="254" on="0"/>
        <pt x="130" y="119" on="0"/>
        <pt x="232" y="52" on="0"/>
        <pt x="296" y="52" on="1"/>
      </contour>
      <contour>
        <pt x="231" y="147" on="0"/>
        <pt x="160" y="247" on="0"/>
        <pt x="160" y="352" on="1"/>
        <pt x="160" y="555" on="0"/>
        <pt x="307" y="555" on="1"/>
        <pt x="339" y="555" on="0"/>
        <pt x="401" y="532" on="0"/>
        <pt x="401" y="517" on="1"/>
        <pt x="401" y="506" on="0"/>
        <pt x="379" y="470" on="0"/>
        <pt x="371" y="470" on="1"/>
        <pt x="369" y="470" on="0"/>
        <pt x="336" y="492" on="0"/>
        <pt x="306" y="492" on="1"/>
        <pt x="235" y="492" on="0"/>
        <pt x="235" y="352" on="1"/>
        <pt x="235" y="210" on="0"/>
        <pt x="305" y="210" on="1"/>
        <pt x="336" y="210" on="0"/>
        <pt x="375" y="236" on="0"/>
        <pt x="377" y="236" on="1"/>
        <pt x="388" y="236" on="0"/>
        <pt x="405" y="202" on="0"/>
        <pt x="405" y="192" on="1"/>
        <pt x="405" y="174" on="0"/>
        <pt x="334" y="147" on="0"/>
        <pt x="305" y="147" on="1"/>
      </contour>
    </TTGlyph>
    <TTGlyph name="currency" xMin="40" yMin="97" xMax="418" yMax="510">
      <contour>
        <pt x="83" y="97" on="0"/>
        <pt x="73" y="108" on="1"/>
        <pt x="52" y="128" on="1"/>
        <pt x="42" y="138" on="0"/>
        <pt x="42" y="150" on="1"/>
        <pt x="42" y="161" on="0"/>
        <pt x="53" y="174" on="1"/>
        <pt x="81" y="202" on="1"/>
        <pt x="59" y="248" on="0"/>
        <pt x="59" y="300" on="1"/>
        <pt x="59" y="358" on="0"/>
        <pt x="83" y="401" on="1"/>
        <pt x="51" y="432" on="1"/>
        <pt x="40" y="443" on="0"/>
        <pt x="40" y="456" on="1"/>
        <pt x="40" y="468" on="0"/>
        <pt x="50" y="478" on="1"/>
        <pt x="71" y="499" on="1"/>
        <pt x="82" y="510" on="0"/>
        <pt x="93" y="510" on="1"/>
        <pt x="105" y="510" on="0"/>
        <pt x="117" y="498" on="1"/>
        <pt x="143" y="472" on="1"/>
        <pt x="183" y="500" on="0"/>
        <pt x="228" y="500" on="1"/>
        <pt x="274" y="500" on="0"/>
        <pt x="315" y="472" on="1"/>
        <pt x="341" y="498" on="1"/>
        <pt x="352" y="509" on="0"/>
        <pt x="364" y="509" on="1"/>
        <pt x="376" y="509" on="0"/>
        <pt x="387" y="498" on="1"/>
        <pt x="407" y="478" on="1"/>
        <pt x="418" y="467" on="0"/>
        <pt x="418" y="456" on="1"/>
        <pt x="418" y="444" on="0"/>
        <pt x="406" y="432" on="1"/>
        <pt x="374" y="399" on="1"/>
        <pt x="397" y="355" on="0"/>
        <pt x="397" y="300" on="1"/>
        <pt x="397" y="250" on="0"/>
        <pt x="375" y="204" on="1"/>
        <pt x="404" y="174" on="1"/>
        <pt x="416" y="162" on="0"/>
        <pt x="416" y="150" on="1"/>
        <pt x="416" y="137" on="0"/>
        <pt x="405" y="128" on="1"/>
        <pt x="385" y="108" on="1"/>
        <pt x="374" y="97" on="0"/>
        <pt x="362" y="97" on="1"/>
        <pt x="349" y="97" on="0"/>
        <pt x="339" y="108" on="1"/>
        <pt x="317" y="131" on="1"/>
        <pt x="276" y="101" on="0"/>
        <pt x="228" y="101" on="1"/>
        <pt x="183" y="101" on="0"/>
        <pt x="140" y="129" on="1"/>
        <pt x="119" y="108" on="1"/>
        <pt x="108" y="97" on="0"/>
        <pt x="95" y="97" on="1"/>
      </contour>
      <contour>
        <pt x="260" y="197" on="0"/>
        <pt x="301" y="251" on="0"/>
        <pt x="301" y="300" on="1"/>
        <pt x="301" y="350" on="0"/>
        <pt x="260" y="404" on="0"/>
        <pt x="228" y="404" on="1"/>
        <pt x="196" y="404" on="0"/>
        <pt x="154" y="350" on="0"/>
        <pt x="154" y="300" on="1"/>
        <pt x="154" y="251" on="0"/>
        <pt x="196" y="197" on="0"/>
        <pt x="228" y="197" on="1"/>
      </contour>
    </TTGlyph>
    <TTGlyph name="d" xMin="39" yMin="-7" xMax="434" yMax="753">
      <contour>
        <pt x="147" y="-7" on="0"/>
        <pt x="78" y="58" on="0"/>
        <pt x="39" y="180" on="0"/>
        <pt x="39" y="264" on="1"/>
        <pt x="39" y="391" on="0"/>
        <pt x="128" y="530" on="0"/>
        <pt x="205" y="530" on="1"/>
        <pt x="258" y="530" on="0"/>
        <pt x="296" y="494" on="1"/>
        <pt x="296" y="725" on="1"/>
        <pt x="296" y="753" on="0"/>
        <pt x="348" y="753" on="1"/>
        <pt x="370" y="753" on="1"/>
        <pt x="422" y="753" on="0"/>
        <pt x="422" y="725" on="1"/>
        <pt x="422" y="166" on="1"/>
        <pt x="422" y="99" on="0"/>
        <pt x="434" y="33" on="0"/>
        <pt x="434" y="28" on="1"/>
        <pt x="434" y="14" on="0"/>
        <pt x="365" y="-1" on="0"/>
        <pt x="340" y="-1" on="1"/>
        <pt x="322" y="-1" on="0"/>
        <pt x="308" y="32" on="0"/>
        <pt x="302" y="64" on="1"/>
        <pt x="284" y="31" on="0"/>
        <pt x="227" y="-7" on="0"/>
        <pt x="192" y="-7" on="1"/>
      </contour>
      <contour>
        <pt x="250" y="97" on="0"/>
        <pt x="283" y="124" on="0"/>
        <pt x="296" y="147" on="1"/>
        <pt x="296" y="403" on="1"/>
        <pt x="271" y="428" on="0"/>
        <pt x="240" y="428" on="1"/>
        <pt x="203" y="428" on="0"/>
        <pt x="168" y="349" on="0"/>
        <pt x="168" y="262" on="1"/>
        <pt x="168" y="178" on="0"/>
        <pt x="200" y="97" on="0"/>
        <pt x="232" y="97" on="1"/>
      </contour>
    </TTGlyph>
    <TTGlyph name="dagger" xMin="36" yMin="-140" xMax="391" yMax="702">
      <contour>
        <pt x="166" y="-140" on="0"/>
        <pt x="166" y="-111" on="1"/>
        <pt x="166" y="414" on="1"/>
        <pt x="62" y="414" on="1"/>
        <pt x="48" y="414" on="0"/>
        <pt x="36" y="435" on="0"/>
        <pt x="36" y="457" on="1"/>
        <pt x="36" y="469" on="1"/>
        <pt x="36" y="491" on="0"/>
        <pt x="48" y="512" on="0"/>
        <pt x="62" y="512" on="1"/>
        <pt x="166" y="512" on="1"/>
        <pt x="166" y="673" on="1"/>
        <pt x="166" y="702" on="0"/>
        <pt x="206" y="702" on="1"/>
        <pt x="221" y="702" on="1"/>
        <pt x="262" y="702" on="0"/>
        <pt x="262" y="673" on="1"/>
        <pt x="262" y="512" on="1"/>
        <pt x="365" y="512" on="1"/>
        <pt x="379" y="512" on="0"/>
        <pt x="391" y="492" on="0"/>
        <pt x="391" y="469" on="1"/>
        <pt x="391" y="457" on="1"/>
        <pt x="391" y="434" on="0"/>
        <pt x="379" y="414" on="0"/>
        <pt x="365" y="414" on="1"/>
        <pt x="262" y="414" on="1"/>
        <pt x="262" y="-111" on="1"/>
        <pt x="262" y="-140" on="0"/>
        <pt x="221" y="-140" on="1"/>
        <pt x="206" y="-140" on="1"/>
      </contour>
    </TTGlyph>
    <TTGlyph name="daggerdbl" xMin="36" yMin="-140" xMax="391" yMax="702">
      <contour>
        <pt x="166" y="-140" on="0"/>
        <pt x="166" y="-111" on="1"/>
        <pt x="166" y="48" on="1"/>
        <pt x="62" y="48" on="1"/>
        <pt x="48" y="48" on="0"/>
        <pt x="36" y="69" on="0"/>
        <pt x="36" y="91" on="1"/>
        <pt x="36" y="103" on="1"/>
        <pt x="36" y="125" on="0"/>
        <pt x="48" y="146" on="0"/>
        <pt x="62" y="146" on="1"/>
        <pt x="166" y="146" on="1"/>
        <pt x="166" y="414" on="1"/>
        <pt x="62" y="414" on="1"/>
        <pt x="48" y="414" on="0"/>
        <pt x="36" y="435" on="0"/>
        <pt x="36" y="457" on="1"/>
        <pt x="36" y="469" on="1"/>
        <pt x="36" y="491" on="0"/>
        <pt x="48" y="512" on="0"/>
        <pt x="62" y="512" on="1"/>
        <pt x="166" y="512" on="1"/>
        <pt x="166" y="673" on="1"/>
        <pt x="166" y="702" on="0"/>
        <pt x="206" y="702" on="1"/>
        <pt x="221" y="702" on="1"/>
        <pt x="262" y="702" on="0"/>
        <pt x="262" y="673" on="1"/>
        <pt x="262" y="512" on="1"/>
        <pt x="365" y="512" on="1"/>
        <pt x="379" y="512" on="0"/>
        <pt x="391" y="492" on="0"/>
        <pt x="391" y="469" on="1"/>
        <pt x="391" y="457" on="1"/>
        <pt x="391" y="434" on="0"/>
        <pt x="379" y="414" on="0"/>
        <pt x="365" y="414" on="1"/>
        <pt x="262" y="414" on="1"/>
        <pt x="262" y="146" on="1"/>
        <pt x="365" y="146" on="1"/>
        <pt x="379" y="146" on="0"/>
        <pt x="391" y="126" on="0"/>
        <pt x="391" y="103" on="1"/>
        <pt x="391" y="91" on="1"/>
        <pt x="391" y="68" on="0"/>
        <pt x="379" y="48" on="0"/>
        <pt x="365" y="48" on="1"/>
        <pt x="262" y="48" on="1"/>
        <pt x="262" y="-111" on="1"/>
        <pt x="262" y="-140" on="0"/>
        <pt x="221" y="-140" on="1"/>
        <pt x="206" y="-140" on="1"/>
      </contour>
    </TTGlyph>
    <TTGlyph name="dcaron" xMin="39" yMin="-7" xMax="560" yMax="753">
      <component glyphName="d" x="0" y="0" flags="0x0"/>
      <component glyphName="caron.alt" x="408" y="0" flags="0x0"/>
    </TTGlyph>
    <TTGlyph name="dcroat" xMin="39" yMin="-7" xMax="488" yMax="753">
      <contour>
        <pt x="474" y="675" on="0"/>
        <pt x="488" y="658" on="0"/>
        <pt x="488" y="638" on="1"/>
        <pt x="488" y="625" on="1"/>
        <pt x="488" y="605" on="0"/>
        <pt x="474" y="588" on="0"/>
        <pt x="457" y="588" on="1"/>
        <pt x="422" y="588" on="1"/>
        <pt x="422" y="166" on="1"/>
        <pt x="422" y="99" on="0"/>
        <pt x="434" y="33" on="0"/>
        <pt x="434" y="28" on="1"/>
        <pt x="434" y="14" on="0"/>
        <pt x="365" y="-1" on="0"/>
        <pt x="340" y="-1" on="1"/>
        <pt x="322" y="-1" on="0"/>
        <pt x="308" y="32" on="0"/>
        <pt x="302" y="64" on="1"/>
        <pt x="284" y="31" on="0"/>
        <pt x="227" y="-7" on="0"/>
        <pt x="192" y="-7" on="1"/>
        <pt x="147" y="-7" on="0"/>
        <pt x="78" y="58" on="0"/>
        <pt x="39" y="180" on="0"/>
        <pt x="39" y="264" on="1"/>
        <pt x="39" y="391" on="0"/>
        <pt x="128" y="530" on="0"/>
        <pt x="205" y="530" on="1"/>
        <pt x="258" y="530" on="0"/>
        <pt x="296" y="494" on="1"/>
        <pt x="296" y="588" on="1"/>
        <pt x="228" y="588" on="1"/>
        <pt x="212" y="588" on="0"/>
        <pt x="197" y="605" on="0"/>
        <pt x="197" y="625" on="1"/>
        <pt x="197" y="638" on="1"/>
        <pt x="197" y="658" on="0"/>
        <pt x="212" y="675" on="0"/>
        <pt x="228" y="675" on="1"/>
        <pt x="296" y="675" on="1"/>
        <pt x="296" y="725" on="1"/>
        <pt x="296" y="753" on="0"/>
        <pt x="348" y="753" on="1"/>
        <pt x="370" y="753" on="1"/>
        <pt x="422" y="753" on="0"/>
        <pt x="422" y="725" on="1"/>
        <pt x="422" y="675" on="1"/>
        <pt x="457" y="675" on="1"/>
      </contour>
      <contour>
        <pt x="296" y="403" on="1"/>
        <pt x="271" y="428" on="0"/>
        <pt x="240" y="428" on="1"/>
        <pt x="203" y="428" on="0"/>
        <pt x="168" y="349" on="0"/>
        <pt x="168" y="262" on="1"/>
        <pt x="168" y="178" on="0"/>
        <pt x="200" y="97" on="0"/>
        <pt x="232" y="97" on="1"/>
        <pt x="250" y="97" on="0"/>
        <pt x="283" y="124" on="0"/>
        <pt x="296" y="147" on="1"/>
      </contour>
    </TTGlyph>
    <TTGlyph name="degree" xMin="31" yMin="442" xMax="243" yMax="707">
      <contour>
        <pt x="90" y="442" on="0"/>
        <pt x="31" y="510" on="0"/>
        <pt x="31" y="574" on="1"/>
        <pt x="31" y="639" on="0"/>
        <pt x="90" y="707" on="0"/>
        <pt x="137" y="707" on="1"/>
        <pt x="184" y="707" on="0"/>
        <pt x="243" y="639" on="0"/>
        <pt x="243" y="574" on="1"/>
        <pt x="243" y="510" on="0"/>
        <pt x="184" y="442" on="0"/>
        <pt x="137" y="442" on="1"/>
      </contour>
      <contour>
        <pt x="157" y="498" on="0"/>
        <pt x="183" y="537" on="0"/>
        <pt x="183" y="574" on="1"/>
        <pt x="183" y="611" on="0"/>
        <pt x="157" y="651" on="0"/>
        <pt x="136" y="651" on="1"/>
        <pt x="115" y="651" on="0"/>
        <pt x="89" y="611" on="0"/>
        <pt x="89" y="574" on="1"/>
        <pt x="89" y="537" on="0"/>
        <pt x="115" y="498" on="0"/>
        <pt x="136" y="498" on="1"/>
      </contour>
    </TTGlyph>
    <TTGlyph name="dieresis" xMin="3" yMin="588" xMax="255" yMax="702">
      <contour>
        <pt x="3" y="588" on="0"/>
        <pt x="3" y="617" on="1"/>
        <pt x="3" y="673" on="1"/>
        <pt x="3" y="702" on="0"/>
        <pt x="54" y="702" on="1"/>
        <pt x="105" y="702" on="0"/>
        <pt x="105" y="673" on="1"/>
        <pt x="105" y="617" on="1"/>
        <pt x="105" y="588" on="0"/>
        <pt x="55" y="588" on="1"/>
      </contour>
      <contour>
        <pt x="153" y="588" on="0"/>
        <pt x="153" y="617" on="1"/>
        <pt x="153" y="673" on="1"/>
        <pt x="153" y="702" on="0"/>
        <pt x="203" y="702" on="1"/>
        <pt x="255" y="702" on="0"/>
        <pt x="255" y="673" on="1"/>
        <pt x="255" y="617" on="1"/>
        <pt x="255" y="588" on="0"/>
        <pt x="204" y="588" on="1"/>
      </contour>
    </TTGlyph>
    <TTGlyph name="divide" xMin="20" yMin="-2" xMax="429" yMax="456">
      <contour>
        <pt x="167" y="335" on="0"/>
        <pt x="167" y="364" on="1"/>
        <pt x="167" y="428" on="1"/>
        <pt x="167" y="442" on="0"/>
        <pt x="191" y="456" on="0"/>
        <pt x="218" y="456" on="1"/>
        <pt x="228" y="456" on="1"/>
        <pt x="255" y="456" on="0"/>
        <pt x="279" y="442" on="0"/>
        <pt x="279" y="428" on="1"/>
        <pt x="279" y="364" on="1"/>
        <pt x="279" y="335" on="0"/>
        <pt x="228" y="335" on="1"/>
        <pt x="218" y="335" on="1"/>
      </contour>
      <contour>
        <pt x="31" y="181" on="0"/>
        <pt x="20" y="201" on="0"/>
        <pt x="20" y="224" on="1"/>
        <pt x="20" y="231" on="1"/>
        <pt x="20" y="254" on="0"/>
        <pt x="31" y="274" on="0"/>
        <pt x="44" y="274" on="1"/>
        <pt x="405" y="274" on="1"/>
        <pt x="418" y="274" on="0"/>
        <pt x="429" y="254" on="0"/>
        <pt x="429" y="231" on="1"/>
        <pt x="429" y="224" on="1"/>
        <pt x="429" y="201" on="0"/>
        <pt x="418" y="181" on="0"/>
        <pt x="405" y="181" on="1"/>
        <pt x="44" y="181" on="1"/>
      </contour>
      <contour>
        <pt x="167" y="-2" on="0"/>
        <pt x="167" y="27" on="1"/>
        <pt x="167" y="91" on="1"/>
        <pt x="167" y="119" on="0"/>
        <pt x="218" y="119" on="1"/>
        <pt x="228" y="119" on="1"/>
        <pt x="279" y="119" on="0"/>
        <pt x="279" y="91" on="1"/>
        <pt x="279" y="27" on="1"/>
        <pt x="279" y="-2" on="0"/>
        <pt x="228" y="-2" on="1"/>
        <pt x="218" y="-2" on="1"/>
      </contour>
    </TTGlyph>
    <TTGlyph name="dollar" xMin="26" yMin="-74" xMax="416" yMax="763">
      <contour>
        <pt x="207" y="-74" on="0"/>
        <pt x="199" y="-65" on="0"/>
        <pt x="198" y="-55" on="1"/>
        <pt x="198" y="-7" on="1"/>
        <pt x="128" y="-6" on="0"/>
        <pt x="80" y="19" on="1"/>
        <pt x="32" y="37" on="0"/>
        <pt x="29" y="65" on="1"/>
        <pt x="26" y="90" on="0"/>
        <pt x="47" y="148" on="0"/>
        <pt x="64" y="148" on="1"/>
        <pt x="67" y="148" on="0"/>
        <pt x="77" y="144" on="0"/>
        <pt x="80" y="143" on="1"/>
        <pt x="110" y="124" on="0"/>
        <pt x="165" y="107" on="0"/>
        <pt x="198" y="106" on="1"/>
        <pt x="198" y="300" on="1"/>
        <pt x="145" y="323" on="0"/>
        <pt x="74" y="371" on="0"/>
        <pt x="29" y="452" on="0"/>
        <pt x="29" y="513" on="1"/>
        <pt x="29" y="593" on="0"/>
        <pt x="120" y="696" on="0"/>
        <pt x="198" y="707" on="1"/>
        <pt x="198" y="744" on="1"/>
        <pt x="198" y="746" on="1"/>
        <pt x="198" y="763" on="0"/>
        <pt x="217" y="763" on="1"/>
        <pt x="228" y="763" on="1"/>
        <pt x="238" y="763" on="0"/>
        <pt x="246" y="754" on="0"/>
        <pt x="248" y="744" on="1"/>
        <pt x="248" y="708" on="1"/>
        <pt x="316" y="705" on="0"/>
        <pt x="358" y="680" on="1"/>
        <pt x="378" y="669" on="0"/>
        <pt x="378" y="647" on="1"/>
        <pt x="378" y="624" on="0"/>
        <pt x="359" y="573" on="0"/>
        <pt x="345" y="573" on="1"/>
        <pt x="339" y="573" on="0"/>
        <pt x="320" y="580" on="1"/>
        <pt x="281" y="595" on="0"/>
        <pt x="248" y="595" on="1"/>
        <pt x="248" y="410" on="1"/>
        <pt x="257" y="405" on="1"/>
        <pt x="309" y="379" on="0"/>
        <pt x="370" y="337" on="0"/>
        <pt x="416" y="260" on="0"/>
        <pt x="416" y="200" on="1"/>
        <pt x="416" y="120" on="0"/>
        <pt x="327" y="13" on="0"/>
        <pt x="248" y="-4" on="1"/>
        <pt x="248" y="-55" on="1"/>
        <pt x="248" y="-74" on="0"/>
        <pt x="229" y="-74" on="1"/>
        <pt x="217" y="-74" on="1"/>
      </contour>
      <contour>
        <pt x="198" y="588" on="1"/>
        <pt x="171" y="578" on="0"/>
        <pt x="147" y="539" on="0"/>
        <pt x="147" y="514" on="1"/>
        <pt x="148" y="466" on="0"/>
        <pt x="198" y="435" on="1"/>
      </contour>
      <contour>
        <pt x="271" y="124" on="0"/>
        <pt x="298" y="166" on="0"/>
        <pt x="298" y="194" on="1"/>
        <pt x="298" y="224" on="0"/>
        <pt x="271" y="259" on="0"/>
        <pt x="248" y="273" on="1"/>
        <pt x="248" y="115" on="1"/>
      </contour>
    </TTGlyph>
    <TTGlyph name="dotaccent" xMin="69" yMin="588" xMax="190" yMax="702">
      <contour>
        <pt x="69" y="588" on="0"/>
        <pt x="69" y="617" on="1"/>
        <pt x="69" y="673" on="1"/>
        <pt x="69" y="702" on="0"/>
        <pt x="129" y="702" on="1"/>
        <pt x="190" y="702" on="0"/>
        <pt x="190" y="673" on="1"/>
        <pt x="190" y="617" on="1"/>
        <pt x="190" y="588" on="0"/>
        <pt x="130" y="588" on="1"/>
      </contour>
    </TTGlyph>
    <TTGlyph name="dotbelowcomb" xMin="-56" yMin="-194" xMax="65" yMax="-80">
      <contour>
        <pt x="-56" y="-194" on="0"/>
        <pt x="-56" y="-165" on="1"/>
        <pt x="-56" y="-109" on="1"/>
        <pt x="-56" y="-80" on="0"/>
        <pt x="4" y="-80" on="1"/>
        <pt x="65" y="-80" on="0"/>
        <pt x="65" y="-109" on="1"/>
        <pt x="65" y="-165" on="1"/>
        <pt x="65" y="-194" on="0"/>
        <pt x="5" y="-194" on="1"/>
      </contour>
    </TTGlyph>
    <TTGlyph name="dotlessi" xMin="64" yMin="-2" xMax="190" yMax="525">
      <contour>
        <pt x="64" y="-2" on="0"/>
        <pt x="64" y="27" on="1"/>
        <pt x="64" y="496" on="1"/>
        <pt x="64" y="525" on="0"/>
        <pt x="117" y="525" on="1"/>
        <pt x="137" y="525" on="1"/>
        <pt x="190" y="525" on="0"/>
        <pt x="190" y="496" on="1"/>
        <pt x="190" y="27" on="1"/>
        <pt x="190" y="-2" on="0"/>
        <pt x="137" y="-2" on="1"/>
        <pt x="117" y="-2" on="1"/>
      </contour>
    </TTGlyph>
    <TTGlyph name="e" xMin="39" yMin="-7" xMax="425" yMax="530">
      <contour>
        <pt x="146" y="-7" on="0"/>
        <pt x="39" y="126" on="0"/>
        <pt x="39" y="258" on="1"/>
        <pt x="39" y="530" on="0"/>
        <pt x="243" y="530" on="1"/>
        <pt x="425" y="530" on="0"/>
        <pt x="425" y="264" on="1"/>
        <pt x="425" y="253" on="0"/>
        <pt x="390" y="211" on="0"/>
        <pt x="380" y="211" on="1"/>
        <pt x="170" y="211" on="1"/>
        <pt x="173" y="149" on="0"/>
        <pt x="219" y="94" on="0"/>
        <pt x="263" y="94" on="1"/>
        <pt x="289" y="94" on="0"/>
        <pt x="329" y="109" on="0"/>
        <pt x="363" y="128" on="0"/>
        <pt x="366" y="128" on="1"/>
        <pt x="379" y="128" on="0"/>
        <pt x="412" y="75" on="0"/>
        <pt x="412" y="61" on="1"/>
        <pt x="412" y="42" on="0"/>
        <pt x="363" y="11" on="0"/>
        <pt x="290" y="-7" on="0"/>
        <pt x="259" y="-7" on="1"/>
      </contour>
      <contour>
        <pt x="306" y="294" on="1"/>
        <pt x="306" y="367" on="0"/>
        <pt x="275" y="435" on="0"/>
        <pt x="241" y="435" on="1"/>
        <pt x="206" y="435" on="0"/>
        <pt x="170" y="370" on="0"/>
        <pt x="166" y="294" on="1"/>
      </contour>
    </TTGlyph>
    <TTGlyph name="eacute" xMin="39" yMin="-7" xMax="425" yMax="733">
      <component glyphName="e" x="0" y="0" flags="0x0"/>
      <component glyphName="acutecomb" x="277" y="0" flags="0x0"/>
    </TTGlyph>
    <TTGlyph name="ebreve" xMin="39" yMin="-7" xMax="425" yMax="715">
      <component glyphName="e" x="0" y="0" flags="0x0"/>
      <component glyphName="uni0306" x="231" y="0" flags="0x0"/>
    </TTGlyph>
    <TTGlyph name="ecaron" xMin="39" yMin="-7" xMax="425" yMax="720">
      <component glyphName="e" x="0" y="0" flags="0x0"/>
      <component glyphName="uni030C" x="224" y="0" flags="0x0"/>
    </TTGlyph>
    <TTGlyph name="ecircumflex" xMin="39" yMin="-7" xMax="425" yMax="718">
      <component glyphName="e" x="0" y="0" flags="0x0"/>
      <component glyphName="uni0302" x="228" y="0" flags="0x0"/>
    </TTGlyph>
    <TTGlyph name="edieresis" xMin="39" yMin="-7" xMax="425" yMax="702">
      <component glyphName="e" x="0" y="0" flags="0x0"/>
      <component glyphName="uni0308" x="232" y="0" flags="0x0"/>
    </TTGlyph>
    <TTGlyph name="edotaccent" xMin="39" yMin="-7" xMax="425" yMax="702">
      <component glyphName="e" x="0" y="0" flags="0x0"/>
      <component glyphName="uni0307" x="230" y="0" flags="0x0"/>
    </TTGlyph>
    <TTGlyph name="egrave" xMin="39" yMin="-7" xMax="425" yMax="733">
      <component glyphName="e" x="0" y="0" flags="0x0"/>
      <component glyphName="gravecomb" x="230" y="0" flags="0x0"/>
    </TTGlyph>
    <TTGlyph name="eight" xMin="32" yMin="-7" xMax="431" yMax="707">
      <contour>
        <pt x="136" y="-7" on="0"/>
        <pt x="32" y="104" on="0"/>
        <pt x="32" y="197" on="1"/>
        <pt x="32" y="320" on="0"/>
        <pt x="124" y="373" on="1"/>
        <pt x="88" y="400" on="0"/>
        <pt x="48" y="472" on="0"/>
        <pt x="48" y="526" on="1"/>
        <pt x="48" y="609" on="0"/>
        <pt x="149" y="707" on="0"/>
        <pt x="235" y="707" on="1"/>
        <pt x="317" y="707" on="0"/>
        <pt x="417" y="614" on="0"/>
        <pt x="417" y="534" on="1"/>
        <pt x="417" y="426" on="0"/>
        <pt x="332" y="378" on="1"/>
        <pt x="378" y="349" on="0"/>
        <pt x="431" y="265" on="0"/>
        <pt x="431" y="195" on="1"/>
        <pt x="431" y="139" on="0"/>
        <pt x="386" y="47" on="0"/>
        <pt x="297" y="-7" on="0"/>
        <pt x="232" y="-7" on="1"/>
      </contour>
      <contour>
        <pt x="301" y="466" on="0"/>
        <pt x="301" y="529" on="1"/>
        <pt x="301" y="566" on="0"/>
        <pt x="263" y="606" on="0"/>
        <pt x="234" y="606" on="1"/>
        <pt x="205" y="606" on="0"/>
        <pt x="166" y="567" on="0"/>
        <pt x="166" y="531" on="1"/>
        <pt x="166" y="495" on="0"/>
        <pt x="206" y="449" on="0"/>
        <pt x="244" y="429" on="1"/>
      </contour>
      <contour>
        <pt x="267" y="94" on="0"/>
        <pt x="310" y="150" on="0"/>
        <pt x="310" y="191" on="1"/>
        <pt x="310" y="239" on="0"/>
        <pt x="259" y="291" on="0"/>
        <pt x="209" y="318" on="1"/>
        <pt x="181" y="297" on="0"/>
        <pt x="152" y="242" on="0"/>
        <pt x="152" y="201" on="1"/>
        <pt x="152" y="147" on="0"/>
        <pt x="196" y="94" on="0"/>
        <pt x="232" y="94" on="1"/>
      </contour>
    </TTGlyph>
    <TTGlyph name="ellipsis" xMin="29" yMin="-2" xMax="523" yMax="138">
      <contour>
        <pt x="29" y="-2" on="0"/>
        <pt x="29" y="27" on="1"/>
        <pt x="29" y="110" on="1"/>
        <pt x="29" y="138" on="0"/>
        <pt x="80" y="138" on="1"/>
        <pt x="104" y="138" on="1"/>
        <pt x="155" y="138" on="0"/>
        <pt x="155" y="110" on="1"/>
        <pt x="155" y="27" on="1"/>
        <pt x="155" y="-2" on="0"/>
        <pt x="104" y="-2" on="1"/>
        <pt x="80" y="-2" on="1"/>
      </contour>
      <contour>
        <pt x="213" y="-2" on="0"/>
        <pt x="213" y="27" on="1"/>
        <pt x="213" y="110" on="1"/>
        <pt x="213" y="138" on="0"/>
        <pt x="264" y="138" on="1"/>
        <pt x="288" y="138" on="1"/>
        <pt x="339" y="138" on="0"/>
        <pt x="339" y="110" on="1"/>
        <pt x="339" y="27" on="1"/>
        <pt x="339" y="-2" on="0"/>
        <pt x="288" y="-2" on="1"/>
        <pt x="264" y="-2" on="1"/>
      </contour>
      <contour>
        <pt x="397" y="-2" on="0"/>
        <pt x="397" y="27" on="1"/>
        <pt x="397" y="110" on="1"/>
        <pt x="397" y="138" on="0"/>
        <pt x="448" y="138" on="1"/>
        <pt x="472" y="138" on="1"/>
        <pt x="523" y="138" on="0"/>
        <pt x="523" y="110" on="1"/>
        <pt x="523" y="27" on="1"/>
        <pt x="523" y="-2" on="0"/>
        <pt x="472" y="-2" on="1"/>
        <pt x="448" y="-2" on="1"/>
      </contour>
    </TTGlyph>
    <TTGlyph name="emacron" xMin="39" yMin="-7" xMax="425" yMax="689">
      <component glyphName="e" x="0" y="0" flags="0x0"/>
      <component glyphName="uni0304" x="232" y="0" flags="0x0"/>
    </TTGlyph>
    <TTGlyph name="emdash" xMin="0" yMin="218" xMax="886" yMax="312">
      <contour>
        <pt x="12" y="218" on="0"/>
        <pt x="0" y="239" on="0"/>
        <pt x="0" y="261" on="1"/>
        <pt x="0" y="269" on="1"/>
        <pt x="0" y="292" on="0"/>
        <pt x="12" y="312" on="0"/>
        <pt x="26" y="312" on="1"/>
        <pt x="860" y="312" on="1"/>
        <pt x="874" y="312" on="0"/>
        <pt x="886" y="292" on="0"/>
        <pt x="886" y="269" on="1"/>
        <pt x="886" y="261" on="1"/>
        <pt x="886" y="239" on="0"/>
        <pt x="874" y="218" on="0"/>
        <pt x="860" y="218" on="1"/>
        <pt x="26" y="218" on="1"/>
      </contour>
    </TTGlyph>
    <TTGlyph name="endash" xMin="0" yMin="218" xMax="443" yMax="312">
      <contour>
        <pt x="12" y="218" on="0"/>
        <pt x="0" y="239" on="0"/>
        <pt x="0" y="261" on="1"/>
        <pt x="0" y="269" on="1"/>
        <pt x="0" y="292" on="0"/>
        <pt x="12" y="312" on="0"/>
        <pt x="26" y="312" on="1"/>
        <pt x="417" y="312" on="1"/>
        <pt x="431" y="312" on="0"/>
        <pt x="443" y="292" on="0"/>
        <pt x="443" y="269" on="1"/>
        <pt x="443" y="261" on="1"/>
        <pt x="443" y="239" on="0"/>
        <pt x="431" y="218" on="0"/>
        <pt x="417" y="218" on="1"/>
        <pt x="26" y="218" on="1"/>
      </contour>
    </TTGlyph>
    <TTGlyph name="eng" xMin="50" yMin="-212" xMax="428" yMax="530">
      <contour>
        <pt x="258" y="-212" on="0"/>
        <pt x="212" y="-193" on="0"/>
        <pt x="212" y="-168" on="1"/>
        <pt x="212" y="-150" on="0"/>
        <pt x="227" y="-106" on="0"/>
        <pt x="239" y="-106" on="1"/>
        <pt x="243" y="-106" on="0"/>
        <pt x="262" y="-111" on="0"/>
        <pt x="271" y="-111" on="1"/>
        <pt x="286" y="-111" on="0"/>
        <pt x="300" y="-87" on="0"/>
        <pt x="300" y="-59" on="1"/>
        <pt x="300" y="360" on="1"/>
        <pt x="300" y="393" on="0"/>
        <pt x="277" y="425" on="0"/>
        <pt x="251" y="425" on="1"/>
        <pt x="232" y="425" on="0"/>
        <pt x="198" y="400" on="0"/>
        <pt x="187" y="380" on="1"/>
        <pt x="187" y="27" on="1"/>
        <pt x="187" y="12" on="0"/>
        <pt x="162" y="-2" on="0"/>
        <pt x="136" y="-2" on="1"/>
        <pt x="110" y="-2" on="1"/>
        <pt x="60" y="-2" on="0"/>
        <pt x="60" y="27" on="1"/>
        <pt x="60" y="357" on="1"/>
        <pt x="60" y="426" on="0"/>
        <pt x="50" y="486" on="0"/>
        <pt x="50" y="491" on="1"/>
        <pt x="50" y="507" on="0"/>
        <pt x="119" y="522" on="0"/>
        <pt x="145" y="522" on="1"/>
        <pt x="162" y="522" on="0"/>
        <pt x="174" y="499" on="0"/>
        <pt x="179" y="465" on="0"/>
        <pt x="181" y="455" on="1"/>
        <pt x="203" y="488" on="0"/>
        <pt x="270" y="530" on="0"/>
        <pt x="310" y="530" on="1"/>
        <pt x="368" y="530" on="0"/>
        <pt x="428" y="456" on="0"/>
        <pt x="428" y="385" on="1"/>
        <pt x="428" y="-60" on="1"/>
        <pt x="428" y="-137" on="0"/>
        <pt x="355" y="-212" on="0"/>
        <pt x="300" y="-212" on="1"/>
      </contour>
    </TTGlyph>
    <TTGlyph name="eogonek" xMin="39" yMin="-172" xMax="451" yMax="530">
      <contour>
        <pt x="438" y="-100" on="0"/>
        <pt x="451" y="-113" on="0"/>
        <pt x="451" y="-128" on="1"/>
        <pt x="451" y="-148" on="0"/>
        <pt x="436" y="-158" on="1"/>
        <pt x="408" y="-172" on="0"/>
        <pt x="376" y="-172" on="1"/>
        <pt x="320" y="-172" on="0"/>
        <pt x="281" y="-113" on="0"/>
        <pt x="281" y="-80" on="1"/>
        <pt x="281" y="-42" on="0"/>
        <pt x="298" y="-4" on="1"/>
        <pt x="277" y="-7" on="0"/>
        <pt x="259" y="-7" on="1"/>
        <pt x="146" y="-7" on="0"/>
        <pt x="39" y="126" on="0"/>
        <pt x="39" y="258" on="1"/>
        <pt x="39" y="530" on="0"/>
        <pt x="243" y="530" on="1"/>
        <pt x="425" y="530" on="0"/>
        <pt x="425" y="264" on="1"/>
        <pt x="425" y="253" on="0"/>
        <pt x="390" y="211" on="0"/>
        <pt x="380" y="211" on="1"/>
        <pt x="170" y="211" on="1"/>
        <pt x="173" y="149" on="0"/>
        <pt x="219" y="94" on="0"/>
        <pt x="263" y="94" on="1"/>
        <pt x="289" y="94" on="0"/>
        <pt x="329" y="109" on="0"/>
        <pt x="363" y="128" on="0"/>
        <pt x="366" y="128" on="1"/>
        <pt x="379" y="128" on="0"/>
        <pt x="412" y="75" on="0"/>
        <pt x="412" y="61" on="1"/>
        <pt x="412" y="35" on="0"/>
        <pt x="366" y="15" on="1"/>
        <pt x="346" y="-24" on="0"/>
        <pt x="346" y="-61" on="1"/>
        <pt x="346" y="-105" on="0"/>
        <pt x="395" y="-105" on="1"/>
        <pt x="403" y="-105" on="0"/>
        <pt x="420" y="-100" on="0"/>
        <pt x="425" y="-100" on="1"/>
      </contour>
      <contour>
        <pt x="206" y="435" on="0"/>
        <pt x="170" y="370" on="0"/>
        <pt x="166" y="294" on="1"/>
        <pt x="306" y="294" on="1"/>
        <pt x="306" y="367" on="0"/>
        <pt x="275" y="435" on="0"/>
        <pt x="241" y="435" on="1"/>
      </contour>
    </TTGlyph>
    <TTGlyph name="equal" xMin="32" yMin="150" xMax="417" yMax="305">
      <contour>
        <pt x="417" y="255" on="1"/>
        <pt x="417" y="237" on="0"/>
        <pt x="414" y="228" on="1"/>
        <pt x="417" y="218" on="0"/>
        <pt x="417" y="200" on="1"/>
        <pt x="417" y="193" on="1"/>
        <pt x="417" y="150" on="0"/>
        <pt x="394" y="150" on="1"/>
        <pt x="56" y="150" on="1"/>
        <pt x="43" y="150" on="0"/>
        <pt x="32" y="171" on="0"/>
        <pt x="32" y="193" on="1"/>
        <pt x="32" y="200" on="1"/>
        <pt x="32" y="218" on="0"/>
        <pt x="35" y="228" on="1"/>
        <pt x="32" y="237" on="0"/>
        <pt x="32" y="255" on="1"/>
        <pt x="32" y="262" on="1"/>
        <pt x="32" y="285" on="0"/>
        <pt x="43" y="305" on="0"/>
        <pt x="56" y="305" on="1"/>
        <pt x="394" y="305" on="1"/>
        <pt x="406" y="305" on="0"/>
        <pt x="417" y="284" on="0"/>
        <pt x="417" y="262" on="1"/>
      </contour>
    </TTGlyph>
    <TTGlyph name="estimated" xMin="22" yMin="-7" xMax="593" yMax="707">
      <contour>
        <pt x="390" y="707" on="0"/>
        <pt x="518" y="624" on="0"/>
        <pt x="593" y="465" on="0"/>
        <pt x="593" y="355" on="1"/>
        <pt x="174" y="355" on="1"/>
        <pt x="174" y="98" on="1"/>
        <pt x="235" y="48" on="0"/>
        <pt x="320" y="48" on="1"/>
        <pt x="367" y="48" on="0"/>
        <pt x="464" y="93" on="0"/>
        <pt x="492" y="131" on="1"/>
        <pt x="497" y="137" on="0"/>
        <pt x="509" y="146" on="0"/>
        <pt x="514" y="146" on="1"/>
        <pt x="525" y="146" on="0"/>
        <pt x="543" y="128" on="0"/>
        <pt x="543" y="119" on="1"/>
        <pt x="543" y="110" on="0"/>
        <pt x="533" y="97" on="1"/>
        <pt x="491" y="48" on="0"/>
        <pt x="380" y="-7" on="0"/>
        <pt x="320" y="-7" on="1"/>
        <pt x="237" y="-7" on="0"/>
        <pt x="102" y="79" on="0"/>
        <pt x="22" y="243" on="0"/>
        <pt x="22" y="355" on="1"/>
        <pt x="22" y="465" on="0"/>
        <pt x="99" y="624" on="0"/>
        <pt x="231" y="707" on="0"/>
        <pt x="312" y="707" on="1"/>
      </contour>
      <contour>
        <pt x="174" y="405" on="1"/>
        <pt x="445" y="405" on="1"/>
        <pt x="445" y="608" on="1"/>
        <pt x="387" y="657" on="0"/>
        <pt x="312" y="657" on="1"/>
        <pt x="234" y="657" on="0"/>
        <pt x="174" y="609" on="1"/>
      </contour>
    </TTGlyph>
    <TTGlyph name="eth" xMin="39" yMin="-7" xMax="439" yMax="715">
      <contour>
        <pt x="384" y="537" on="0"/>
        <pt x="439" y="356" on="0"/>
        <pt x="439" y="261" on="1"/>
        <pt x="439" y="131" on="0"/>
        <pt x="337" y="-7" on="0"/>
        <pt x="239" y="-7" on="1"/>
        <pt x="141" y="-7" on="0"/>
        <pt x="39" y="131" on="0"/>
        <pt x="39" y="261" on="1"/>
        <pt x="39" y="390" on="0"/>
        <pt x="141" y="526" on="0"/>
        <pt x="239" y="526" on="1"/>
        <pt x="248" y="526" on="0"/>
        <pt x="268" y="524" on="1"/>
        <pt x="252" y="562" on="0"/>
        <pt x="232" y="595" on="1"/>
        <pt x="167" y="586" on="0"/>
        <pt x="162" y="586" on="1"/>
        <pt x="149" y="586" on="0"/>
        <pt x="128" y="610" on="0"/>
        <pt x="128" y="624" on="1"/>
        <pt x="128" y="631" on="0"/>
        <pt x="136" y="637" on="0"/>
        <pt x="146" y="639" on="1"/>
        <pt x="199" y="647" on="1"/>
        <pt x="194" y="654" on="0"/>
        <pt x="166" y="690" on="0"/>
        <pt x="166" y="697" on="1"/>
        <pt x="166" y="706" on="0"/>
        <pt x="184" y="709" on="1"/>
        <pt x="233" y="715" on="1"/>
        <pt x="252" y="715" on="0"/>
        <pt x="267" y="703" on="1"/>
        <pt x="280" y="693" on="0"/>
        <pt x="305" y="661" on="1"/>
        <pt x="376" y="670" on="1"/>
        <pt x="389" y="670" on="0"/>
        <pt x="409" y="644" on="0"/>
        <pt x="409" y="632" on="1"/>
        <pt x="409" y="620" on="0"/>
        <pt x="390" y="617" on="1"/>
        <pt x="339" y="610" on="1"/>
      </contour>
      <contour>
        <pt x="277" y="94" on="0"/>
        <pt x="310" y="172" on="0"/>
        <pt x="310" y="262" on="1"/>
        <pt x="310" y="349" on="0"/>
        <pt x="277" y="425" on="0"/>
        <pt x="239" y="425" on="1"/>
        <pt x="201" y="425" on="0"/>
        <pt x="167" y="349" on="0"/>
        <pt x="167" y="262" on="1"/>
        <pt x="167" y="172" on="0"/>
        <pt x="201" y="94" on="0"/>
        <pt x="239" y="94" on="1"/>
      </contour>
    </TTGlyph>
    <TTGlyph name="exclam" xMin="56" yMin="-2" xMax="213" yMax="702">
      <contour>
        <pt x="92" y="215" on="0"/>
        <pt x="73" y="229" on="0"/>
        <pt x="73" y="244" on="1"/>
        <pt x="73" y="673" on="1"/>
        <pt x="73" y="702" on="0"/>
        <pt x="124" y="702" on="1"/>
        <pt x="162" y="702" on="1"/>
        <pt x="213" y="702" on="0"/>
        <pt x="213" y="676" on="1"/>
        <pt x="170" y="244" on="1"/>
        <pt x="168" y="228" on="0"/>
        <pt x="151" y="215" on="0"/>
        <pt x="126" y="215" on="1"/>
        <pt x="118" y="215" on="1"/>
      </contour>
      <contour>
        <pt x="56" y="-2" on="0"/>
        <pt x="56" y="27" on="1"/>
        <pt x="56" y="110" on="1"/>
        <pt x="56" y="138" on="0"/>
        <pt x="107" y="138" on="1"/>
        <pt x="135" y="138" on="1"/>
        <pt x="186" y="138" on="0"/>
        <pt x="186" y="110" on="1"/>
        <pt x="186" y="27" on="1"/>
        <pt x="186" y="-2" on="0"/>
        <pt x="135" y="-2" on="1"/>
        <pt x="107" y="-2" on="1"/>
      </contour>
    </TTGlyph>
    <TTGlyph name="exclamdown" xMin="36" yMin="-180" xMax="193" yMax="525">
      <contour>
        <pt x="63" y="385" on="0"/>
        <pt x="63" y="413" on="1"/>
        <pt x="63" y="496" on="1"/>
        <pt x="63" y="525" on="0"/>
        <pt x="114" y="525" on="1"/>
        <pt x="142" y="525" on="1"/>
        <pt x="193" y="525" on="0"/>
        <pt x="193" y="496" on="1"/>
        <pt x="193" y="413" on="1"/>
        <pt x="193" y="385" on="0"/>
        <pt x="142" y="385" on="1"/>
        <pt x="114" y="385" on="1"/>
      </contour>
      <contour>
        <pt x="62" y="-180" on="0"/>
        <pt x="36" y="-166" on="0"/>
        <pt x="36" y="-154" on="1"/>
        <pt x="36" y="-138" on="0"/>
        <pt x="66" y="154" on="0"/>
        <pt x="80" y="279" on="1"/>
        <pt x="82" y="294" on="0"/>
        <pt x="98" y="307" on="0"/>
        <pt x="123" y="307" on="1"/>
        <pt x="132" y="307" on="1"/>
        <pt x="157" y="307" on="0"/>
        <pt x="175" y="294" on="0"/>
        <pt x="175" y="279" on="1"/>
        <pt x="175" y="-151" on="1"/>
        <pt x="175" y="-180" on="0"/>
        <pt x="124" y="-180" on="1"/>
        <pt x="86" y="-180" on="1"/>
      </contour>
    </TTGlyph>
    <TTGlyph name="f" xMin="32" yMin="-2" xMax="295" yMax="759">
      <contour>
        <pt x="76" y="-2" on="0"/>
        <pt x="76" y="27" on="1"/>
        <pt x="76" y="422" on="1"/>
        <pt x="58" y="422" on="1"/>
        <pt x="44" y="422" on="0"/>
        <pt x="32" y="443" on="0"/>
        <pt x="32" y="465" on="1"/>
        <pt x="32" y="480" on="1"/>
        <pt x="32" y="502" on="0"/>
        <pt x="44" y="523" on="0"/>
        <pt x="58" y="523" on="1"/>
        <pt x="76" y="523" on="1"/>
        <pt x="76" y="609" on="1"/>
        <pt x="76" y="687" on="0"/>
        <pt x="148" y="759" on="0"/>
        <pt x="208" y="759" on="1"/>
        <pt x="238" y="759" on="0"/>
        <pt x="295" y="738" on="0"/>
        <pt x="295" y="715" on="1"/>
        <pt x="295" y="703" on="0"/>
        <pt x="279" y="652" on="0"/>
        <pt x="267" y="652" on="1"/>
        <pt x="262" y="652" on="0"/>
        <pt x="243" y="657" on="0"/>
        <pt x="236" y="657" on="1"/>
        <pt x="219" y="657" on="0"/>
        <pt x="202" y="635" on="0"/>
        <pt x="202" y="607" on="1"/>
        <pt x="202" y="523" on="1"/>
        <pt x="247" y="523" on="1"/>
        <pt x="261" y="523" on="0"/>
        <pt x="273" y="502" on="0"/>
        <pt x="273" y="480" on="1"/>
        <pt x="273" y="465" on="1"/>
        <pt x="273" y="443" on="0"/>
        <pt x="261" y="422" on="0"/>
        <pt x="247" y="422" on="1"/>
        <pt x="202" y="422" on="1"/>
        <pt x="202" y="27" on="1"/>
        <pt x="202" y="-2" on="0"/>
        <pt x="149" y="-2" on="1"/>
        <pt x="129" y="-2" on="1"/>
      </contour>
    </TTGlyph>
    <TTGlyph name="f_f" xMin="32" yMin="-2" xMax="581" yMax="759">
      <contour>
        <pt x="505" y="657" on="0"/>
        <pt x="488" y="635" on="0"/>
        <pt x="488" y="607" on="1"/>
        <pt x="488" y="523" on="1"/>
        <pt x="533" y="523" on="1"/>
        <pt x="547" y="523" on="0"/>
        <pt x="559" y="502" on="0"/>
        <pt x="559" y="480" on="1"/>
        <pt x="559" y="465" on="1"/>
        <pt x="559" y="443" on="0"/>
        <pt x="547" y="422" on="0"/>
        <pt x="533" y="422" on="1"/>
        <pt x="488" y="422" on="1"/>
        <pt x="488" y="27" on="1"/>
        <pt x="488" y="-2" on="0"/>
        <pt x="435" y="-2" on="1"/>
        <pt x="415" y="-2" on="1"/>
        <pt x="362" y="-2" on="0"/>
        <pt x="362" y="27" on="1"/>
        <pt x="362" y="422" on="1"/>
        <pt x="202" y="422" on="1"/>
        <pt x="202" y="27" on="1"/>
        <pt x="202" y="-2" on="0"/>
        <pt x="149" y="-2" on="1"/>
        <pt x="129" y="-2" on="1"/>
        <pt x="76" y="-2" on="0"/>
        <pt x="76" y="27" on="1"/>
        <pt x="76" y="422" on="1"/>
        <pt x="58" y="422" on="1"/>
        <pt x="44" y="422" on="0"/>
        <pt x="32" y="443" on="0"/>
        <pt x="32" y="465" on="1"/>
        <pt x="32" y="480" on="1"/>
        <pt x="32" y="502" on="0"/>
        <pt x="44" y="523" on="0"/>
        <pt x="58" y="523" on="1"/>
        <pt x="76" y="523" on="1"/>
        <pt x="76" y="609" on="1"/>
        <pt x="76" y="687" on="0"/>
        <pt x="148" y="759" on="0"/>
        <pt x="208" y="759" on="1"/>
        <pt x="238" y="759" on="0"/>
        <pt x="295" y="738" on="0"/>
        <pt x="295" y="715" on="1"/>
        <pt x="295" y="703" on="0"/>
        <pt x="279" y="652" on="0"/>
        <pt x="267" y="652" on="1"/>
        <pt x="262" y="652" on="0"/>
        <pt x="243" y="657" on="0"/>
        <pt x="236" y="657" on="1"/>
        <pt x="219" y="657" on="0"/>
        <pt x="202" y="635" on="0"/>
        <pt x="202" y="607" on="1"/>
        <pt x="202" y="523" on="1"/>
        <pt x="362" y="523" on="1"/>
        <pt x="362" y="609" on="1"/>
        <pt x="362" y="687" on="0"/>
        <pt x="434" y="759" on="0"/>
        <pt x="494" y="759" on="1"/>
        <pt x="524" y="759" on="0"/>
        <pt x="581" y="738" on="0"/>
        <pt x="581" y="715" on="1"/>
        <pt x="581" y="703" on="0"/>
        <pt x="565" y="652" on="0"/>
        <pt x="553" y="652" on="1"/>
        <pt x="548" y="652" on="0"/>
        <pt x="529" y="657" on="0"/>
        <pt x="522" y="657" on="1"/>
      </contour>
    </TTGlyph>
    <TTGlyph name="f_t" xMin="32" yMin="-7" xMax="567" yMax="759">
      <contour>
        <pt x="551" y="98" on="0"/>
        <pt x="567" y="48" on="0"/>
        <pt x="567" y="35" on="1"/>
        <pt x="567" y="13" on="0"/>
        <pt x="508" y="-7" on="0"/>
        <pt x="476" y="-7" on="1"/>
        <pt x="422" y="-7" on="0"/>
        <pt x="355" y="62" on="0"/>
        <pt x="355" y="137" on="1"/>
        <pt x="355" y="422" on="1"/>
        <pt x="202" y="422" on="1"/>
        <pt x="202" y="27" on="1"/>
        <pt x="202" y="-2" on="0"/>
        <pt x="149" y="-2" on="1"/>
        <pt x="129" y="-2" on="1"/>
        <pt x="76" y="-2" on="0"/>
        <pt x="76" y="27" on="1"/>
        <pt x="76" y="422" on="1"/>
        <pt x="58" y="422" on="1"/>
        <pt x="44" y="422" on="0"/>
        <pt x="32" y="443" on="0"/>
        <pt x="32" y="465" on="1"/>
        <pt x="32" y="480" on="1"/>
        <pt x="32" y="502" on="0"/>
        <pt x="44" y="523" on="0"/>
        <pt x="58" y="523" on="1"/>
        <pt x="76" y="523" on="1"/>
        <pt x="76" y="609" on="1"/>
        <pt x="76" y="687" on="0"/>
        <pt x="148" y="759" on="0"/>
        <pt x="208" y="759" on="1"/>
        <pt x="238" y="759" on="0"/>
        <pt x="295" y="738" on="0"/>
        <pt x="295" y="715" on="1"/>
        <pt x="295" y="703" on="0"/>
        <pt x="279" y="652" on="0"/>
        <pt x="267" y="652" on="1"/>
        <pt x="262" y="652" on="0"/>
        <pt x="243" y="657" on="0"/>
        <pt x="236" y="657" on="1"/>
        <pt x="219" y="657" on="0"/>
        <pt x="202" y="635" on="0"/>
        <pt x="202" y="607" on="1"/>
        <pt x="202" y="523" on="1"/>
        <pt x="355" y="523" on="1"/>
        <pt x="368" y="621" on="1"/>
        <pt x="371" y="650" on="0"/>
        <pt x="414" y="650" on="1"/>
        <pt x="438" y="650" on="1"/>
        <pt x="481" y="650" on="0"/>
        <pt x="481" y="621" on="1"/>
        <pt x="481" y="523" on="1"/>
        <pt x="528" y="523" on="1"/>
        <pt x="542" y="523" on="0"/>
        <pt x="555" y="503" on="0"/>
        <pt x="555" y="480" on="1"/>
        <pt x="555" y="465" on="1"/>
        <pt x="555" y="442" on="0"/>
        <pt x="542" y="422" on="0"/>
        <pt x="528" y="422" on="1"/>
        <pt x="481" y="422" on="1"/>
        <pt x="481" y="139" on="1"/>
        <pt x="481" y="115" on="0"/>
        <pt x="496" y="94" on="0"/>
        <pt x="510" y="94" on="1"/>
        <pt x="518" y="94" on="0"/>
        <pt x="536" y="98" on="0"/>
        <pt x="540" y="98" on="1"/>
      </contour>
    </TTGlyph>
    <TTGlyph name="fi" xMin="32" yMin="-2" xMax="476" yMax="759">
      <contour>
        <pt x="451" y="523" on="0"/>
        <pt x="476" y="510" on="0"/>
        <pt x="476" y="496" on="1"/>
        <pt x="476" y="27" on="1"/>
        <pt x="476" y="-2" on="0"/>
        <pt x="423" y="-2" on="1"/>
        <pt x="403" y="-2" on="1"/>
        <pt x="350" y="-2" on="0"/>
        <pt x="350" y="27" on="1"/>
        <pt x="350" y="422" on="1"/>
        <pt x="202" y="422" on="1"/>
        <pt x="202" y="27" on="1"/>
        <pt x="202" y="-2" on="0"/>
        <pt x="149" y="-2" on="1"/>
        <pt x="129" y="-2" on="1"/>
        <pt x="76" y="-2" on="0"/>
        <pt x="76" y="27" on="1"/>
        <pt x="76" y="422" on="1"/>
        <pt x="58" y="422" on="1"/>
        <pt x="44" y="422" on="0"/>
        <pt x="32" y="443" on="0"/>
        <pt x="32" y="465" on="1"/>
        <pt x="32" y="480" on="1"/>
        <pt x="32" y="502" on="0"/>
        <pt x="44" y="523" on="0"/>
        <pt x="58" y="523" on="1"/>
        <pt x="76" y="523" on="1"/>
        <pt x="76" y="609" on="1"/>
        <pt x="76" y="687" on="0"/>
        <pt x="148" y="759" on="0"/>
        <pt x="208" y="759" on="1"/>
        <pt x="238" y="759" on="0"/>
        <pt x="295" y="738" on="0"/>
        <pt x="295" y="715" on="1"/>
        <pt x="295" y="703" on="0"/>
        <pt x="279" y="652" on="0"/>
        <pt x="267" y="652" on="1"/>
        <pt x="262" y="652" on="0"/>
        <pt x="243" y="657" on="0"/>
        <pt x="236" y="657" on="1"/>
        <pt x="219" y="657" on="0"/>
        <pt x="202" y="635" on="0"/>
        <pt x="202" y="607" on="1"/>
        <pt x="202" y="523" on="1"/>
        <pt x="423" y="523" on="1"/>
      </contour>
      <contour>
        <pt x="354" y="588" on="0"/>
        <pt x="354" y="617" on="1"/>
        <pt x="354" y="673" on="1"/>
        <pt x="354" y="702" on="0"/>
        <pt x="414" y="702" on="1"/>
        <pt x="475" y="702" on="0"/>
        <pt x="475" y="673" on="1"/>
        <pt x="475" y="617" on="1"/>
        <pt x="475" y="588" on="0"/>
        <pt x="415" y="588" on="1"/>
      </contour>
    </TTGlyph>
    <TTGlyph name="five" xMin="26" yMin="-7" xMax="423" yMax="700">
      <contour>
        <pt x="150" y="-7" on="0"/>
        <pt x="71" y="12" on="0"/>
        <pt x="26" y="43" on="0"/>
        <pt x="26" y="61" on="1"/>
        <pt x="26" y="76" on="0"/>
        <pt x="61" y="130" on="0"/>
        <pt x="74" y="130" on="1"/>
        <pt x="77" y="130" on="0"/>
        <pt x="116" y="109" on="0"/>
        <pt x="165" y="94" on="0"/>
        <pt x="195" y="94" on="1"/>
        <pt x="239" y="94" on="0"/>
        <pt x="295" y="157" on="0"/>
        <pt x="295" y="212" on="1"/>
        <pt x="295" y="332" on="0"/>
        <pt x="175" y="332" on="1"/>
        <pt x="87" y="332" on="1"/>
        <pt x="68" y="332" on="0"/>
        <pt x="53" y="349" on="0"/>
        <pt x="53" y="369" on="1"/>
        <pt x="72" y="663" on="1"/>
        <pt x="73" y="683" on="0"/>
        <pt x="91" y="700" on="0"/>
        <pt x="110" y="700" on="1"/>
        <pt x="371" y="700" on="1"/>
        <pt x="385" y="700" on="0"/>
        <pt x="397" y="679" on="0"/>
        <pt x="397" y="657" on="1"/>
        <pt x="397" y="635" on="1"/>
        <pt x="397" y="616" on="0"/>
        <pt x="385" y="599" on="0"/>
        <pt x="371" y="599" on="1"/>
        <pt x="188" y="599" on="1"/>
        <pt x="177" y="434" on="1"/>
        <pt x="202" y="434" on="1"/>
        <pt x="423" y="434" on="0"/>
        <pt x="423" y="214" on="1"/>
        <pt x="423" y="98" on="0"/>
        <pt x="292" y="-7" on="0"/>
        <pt x="199" y="-7" on="1"/>
      </contour>
    </TTGlyph>
    <TTGlyph name="fl" xMin="32" yMin="-7" xMax="551" yMax="759">
      <component glyphName="f" x="0" y="0" flags="0x0"/>
      <component glyphName="l" x="286" y="0" flags="0x0"/>
    </TTGlyph>
    <TTGlyph name="florin" xMin="4" yMin="-207" xMax="334" yMax="759">
      <contour>
        <pt x="25" y="-207" on="0"/>
        <pt x="4" y="-193" on="0"/>
        <pt x="4" y="-179" on="1"/>
        <pt x="12" y="-105" on="1"/>
        <pt x="57" y="313" on="0"/>
        <pt x="67" y="418" on="1"/>
        <pt x="35" y="418" on="1"/>
        <pt x="13" y="418" on="0"/>
        <pt x="13" y="445" on="1"/>
        <pt x="13" y="468" on="0"/>
        <pt x="28" y="520" on="0"/>
        <pt x="50" y="520" on="1"/>
        <pt x="78" y="520" on="1"/>
        <pt x="87" y="605" on="1"/>
        <pt x="96" y="685" on="0"/>
        <pt x="185" y="759" on="0"/>
        <pt x="249" y="759" on="1"/>
        <pt x="285" y="759" on="0"/>
        <pt x="334" y="742" on="0"/>
        <pt x="334" y="716" on="1"/>
        <pt x="333" y="702" on="0"/>
        <pt x="309" y="653" on="0"/>
        <pt x="297" y="653" on="1"/>
        <pt x="292" y="653" on="0"/>
        <pt x="273" y="657" on="0"/>
        <pt x="263" y="657" on="1"/>
        <pt x="241" y="657" on="0"/>
        <pt x="217" y="634" on="0"/>
        <pt x="213" y="603" on="1"/>
        <pt x="203" y="520" on="1"/>
        <pt x="264" y="520" on="1"/>
        <pt x="286" y="520" on="0"/>
        <pt x="286" y="492" on="1"/>
        <pt x="286" y="472" on="0"/>
        <pt x="271" y="418" on="0"/>
        <pt x="250" y="418" on="1"/>
        <pt x="193" y="418" on="1"/>
        <pt x="130" y="-178" on="1"/>
        <pt x="128" y="-193" on="0"/>
        <pt x="103" y="-207" on="0"/>
        <pt x="75" y="-207" on="1"/>
        <pt x="52" y="-207" on="1"/>
      </contour>
    </TTGlyph>
</ttFont>
